<svg width="261" height="71" viewBox="0 0 261 71" fill="none" xmlns="http://www.w3.org/2000/svg">
<path d="M67.6039 58.2318C57.3887 56.6577 45.8495 53.3106 38.3102 46.0094C33.4404 41.2934 21.4267 26.7451 30.3674 20.8847C33.6378 18.7411 37.3693 16.725 41.371 16.6463C45.3108 16.5687 47.2233 20.6471 48.8028 23.7175C50.3478 26.7208 52.1624 31.0583 50.9186 34.4883C49.7533 37.702 45.5146 40.4586 42.6873 42.1195C33.2501 47.6634 25.7209 41.9665 18.5122 35.2025C13.9408 30.9133 10.5885 26.854 7.22697 21.5831C5.42653 18.7601 4.0266 14.7911 1.59106 12.47" stroke="#969696" stroke-width="0.5" stroke-linecap="round"/>
<path d="M2.07814 21.3298C1.74311 19.8416 1.29499 18.3354 1.10475 16.8211C0.920712 15.356 1.19467 13.8765 1.19069 12.4384C1.18832 11.5822 2.02029 12.0181 2.73687 12.0903C5.24829 12.343 8.06875 12.54 10.5828 12.4796" stroke="#969696" stroke-width="0.5" stroke-linecap="round"/>
<path d="M76.1138 62.417C75.9731 62.3232 75.9673 62.2002 76.0962 62.0479C76.2368 61.8838 76.4536 61.7139 76.7466 61.5381C77.0513 61.3506 77.4028 61.1572 77.8013 60.958C78.1997 60.7588 78.5806 60.5713 78.9438 60.3955C79.3188 60.2197 79.647 60.0674 79.9282 59.9385C80.2095 59.7979 80.3911 59.6924 80.4731 59.6221C80.8599 59.2939 81.0591 59.0244 81.0708 58.8135C81.0942 58.5908 81.0005 58.415 80.7896 58.2861C80.5786 58.1455 80.2798 58.04 79.8931 57.9697C79.5181 57.8877 79.1255 57.8174 78.7153 57.7588C78.3169 57.6885 77.9302 57.6182 77.5552 57.5479C77.1919 57.4775 76.9165 57.3838 76.729 57.2666C76.5415 57.1494 76.4771 56.9971 76.5356 56.8096C76.606 56.6104 76.8638 56.3584 77.3091 56.0537C77.4731 55.9365 77.7134 55.7666 78.0298 55.5439C78.3462 55.3213 78.686 55.0928 79.0493 54.8584C79.4243 54.624 79.7935 54.4131 80.1567 54.2256C80.52 54.0381 80.8247 53.915 81.0708 53.8564C81.1997 53.833 81.3286 53.8447 81.4575 53.8916C81.5981 53.9385 81.7095 54.0088 81.7915 54.1025C81.8735 54.1846 81.9087 54.2783 81.897 54.3838C81.897 54.4893 81.8208 54.583 81.6685 54.665C81.0005 55.04 80.356 55.3916 79.7349 55.7197C79.1255 56.0479 78.5103 56.4229 77.8892 56.8447C77.854 56.9385 77.8599 57.0205 77.9067 57.0908C77.9653 57.1611 78.0298 57.2139 78.1001 57.249C79.3423 57.3779 80.2739 57.5596 80.895 57.7939C81.5278 58.0283 81.9263 58.2861 82.0903 58.5674C82.2661 58.8486 82.2485 59.1475 82.0376 59.4639C81.8267 59.7803 81.5103 60.0908 81.0884 60.3955C80.6782 60.7002 80.2036 60.9873 79.6646 61.2568C79.1255 61.5264 78.604 61.7549 78.1001 61.9424C77.6079 62.1299 77.1743 62.2705 76.7993 62.3643C76.4243 62.458 76.1958 62.4756 76.1138 62.417ZM84.1646 62.417C84.1528 62.3936 84.147 62.3291 84.147 62.2236C84.147 62.1182 84.1528 62.0479 84.1646 62.0127C84.1997 61.8838 84.2642 61.6611 84.3579 61.3447C84.4517 61.0166 84.5513 60.6768 84.6567 60.3252C84.7622 59.9619 84.8618 59.6221 84.9556 59.3057C85.0493 58.9893 85.1138 58.7666 85.1489 58.6377C85.1958 58.4736 85.2485 58.2861 85.3071 58.0752C85.3657 57.8525 85.3774 57.6416 85.3423 57.4424C85.1665 57.4189 84.9497 57.4424 84.6919 57.5127C84.4341 57.5713 84.1763 57.624 83.9185 57.6709C83.6724 57.7061 83.438 57.7061 83.2153 57.6709C83.0044 57.624 82.8521 57.4834 82.7583 57.249C82.8989 56.9561 83.1099 56.7686 83.3911 56.6865C83.6724 56.5928 83.9771 56.5283 84.3052 56.4932C84.6333 56.458 84.9438 56.4053 85.2368 56.335C85.5415 56.2646 85.7817 56.1064 85.9575 55.8604C86.063 55.5557 86.186 55.1865 86.3267 54.7529C86.479 54.3076 86.6372 53.8447 86.8013 53.3643C86.9653 52.8838 87.1411 52.4092 87.3286 51.9404C87.5278 51.4717 87.7329 51.0557 87.9438 50.6924C88.0728 50.6104 88.1782 50.6045 88.2603 50.6748C88.3423 50.7451 88.4009 50.8506 88.436 50.9912C88.4829 51.1201 88.5122 51.2549 88.5239 51.3955C88.5356 51.5361 88.5356 51.6299 88.5239 51.6768C88.4536 51.9814 88.3306 52.3096 88.1548 52.6611C87.9907 53.001 87.8325 53.3467 87.6802 53.6982C87.5396 54.0498 87.4224 54.4014 87.3286 54.7529C87.2466 55.1045 87.2466 55.4385 87.3286 55.7549H91.1079C91.1196 55.7549 91.1489 55.7959 91.1958 55.8779C91.2427 55.9482 91.2837 56.0068 91.3188 56.0537C91.3774 56.2178 91.313 56.3291 91.1255 56.3877C90.938 56.4463 90.686 56.4873 90.3696 56.5107C90.0532 56.5225 89.6899 56.5342 89.2798 56.5459C88.8813 56.5459 88.4946 56.5752 88.1196 56.6338C87.7563 56.6807 87.4282 56.7686 87.1353 56.8975C86.8423 57.0146 86.6431 57.1963 86.5376 57.4424C86.2329 58.2275 85.9517 59.0186 85.6938 59.8154C85.436 60.6006 85.1899 61.3975 84.9556 62.2061C84.9321 62.2412 84.8853 62.2998 84.8149 62.3818C84.7446 62.4521 84.6685 62.5166 84.5864 62.5752C84.5044 62.6221 84.4224 62.6396 84.3403 62.6279C84.27 62.6162 84.2114 62.5459 84.1646 62.417ZM91.5122 62.417C91.02 62.2178 90.7095 61.9189 90.5806 61.5205C90.4634 61.1221 90.4692 60.6826 90.5981 60.2021C90.7271 59.71 90.9497 59.2061 91.2661 58.6904C91.5825 58.1631 91.9341 57.6826 92.3208 57.249C92.7075 56.8154 93.0942 56.4521 93.481 56.1592C93.8794 55.8545 94.2192 55.6846 94.5005 55.6494C95.2271 55.5557 95.7954 55.6084 96.2056 55.8076C96.6274 55.9951 96.9146 56.2705 97.0669 56.6338C97.2192 56.9971 97.2603 57.4248 97.1899 57.917C97.1196 58.3975 96.9614 58.8838 96.7153 59.376C96.481 59.8682 96.1704 60.3428 95.7837 60.7998C95.4087 61.2568 94.9868 61.6436 94.5181 61.96C94.061 62.2646 93.5747 62.4697 93.0591 62.5752C92.5435 62.6689 92.0278 62.6162 91.5122 62.417ZM91.3188 61.415C91.4126 61.79 91.6118 62.001 91.9165 62.0479C92.2212 62.083 92.5728 62.0068 92.9712 61.8193C93.3813 61.6201 93.8091 61.3389 94.2544 60.9756C94.6997 60.6006 95.104 60.1963 95.4673 59.7627C95.8423 59.3291 96.147 58.8955 96.3813 58.4619C96.6274 58.0166 96.7446 57.6299 96.7329 57.3018C96.7329 56.9736 96.5747 56.7275 96.2583 56.5635C95.9536 56.3877 95.438 56.3525 94.7114 56.458C94.5474 56.6104 94.3364 56.7979 94.0786 57.0205C93.8208 57.2314 93.5513 57.4658 93.27 57.7236C93.0005 57.9814 92.731 58.2627 92.4614 58.5674C92.1919 58.8604 91.9575 59.165 91.7583 59.4814C91.5591 59.7979 91.4126 60.1201 91.3188 60.4482C91.2368 60.7764 91.2368 61.0986 91.3188 61.415ZM96.1001 68.7627C95.9946 68.1064 96.0298 67.4385 96.2056 66.7588C96.3696 66.0908 96.5923 65.4229 96.8735 64.7549C97.1431 64.0869 97.4185 63.4189 97.6997 62.751C97.981 62.0947 98.1743 61.4502 98.2798 60.8174C98.2798 60.7939 98.3267 60.7236 98.4204 60.6064C98.5259 60.4893 98.6372 60.3662 98.7544 60.2373C98.8833 60.0967 98.9946 59.9678 99.0884 59.8506C99.1938 59.7217 99.2524 59.6455 99.2642 59.6221C99.4517 59.2119 99.6392 58.8369 99.8267 58.4971C100.026 58.1455 100.178 57.8057 100.284 57.4775C100.389 57.1494 100.436 56.8271 100.424 56.5107C100.413 56.1826 100.295 55.8311 100.073 55.4561C100.049 55.4326 100.038 55.3975 100.038 55.3506C100.038 55.3037 100.049 55.2744 100.073 55.2627C100.413 54.8291 100.805 54.4658 101.25 54.1729C101.696 53.8799 102.17 53.6455 102.674 53.4697C103.178 53.2939 103.7 53.1768 104.239 53.1182C104.778 53.0596 105.311 53.0479 105.838 53.083C106.284 53.458 106.565 53.8857 106.682 54.3662C106.811 54.835 106.817 55.3271 106.7 55.8428C106.594 56.3467 106.389 56.8564 106.084 57.3721C105.792 57.8877 105.452 58.3682 105.065 58.8135C104.678 59.2588 104.268 59.6572 103.834 60.0088C103.413 60.3604 103.014 60.6299 102.639 60.8174C102.299 60.9814 102.047 61.0928 101.883 61.1514C101.731 61.1982 101.579 61.2275 101.426 61.2393C101.274 61.251 101.086 61.2627 100.864 61.2744C100.653 61.2861 100.325 61.333 99.8794 61.415C99.6802 61.4502 99.5103 61.5439 99.3696 61.6963C99.2407 61.8369 99.1294 62.001 99.0356 62.1885C98.9536 62.3643 98.8833 62.5459 98.8247 62.7334C98.7778 62.9326 98.731 63.0908 98.6841 63.208C98.4731 63.7236 98.2798 64.1982 98.104 64.6318C97.9399 65.0771 97.7817 65.5107 97.6294 65.9326C97.4653 66.3662 97.3071 66.8115 97.1548 67.2686C97.0024 67.7256 96.8442 68.2236 96.6802 68.7627C96.6567 68.8213 96.6157 68.8682 96.5571 68.9033C96.4985 68.9502 96.4399 68.9736 96.3813 68.9736C96.311 68.9854 96.2524 68.9736 96.2056 68.9385C96.147 68.915 96.1118 68.8564 96.1001 68.7627ZM100.073 60.624C100.612 60.7295 101.133 60.7002 101.637 60.5361C102.153 60.3721 102.633 60.1201 103.079 59.7803C103.524 59.4287 103.922 59.0127 104.274 58.5322C104.637 58.04 104.942 57.5244 105.188 56.9854C105.434 56.4463 105.616 55.9072 105.733 55.3682C105.85 54.8174 105.885 54.3135 105.838 53.8564C105.674 53.7158 105.475 53.6455 105.241 53.6455C105.018 53.6338 104.819 53.6396 104.643 53.6631C104.01 53.7451 103.512 53.9092 103.149 54.1553C102.786 54.3896 102.487 54.6885 102.252 55.0518C102.03 55.415 101.836 55.8369 101.672 56.3174C101.508 56.7861 101.309 57.2959 101.075 57.8467C101.028 57.9287 100.958 58.0752 100.864 58.2861C100.77 58.4854 100.67 58.7021 100.565 58.9365C100.459 59.1592 100.36 59.376 100.266 59.5869C100.172 59.7979 100.108 59.9443 100.073 60.0264V60.624ZM122.538 62.417C122.303 62.2412 122.122 62.0127 121.993 61.7314C121.864 61.4502 121.764 61.1514 121.694 60.835C121.635 60.5186 121.594 60.2021 121.571 59.8857C121.547 59.5693 121.536 59.2881 121.536 59.042C121.512 59.0186 121.477 59.0068 121.43 59.0068C121.395 59.0068 121.366 59.0186 121.342 59.042C121.049 59.2529 120.768 59.5049 120.499 59.7979C120.229 60.0908 119.959 60.3896 119.69 60.6943C119.432 60.999 119.174 61.3037 118.917 61.6084C118.67 61.9014 118.418 62.1709 118.161 62.417C117.997 62.4756 117.827 62.4932 117.651 62.4697C117.475 62.4346 117.323 62.376 117.194 62.2939C117.077 62.2002 116.989 62.083 116.93 61.9424C116.883 61.79 116.901 61.6143 116.983 61.415C117.206 60.7002 117.446 59.9443 117.704 59.1475C117.973 58.3389 118.254 57.5713 118.547 56.8447C118.653 56.5869 118.764 56.4463 118.881 56.4229C119.01 56.3994 119.122 56.4463 119.215 56.5635C119.309 56.6807 119.374 56.8447 119.409 57.0557C119.444 57.2549 119.426 57.4541 119.356 57.6533C119.321 57.7471 119.256 57.917 119.163 58.1631C119.069 58.3975 118.969 58.6553 118.864 58.9365C118.758 59.2061 118.659 59.4639 118.565 59.71C118.471 59.9561 118.407 60.126 118.372 60.2197V60.8174C118.735 60.4893 119.04 60.1963 119.286 59.9385C119.532 59.6807 119.76 59.4229 119.971 59.165C120.194 58.8955 120.422 58.6143 120.657 58.3213C120.891 58.0166 121.184 57.6592 121.536 57.249C121.805 56.9326 122.016 56.7627 122.168 56.7393C122.321 56.7041 122.432 56.7686 122.502 56.9326C122.584 57.085 122.631 57.3135 122.643 57.6182C122.655 57.9111 122.655 58.2334 122.643 58.585C122.643 58.9248 122.631 59.2705 122.608 59.6221C122.584 59.9619 122.573 60.2607 122.573 60.5186C122.584 60.7646 122.614 60.9463 122.661 61.0635C122.708 61.1689 122.795 61.1572 122.924 61.0283C123.065 60.8057 123.27 60.4834 123.54 60.0615C123.809 59.6396 124.114 59.1768 124.454 58.6729C124.793 58.1572 125.163 57.6416 125.561 57.126C125.971 56.5986 126.387 56.1299 126.809 55.7197C127.231 55.2979 127.653 54.9697 128.075 54.7354C128.497 54.4893 128.901 54.3955 129.288 54.4541C129.299 54.501 129.229 54.6299 129.077 54.8408C128.936 55.0518 128.743 55.3037 128.497 55.5967C128.262 55.8779 127.999 56.1885 127.706 56.5283C127.424 56.8564 127.143 57.1729 126.862 57.4775C126.592 57.7822 126.352 58.0576 126.141 58.3037C125.93 58.5498 125.784 58.7314 125.702 58.8486C125.667 58.8955 125.59 59.001 125.473 59.165C125.368 59.3174 125.239 59.5049 125.086 59.7275C124.946 59.9385 124.788 60.167 124.612 60.4131C124.448 60.6592 124.29 60.8936 124.137 61.1162C123.985 61.3389 123.85 61.5322 123.733 61.6963C123.627 61.8604 123.557 61.9658 123.522 62.0127C123.417 62.165 123.329 62.2881 123.258 62.3818C123.188 62.4756 123.118 62.54 123.047 62.5752C122.989 62.6104 122.918 62.6162 122.836 62.5928C122.754 62.5693 122.655 62.5107 122.538 62.417ZM131.168 62.417C130.676 62.2178 130.366 61.9189 130.237 61.5205C130.12 61.1221 130.125 60.6826 130.254 60.2021C130.383 59.71 130.606 59.2061 130.922 58.6904C131.239 58.1631 131.59 57.6826 131.977 57.249C132.364 56.8154 132.75 56.4521 133.137 56.1592C133.536 55.8545 133.875 55.6846 134.157 55.6494C134.883 55.5557 135.452 55.6084 135.862 55.8076C136.284 55.9951 136.571 56.2705 136.723 56.6338C136.875 56.9971 136.917 57.4248 136.846 57.917C136.776 58.3975 136.618 58.8838 136.372 59.376C136.137 59.8682 135.827 60.3428 135.44 60.7998C135.065 61.2568 134.643 61.6436 134.174 61.96C133.717 62.2646 133.231 62.4697 132.715 62.5752C132.2 62.6689 131.684 62.6162 131.168 62.417ZM130.975 61.415C131.069 61.79 131.268 62.001 131.573 62.0479C131.877 62.083 132.229 62.0068 132.627 61.8193C133.038 61.6201 133.465 61.3389 133.911 60.9756C134.356 60.6006 134.76 60.1963 135.124 59.7627C135.499 59.3291 135.803 58.8955 136.038 58.4619C136.284 58.0166 136.401 57.6299 136.389 57.3018C136.389 56.9736 136.231 56.7275 135.915 56.5635C135.61 56.3877 135.094 56.3525 134.368 56.458C134.204 56.6104 133.993 56.7979 133.735 57.0205C133.477 57.2314 133.208 57.4658 132.926 57.7236C132.657 57.9814 132.387 58.2627 132.118 58.5674C131.848 58.8604 131.614 59.165 131.415 59.4814C131.215 59.7979 131.069 60.1201 130.975 60.4482C130.893 60.7764 130.893 61.0986 130.975 61.415ZM137.848 62.417C137.825 62.4053 137.825 62.2705 137.848 62.0127C137.883 61.7432 137.93 61.4092 137.989 61.0107C138.047 60.6123 138.124 60.1729 138.217 59.6924C138.311 59.2119 138.411 58.7549 138.516 58.3213C138.622 57.876 138.733 57.4893 138.85 57.1611C138.979 56.8213 139.102 56.5869 139.219 56.458C139.301 56.376 139.383 56.376 139.465 56.458C139.547 56.5283 139.629 56.6221 139.711 56.7393C139.793 56.8447 139.875 56.9443 139.958 57.0381C140.04 57.1201 140.127 57.126 140.221 57.0557C140.549 56.5986 140.907 56.165 141.293 55.7549C141.692 55.333 142.131 54.9697 142.612 54.665C142.659 54.6299 142.788 54.5771 142.999 54.5068C143.209 54.4248 143.45 54.3486 143.719 54.2783C143.989 54.1963 144.264 54.1318 144.545 54.085C144.838 54.0264 145.084 54.0029 145.284 54.0146C145.495 54.0146 145.635 54.0674 145.706 54.1729C145.788 54.2666 145.752 54.4307 145.6 54.665C144.897 54.6768 144.241 54.8818 143.631 55.2803C143.022 55.6787 142.459 56.1709 141.944 56.7568C141.428 57.3428 140.959 57.9814 140.538 58.6729C140.116 59.3525 139.747 59.9854 139.43 60.5713C139.125 61.1572 138.868 61.6436 138.657 62.0303C138.458 62.417 138.311 62.6104 138.217 62.6104C138.206 62.6104 138.153 62.5869 138.059 62.54C137.965 62.4814 137.895 62.4404 137.848 62.417ZM153.334 62.0127C152.584 60.9814 151.981 60.1318 151.524 59.4639C151.067 58.7842 150.692 58.2803 150.399 57.9521C150.106 57.624 149.866 57.4658 149.678 57.4775C149.491 57.4893 149.286 57.6709 149.063 58.0225C148.852 58.3623 148.588 58.8662 148.272 59.5342C147.956 60.2021 147.522 61.0283 146.971 62.0127C146.901 62.1416 146.825 62.2236 146.743 62.2588C146.672 62.2822 146.602 62.2822 146.532 62.2588C146.461 62.2236 146.397 62.165 146.338 62.083C146.28 62.001 146.233 61.9131 146.198 61.8193C146.163 61.7021 146.204 61.4795 146.321 61.1514C146.438 60.8115 146.608 60.4072 146.831 59.9385C147.065 59.458 147.334 58.9307 147.639 58.3564C147.956 57.7705 148.284 57.1729 148.624 56.5635C148.975 55.9541 149.321 55.3506 149.661 54.7529C150.012 54.1553 150.334 53.6045 150.627 53.1006C150.932 52.585 151.202 52.1338 151.436 51.7471C151.67 51.3604 151.84 51.0732 151.946 50.8857C152.028 50.8271 152.11 50.8213 152.192 50.8682C152.286 50.915 152.362 50.9912 152.42 51.0967C152.491 51.1904 152.538 51.2959 152.561 51.4131C152.584 51.5186 152.573 51.6064 152.526 51.6768L150.944 54.4541V54.8584C151.19 54.917 151.495 54.8994 151.858 54.8057C152.233 54.7002 152.631 54.5537 153.053 54.3662C153.487 54.1787 153.926 53.9619 154.372 53.7158C154.817 53.458 155.239 53.2061 155.637 52.96C156.047 52.7021 156.411 52.4619 156.727 52.2393C157.055 52.0049 157.313 51.8174 157.5 51.6768C157.653 51.5947 157.788 51.5713 157.905 51.6064C158.034 51.6416 158.127 51.7061 158.186 51.7998C158.256 51.8936 158.286 52.0049 158.274 52.1338C158.262 52.2627 158.204 52.3799 158.098 52.4854C157.77 52.8252 157.377 53.1182 156.92 53.3643C156.475 53.5986 156 53.8154 155.497 54.0146C154.993 54.2021 154.477 54.3838 153.95 54.5596C153.434 54.7236 152.936 54.9053 152.456 55.1045C151.975 55.3037 151.536 55.5264 151.137 55.7725C150.739 56.0186 150.411 56.3115 150.153 56.6514C150.305 56.7803 150.504 56.9854 150.75 57.2666C151.008 57.5361 151.284 57.8408 151.577 58.1807C151.881 58.5205 152.186 58.8838 152.491 59.2705C152.795 59.6455 153.065 60.0146 153.299 60.3779C153.545 60.7295 153.745 61.0518 153.897 61.3447C154.061 61.626 154.143 61.8486 154.143 62.0127V62.417C154.049 62.4639 153.961 62.4814 153.879 62.4697C153.809 62.4463 153.739 62.4111 153.668 62.3643C153.598 62.3174 153.534 62.2646 153.475 62.2061C153.428 62.1357 153.381 62.0713 153.334 62.0127ZM158.889 62.417C159.37 60.8701 159.803 59.6455 160.19 58.7432C160.588 57.8291 160.917 57.1904 161.174 56.8271C161.444 56.4639 161.625 56.3467 161.719 56.4756C161.813 56.6045 161.801 56.9326 161.684 57.46C161.579 57.9873 161.344 58.6963 160.981 59.5869C160.629 60.4658 160.131 61.4736 159.487 62.6104C159.393 62.6455 159.282 62.6514 159.153 62.6279C159.024 62.6045 158.936 62.5342 158.889 62.417ZM161.965 53.9619C161.942 53.9033 161.93 53.7979 161.93 53.6455C161.93 53.4932 161.942 53.3994 161.965 53.3643C162.235 53.2705 162.44 53.2588 162.581 53.3291C162.721 53.3994 162.809 53.5049 162.844 53.6455C162.879 53.7744 162.874 53.915 162.827 54.0674C162.792 54.2197 162.727 54.3369 162.633 54.4189C162.54 54.4893 162.428 54.501 162.299 54.4541C162.182 54.3955 162.071 54.2314 161.965 53.9619ZM170.016 62.417C169.981 62.0303 170.01 61.6494 170.104 61.2744C170.209 60.8877 170.344 60.5127 170.508 60.1494C170.684 59.7744 170.866 59.4053 171.053 59.042C171.252 58.667 171.422 58.3037 171.563 57.9521C171.704 57.5889 171.803 57.2373 171.862 56.8975C171.92 56.5459 171.897 56.2002 171.792 55.8604C171.499 55.7549 171.159 55.7783 170.772 55.9307C170.397 56.083 169.999 56.3174 169.577 56.6338C169.155 56.9385 168.715 57.3018 168.258 57.7236C167.813 58.1338 167.374 58.5557 166.94 58.9893C166.518 59.4111 166.114 59.8154 165.727 60.2021C165.34 60.5889 164.989 60.9111 164.672 61.1689C164.368 61.415 164.11 61.5732 163.899 61.6436C163.688 61.7021 163.547 61.626 163.477 61.415C163.465 61.4033 163.53 61.2568 163.67 60.9756C163.823 60.6826 164.004 60.3193 164.215 59.8857C164.438 59.4521 164.678 58.9834 164.936 58.4795C165.206 57.9756 165.458 57.5068 165.692 57.0732C165.926 56.6279 166.131 56.2529 166.307 55.9482C166.483 55.6436 166.594 55.4795 166.641 55.4561C166.887 55.6201 167.01 55.8018 167.01 56.001C167.022 56.1885 166.993 56.3877 166.922 56.5986C166.852 56.7979 166.77 57.0029 166.676 57.2139C166.594 57.4248 166.583 57.6357 166.641 57.8467C166.829 57.7178 167.086 57.542 167.415 57.3193C167.754 57.085 168.118 56.8447 168.504 56.5986C168.903 56.3525 169.313 56.1123 169.735 55.8779C170.168 55.6436 170.573 55.4619 170.948 55.333C171.323 55.1924 171.657 55.1162 171.95 55.1045C172.254 55.0928 172.477 55.1807 172.618 55.3682C172.758 55.5557 172.799 55.8662 172.741 56.2998C172.694 56.7217 172.512 57.3018 172.196 58.04C172.161 58.1221 172.073 58.3213 171.932 58.6377C171.803 58.9424 171.657 59.2764 171.493 59.6396C171.34 59.9912 171.194 60.3252 171.053 60.6416C170.924 60.9463 170.842 61.1396 170.807 61.2217C170.795 61.2686 170.778 61.3564 170.754 61.4854C170.743 61.6025 170.725 61.7373 170.702 61.8896C170.678 62.0303 170.643 62.1709 170.596 62.3115C170.549 62.4404 170.491 62.54 170.42 62.6104C170.35 62.6807 170.268 62.6748 170.174 62.5928C170.081 62.499 170.028 62.4404 170.016 62.417ZM170.913 67.5674C170.549 67.4385 170.256 67.2451 170.034 66.9873C169.799 66.7295 169.624 66.4482 169.506 66.1436C169.377 65.8506 169.301 65.5518 169.278 65.2471C169.243 64.9424 169.249 64.6729 169.295 64.4385C169.331 64.2041 169.401 64.0225 169.506 63.8936C169.6 63.7764 169.711 63.7471 169.84 63.8057C169.829 64.8252 169.952 65.5928 170.209 66.1084C170.456 66.6357 170.784 66.9639 171.194 67.0928C171.592 67.2334 172.049 67.2041 172.565 67.0049C173.069 66.8057 173.579 66.4951 174.094 66.0732C174.622 65.6631 175.12 65.165 175.588 64.5791C176.069 64.0049 176.473 63.4014 176.801 62.7686C177.129 62.1475 177.364 61.5322 177.504 60.9229C177.645 60.3018 177.639 59.7393 177.487 59.2354C176.432 59.9971 175.612 60.4775 175.026 60.6768C174.44 60.876 174.03 60.8877 173.795 60.7119C173.573 60.5244 173.502 60.1963 173.584 59.7275C173.667 59.2588 173.842 58.7432 174.112 58.1807C174.381 57.6182 174.721 57.0557 175.131 56.4932C175.542 55.9189 175.963 55.4385 176.397 55.0518C176.831 54.665 177.247 54.4189 177.645 54.3135C178.055 54.208 178.395 54.3311 178.665 54.6826C178.934 55.0459 179.104 55.5381 179.174 56.1592C179.245 56.7686 179.227 57.4482 179.122 58.1982C179.016 58.9482 178.829 59.7334 178.559 60.5537C178.301 61.374 177.979 62.1709 177.592 62.9443C177.206 63.7295 176.76 64.4561 176.256 65.124C175.764 65.792 175.231 66.3486 174.657 66.7939C174.083 67.2393 173.479 67.5381 172.846 67.6904C172.213 67.8545 171.569 67.8135 170.913 67.5674ZM174.499 58.8486C174.487 58.8838 174.475 58.9482 174.463 59.042C174.463 59.1357 174.463 59.2354 174.463 59.3408C174.463 59.4463 174.463 59.5459 174.463 59.6396C174.475 59.7334 174.487 59.7979 174.499 59.833C174.874 59.9268 175.26 59.8389 175.659 59.5693C176.057 59.2998 176.42 58.9541 176.749 58.5322C177.088 58.1104 177.37 57.665 177.592 57.1963C177.827 56.7275 177.967 56.335 178.014 56.0186C178.073 55.7021 178.014 55.5264 177.838 55.4912C177.663 55.4443 177.34 55.6318 176.872 56.0537C176.731 56.1826 176.543 56.3584 176.309 56.5811C176.075 56.8037 175.834 57.0439 175.588 57.3018C175.354 57.5596 175.131 57.8291 174.92 58.1104C174.721 58.3799 174.581 58.626 174.499 58.8486ZM189.809 62.2061C189.786 62.1826 189.774 62.1182 189.774 62.0127C189.774 61.9072 189.786 61.8428 189.809 61.8193L191.286 58.4268H189.616C189.581 58.4268 189.545 58.4033 189.51 58.3564C189.487 58.3096 189.463 58.2568 189.44 58.1982C189.428 58.1279 189.417 58.0635 189.405 58.0049C189.393 57.9346 189.399 57.8818 189.422 57.8467C189.458 57.835 189.522 57.8115 189.616 57.7764C189.709 57.7412 189.809 57.7002 189.915 57.6533C190.02 57.6064 190.12 57.5654 190.213 57.5303C190.307 57.4951 190.372 57.4658 190.407 57.4424C190.442 57.4307 190.536 57.3955 190.688 57.3369C190.852 57.2783 191.022 57.2197 191.198 57.1611C191.385 57.0908 191.555 57.0264 191.708 56.9678C191.86 56.9092 191.954 56.8682 191.989 56.8447C192.129 56.751 192.293 56.5225 192.481 56.1592C192.68 55.7842 192.903 55.3389 193.149 54.8232C193.395 54.3076 193.665 53.7568 193.958 53.1709C194.25 52.5732 194.567 52.0049 194.907 51.4658C195.247 50.915 195.604 50.4287 195.979 50.0068C196.354 49.5732 196.741 49.2686 197.139 49.0928C197.549 48.9053 197.971 48.876 198.405 49.0049C198.838 49.1338 199.284 49.4795 199.741 50.042C199.823 50.1592 199.881 50.2881 199.917 50.4287C199.952 50.5576 199.958 50.6924 199.934 50.833C199.829 50.8916 199.723 50.9033 199.618 50.8682C199.512 50.833 199.413 50.7744 199.319 50.6924C199.237 50.6104 199.161 50.5283 199.09 50.4463C199.02 50.3525 198.973 50.2822 198.95 50.2354C198.165 50.1064 197.538 50.1416 197.069 50.3408C196.612 50.5283 196.231 50.8213 195.926 51.2197C195.633 51.6064 195.375 52.0693 195.153 52.6084C194.93 53.1475 194.672 53.7041 194.379 54.2783C194.297 54.4189 194.198 54.6006 194.081 54.8232C193.975 55.0459 193.87 55.2627 193.764 55.4736C193.659 55.6846 193.565 55.8662 193.483 56.0186C193.413 56.1709 193.377 56.2471 193.377 56.2471V56.458C193.377 56.5049 193.524 56.54 193.817 56.5635C194.11 56.5869 194.438 56.6221 194.801 56.6689C195.176 56.7158 195.534 56.7861 195.874 56.8799C196.225 56.9619 196.454 57.085 196.559 57.249L196.366 57.4424C195.698 57.4072 195.135 57.3955 194.678 57.4072C194.221 57.4189 193.823 57.4951 193.483 57.6357C193.143 57.7764 192.844 58.0049 192.586 58.3213C192.329 58.626 192.065 59.0596 191.795 59.6221C191.702 59.8213 191.579 60.0791 191.426 60.3955C191.274 60.7002 191.122 61.0049 190.969 61.3096C190.817 61.6025 190.688 61.8604 190.583 62.083C190.477 62.2939 190.418 62.4053 190.407 62.417L190.196 62.6104C190.161 62.5869 190.09 62.5283 189.985 62.4346C189.891 62.3291 189.833 62.2529 189.809 62.2061ZM198.756 62.417C198.264 62.2178 197.954 61.9189 197.825 61.5205C197.708 61.1221 197.713 60.6826 197.842 60.2021C197.971 59.71 198.194 59.2061 198.51 58.6904C198.827 58.1631 199.178 57.6826 199.565 57.249C199.952 56.8154 200.338 56.4521 200.725 56.1592C201.124 55.8545 201.463 55.6846 201.745 55.6494C202.471 55.5557 203.04 55.6084 203.45 55.8076C203.872 55.9951 204.159 56.2705 204.311 56.6338C204.463 56.9971 204.504 57.4248 204.434 57.917C204.364 58.3975 204.206 58.8838 203.959 59.376C203.725 59.8682 203.415 60.3428 203.028 60.7998C202.653 61.2568 202.231 61.6436 201.762 61.96C201.305 62.2646 200.819 62.4697 200.303 62.5752C199.788 62.6689 199.272 62.6162 198.756 62.417ZM198.563 61.415C198.657 61.79 198.856 62.001 199.161 62.0479C199.465 62.083 199.817 62.0068 200.215 61.8193C200.625 61.6201 201.053 61.3389 201.499 60.9756C201.944 60.6006 202.348 60.1963 202.711 59.7627C203.086 59.3291 203.391 58.8955 203.625 58.4619C203.872 58.0166 203.989 57.6299 203.977 57.3018C203.977 56.9736 203.819 56.7275 203.502 56.5635C203.198 56.3877 202.682 56.3525 201.956 56.458C201.792 56.6104 201.581 56.7979 201.323 57.0205C201.065 57.2314 200.795 57.4658 200.514 57.7236C200.245 57.9814 199.975 58.2627 199.706 58.5674C199.436 58.8604 199.202 59.165 199.002 59.4814C198.803 59.7979 198.657 60.1201 198.563 60.4482C198.481 60.7764 198.481 61.0986 198.563 61.415ZM205.436 62.417C205.413 62.4053 205.413 62.2705 205.436 62.0127C205.471 61.7432 205.518 61.4092 205.577 61.0107C205.635 60.6123 205.711 60.1729 205.805 59.6924C205.899 59.2119 205.999 58.7549 206.104 58.3213C206.209 57.876 206.321 57.4893 206.438 57.1611C206.567 56.8213 206.69 56.5869 206.807 56.458C206.889 56.376 206.971 56.376 207.053 56.458C207.135 56.5283 207.217 56.6221 207.299 56.7393C207.381 56.8447 207.463 56.9443 207.545 57.0381C207.627 57.1201 207.715 57.126 207.809 57.0557C208.137 56.5986 208.495 56.165 208.881 55.7549C209.28 55.333 209.719 54.9697 210.2 54.665C210.247 54.6299 210.375 54.5771 210.586 54.5068C210.797 54.4248 211.038 54.3486 211.307 54.2783C211.577 54.1963 211.852 54.1318 212.133 54.085C212.426 54.0264 212.672 54.0029 212.872 54.0146C213.083 54.0146 213.223 54.0674 213.293 54.1729C213.375 54.2666 213.34 54.4307 213.188 54.665C212.485 54.6768 211.829 54.8818 211.219 55.2803C210.61 55.6787 210.047 56.1709 209.532 56.7568C209.016 57.3428 208.547 57.9814 208.125 58.6729C207.704 59.3525 207.334 59.9854 207.018 60.5713C206.713 61.1572 206.456 61.6436 206.245 62.0303C206.045 62.417 205.899 62.6104 205.805 62.6104C205.793 62.6104 205.741 62.5869 205.647 62.54C205.553 62.4814 205.483 62.4404 205.436 62.417ZM223.629 62.2061C223.606 62.1826 223.594 62.1182 223.594 62.0127C223.594 61.9072 223.606 61.8428 223.629 61.8193L225.106 58.4268H223.436C223.401 58.4268 223.366 58.4033 223.331 58.3564C223.307 58.3096 223.284 58.2568 223.26 58.1982C223.249 58.1279 223.237 58.0635 223.225 58.0049C223.213 57.9346 223.219 57.8818 223.243 57.8467C223.278 57.835 223.342 57.8115 223.436 57.7764C223.53 57.7412 223.629 57.7002 223.735 57.6533C223.84 57.6064 223.94 57.5654 224.034 57.5303C224.127 57.4951 224.192 57.4658 224.227 57.4424C224.262 57.4307 224.356 57.3955 224.508 57.3369C224.672 57.2783 224.842 57.2197 225.018 57.1611C225.206 57.0908 225.375 57.0264 225.528 56.9678C225.68 56.9092 225.774 56.8682 225.809 56.8447C225.95 56.751 226.114 56.5225 226.301 56.1592C226.5 55.7842 226.723 55.3389 226.969 54.8232C227.215 54.3076 227.485 53.7568 227.778 53.1709C228.071 52.5732 228.387 52.0049 228.727 51.4658C229.067 50.915 229.424 50.4287 229.799 50.0068C230.174 49.5732 230.561 49.2686 230.959 49.0928C231.37 48.9053 231.792 48.876 232.225 49.0049C232.659 49.1338 233.104 49.4795 233.561 50.042C233.643 50.1592 233.702 50.2881 233.737 50.4287C233.772 50.5576 233.778 50.6924 233.754 50.833C233.649 50.8916 233.543 50.9033 233.438 50.8682C233.333 50.833 233.233 50.7744 233.139 50.6924C233.057 50.6104 232.981 50.5283 232.911 50.4463C232.84 50.3525 232.793 50.2822 232.77 50.2354C231.985 50.1064 231.358 50.1416 230.889 50.3408C230.432 50.5283 230.051 50.8213 229.747 51.2197C229.454 51.6064 229.196 52.0693 228.973 52.6084C228.75 53.1475 228.493 53.7041 228.2 54.2783C228.118 54.4189 228.018 54.6006 227.901 54.8232C227.795 55.0459 227.69 55.2627 227.584 55.4736C227.479 55.6846 227.385 55.8662 227.303 56.0186C227.233 56.1709 227.198 56.2471 227.198 56.2471V56.458C227.198 56.5049 227.344 56.54 227.637 56.5635C227.93 56.5869 228.258 56.6221 228.622 56.6689C228.997 56.7158 229.354 56.7861 229.694 56.8799C230.045 56.9619 230.274 57.085 230.379 57.249L230.186 57.4424C229.518 57.4072 228.956 57.3955 228.499 57.4072C228.042 57.4189 227.643 57.4951 227.303 57.6357C226.963 57.7764 226.665 58.0049 226.407 58.3213C226.149 58.626 225.885 59.0596 225.616 59.6221C225.522 59.8213 225.399 60.0791 225.247 60.3955C225.094 60.7002 224.942 61.0049 224.79 61.3096C224.637 61.6025 224.508 61.8604 224.403 62.083C224.297 62.2939 224.239 62.4053 224.227 62.417L224.016 62.6104C223.981 62.5869 223.911 62.5283 223.805 62.4346C223.711 62.3291 223.653 62.2529 223.629 62.2061ZM231.698 62.417C231.674 62.4053 231.674 62.2705 231.698 62.0127C231.733 61.7432 231.78 61.4092 231.838 61.0107C231.897 60.6123 231.973 60.1729 232.067 59.6924C232.161 59.2119 232.26 58.7549 232.366 58.3213C232.471 57.876 232.583 57.4893 232.7 57.1611C232.829 56.8213 232.952 56.5869 233.069 56.458C233.151 56.376 233.233 56.376 233.315 56.458C233.397 56.5283 233.479 56.6221 233.561 56.7393C233.643 56.8447 233.725 56.9443 233.807 57.0381C233.889 57.1201 233.977 57.126 234.071 57.0557C234.399 56.5986 234.756 56.165 235.143 55.7549C235.542 55.333 235.981 54.9697 236.461 54.665C236.508 54.6299 236.637 54.5771 236.848 54.5068C237.059 54.4248 237.299 54.3486 237.569 54.2783C237.838 54.1963 238.114 54.1318 238.395 54.085C238.688 54.0264 238.934 54.0029 239.133 54.0146C239.344 54.0146 239.485 54.0674 239.555 54.1729C239.637 54.2666 239.602 54.4307 239.45 54.665C238.747 54.6768 238.09 54.8818 237.481 55.2803C236.872 55.6787 236.309 56.1709 235.793 56.7568C235.278 57.3428 234.809 57.9814 234.387 58.6729C233.965 59.3525 233.596 59.9854 233.28 60.5713C232.975 61.1572 232.717 61.6436 232.506 62.0303C232.307 62.417 232.161 62.6104 232.067 62.6104C232.055 62.6104 232.002 62.5869 231.909 62.54C231.815 62.4814 231.745 62.4404 231.698 62.417ZM241.225 62.417C240.874 62.2998 240.604 62.124 240.417 61.8896C240.241 61.6436 240.124 61.374 240.065 61.0811C240.006 60.7881 239.995 60.4834 240.03 60.167C240.077 59.8389 240.147 59.5283 240.241 59.2354C240.592 58.8604 240.985 58.4326 241.418 57.9521C241.864 57.46 242.333 56.9795 242.825 56.5107C243.317 56.042 243.827 55.6084 244.354 55.21C244.893 54.7998 245.438 54.4893 245.989 54.2783C246.176 54.1963 246.323 54.2021 246.428 54.2959C246.545 54.3779 246.627 54.5127 246.674 54.7002C246.721 54.8877 246.739 55.1045 246.727 55.3506C246.727 55.5967 246.709 55.8369 246.674 56.0713C246.639 56.3057 246.592 56.5166 246.534 56.7041C246.475 56.8916 246.417 57.0205 246.358 57.0908C246.217 57.2549 245.942 57.4482 245.532 57.6709C245.133 57.8936 244.688 58.1396 244.196 58.4092C243.704 58.667 243.211 58.9365 242.719 59.2178C242.227 59.499 241.823 59.7803 241.506 60.0615C241.19 60.3311 241.002 60.6006 240.944 60.8701C240.885 61.1396 241.049 61.3857 241.436 61.6084C241.834 61.6553 242.315 61.6377 242.877 61.5557C243.452 61.4619 244.032 61.3447 244.618 61.2041C245.215 61.0518 245.79 60.8994 246.34 60.7471C246.891 60.583 247.342 60.4541 247.694 60.3604L247.905 60.5537C247.647 60.8936 247.225 61.2041 246.639 61.4854C246.053 61.7666 245.42 62.001 244.741 62.1885C244.061 62.3643 243.399 62.4814 242.754 62.54C242.11 62.5869 241.6 62.5459 241.225 62.417ZM245.426 55.7021C245.415 55.6904 245.327 55.7432 245.163 55.8604C244.999 55.9658 244.793 56.1123 244.547 56.2998C244.313 56.4756 244.055 56.6748 243.774 56.8975C243.504 57.1084 243.252 57.3076 243.018 57.4951C242.795 57.6826 242.608 57.8467 242.456 57.9873C242.303 58.1162 242.239 58.1807 242.262 58.1807C242.45 58.2158 242.69 58.1924 242.983 58.1104C243.288 58.0166 243.598 57.8877 243.915 57.7236C244.243 57.5596 244.553 57.3779 244.846 57.1787C245.139 56.9678 245.368 56.7627 245.532 56.5635C245.708 56.3643 245.795 56.1885 245.795 56.0361C245.807 55.8838 245.684 55.7725 245.426 55.7021ZM248.872 62.417C248.52 62.2998 248.25 62.124 248.063 61.8896C247.887 61.6436 247.77 61.374 247.711 61.0811C247.653 60.7881 247.641 60.4834 247.676 60.167C247.723 59.8389 247.793 59.5283 247.887 59.2354C248.239 58.8604 248.631 58.4326 249.065 57.9521C249.51 57.46 249.979 56.9795 250.471 56.5107C250.963 56.042 251.473 55.6084 252 55.21C252.54 54.7998 253.084 54.4893 253.635 54.2783C253.823 54.1963 253.969 54.2021 254.075 54.2959C254.192 54.3779 254.274 54.5127 254.321 54.7002C254.368 54.8877 254.385 55.1045 254.374 55.3506C254.374 55.5967 254.356 55.8369 254.321 56.0713C254.286 56.3057 254.239 56.5166 254.18 56.7041C254.122 56.8916 254.063 57.0205 254.004 57.0908C253.864 57.2549 253.588 57.4482 253.178 57.6709C252.78 57.8936 252.334 58.1396 251.842 58.4092C251.35 58.667 250.858 58.9365 250.366 59.2178C249.874 59.499 249.469 59.7803 249.153 60.0615C248.836 60.3311 248.649 60.6006 248.59 60.8701C248.532 61.1396 248.696 61.3857 249.083 61.6084C249.481 61.6553 249.961 61.6377 250.524 61.5557C251.098 61.4619 251.678 61.3447 252.264 61.2041C252.862 61.0518 253.436 60.8994 253.987 60.7471C254.538 60.583 254.989 60.4541 255.34 60.3604L255.551 60.5537C255.293 60.8936 254.872 61.2041 254.286 61.4854C253.7 61.7666 253.067 62.001 252.387 62.1885C251.708 62.3643 251.045 62.4814 250.401 62.54C249.756 62.5869 249.247 62.5459 248.872 62.417ZM253.073 55.7021C253.061 55.6904 252.973 55.7432 252.809 55.8604C252.645 55.9658 252.44 56.1123 252.194 56.2998C251.959 56.4756 251.702 56.6748 251.42 56.8975C251.151 57.1084 250.899 57.3076 250.665 57.4951C250.442 57.6826 250.254 57.8467 250.102 57.9873C249.95 58.1162 249.885 58.1807 249.909 58.1807C250.096 58.2158 250.336 58.1924 250.629 58.1104C250.934 58.0166 251.245 57.8877 251.561 57.7236C251.889 57.5596 252.2 57.3779 252.493 57.1787C252.786 56.9678 253.014 56.7627 253.178 56.5635C253.354 56.3643 253.442 56.1885 253.442 56.0361C253.454 55.8838 253.331 55.7725 253.073 55.7021ZM255.217 62.2061C255.124 62.0654 255.112 61.9131 255.182 61.749C255.264 61.585 255.375 61.4502 255.516 61.3447C255.657 61.2275 255.797 61.1689 255.938 61.1689C256.079 61.1572 256.172 61.2393 256.219 61.415C256.266 61.5908 256.266 61.7725 256.219 61.96C256.184 62.1475 256.114 62.2998 256.008 62.417C255.915 62.5342 255.797 62.5869 255.657 62.5752C255.516 62.5635 255.37 62.4404 255.217 62.2061ZM256.219 57.249C256.196 57.1787 256.208 57.0029 256.254 56.7217C256.301 56.4404 256.372 56.1006 256.465 55.7021C256.559 55.292 256.676 54.8408 256.817 54.3486C256.958 53.8564 257.11 53.3643 257.274 52.8721C257.438 52.3799 257.608 51.9053 257.784 51.4482C257.959 50.9912 258.129 50.5928 258.293 50.2529C258.469 49.9131 258.633 49.6553 258.786 49.4795C258.95 49.3037 259.096 49.2451 259.225 49.3037C259.237 49.3623 259.213 49.5615 259.155 49.9014C259.108 50.2295 259.032 50.6396 258.926 51.1318C258.821 51.6123 258.692 52.1455 258.54 52.7314C258.399 53.3174 258.247 53.8916 258.083 54.4541C257.93 55.0166 257.766 55.5439 257.59 56.0361C257.415 56.5166 257.245 56.9033 257.081 57.1963C256.917 57.4893 256.758 57.6533 256.606 57.6885C256.454 57.7236 256.325 57.5771 256.219 57.249Z" fill="#969696"/>
</svg>
