<svg width="157" height="108" viewBox="0 0 157 108" fill="none" xmlns="http://www.w3.org/2000/svg">
<path d="M5.54399 66.7132C5.51789 66.7109 5.49621 66.688 5.47895 66.6444C5.46169 66.6008 5.45964 66.5638 5.4728 66.5334C5.50225 66.194 5.51353 65.761 5.50664 65.2343C5.49542 64.6968 5.48001 64.1168 5.46038 63.4944C5.43644 62.861 5.40603 62.2114 5.36915 61.5453C5.33884 60.8641 5.31388 60.2123 5.29426 59.5898C5.28121 58.9522 5.28214 58.3657 5.29703 57.8304C5.31193 57.2952 5.3526 56.8568 5.41906 56.5154C5.4812 56.1631 5.57446 55.9371 5.69884 55.8374C5.81891 55.7268 5.9852 55.7807 6.19771 55.9991C6.39501 56.2108 6.52581 56.4615 6.59009 56.7512C6.65007 57.0299 6.67078 57.3368 6.65222 57.6719C6.64024 57.9917 6.60534 58.3333 6.54751 58.6965C6.49626 59.0445 6.45591 59.3882 6.42646 59.7275C6.397 60.0669 6.39479 60.3955 6.41981 60.7133C6.44483 61.0311 6.53307 61.3176 6.68452 61.5727C6.95939 61.3756 7.17353 61.1207 7.32693 60.8078C7.49123 60.4907 7.64032 60.1669 7.7742 59.8366C7.91466 59.4911 8.06919 59.1652 8.23781 58.859C8.40642 58.5527 8.64121 58.3022 8.94219 58.1073C9.41544 57.8065 9.8566 57.6633 10.2657 57.6778C10.6704 57.6813 11.0149 57.8033 11.2992 58.0436C11.5943 58.2797 11.8206 58.6123 11.9779 59.0415C12.1353 59.4708 12.2011 59.9552 12.1753 60.4948C12.1495 61.0344 12.0159 61.6041 11.7745 62.2038C11.5331 62.8036 11.1633 63.3975 10.6651 63.9856C10.1669 64.5736 9.52413 65.1306 8.73674 65.6567C7.94935 66.1828 6.99465 66.6365 5.87263 67.0179C5.84221 67.0047 5.78034 66.9599 5.68703 66.8834C5.60462 66.8026 5.55694 66.7458 5.54399 66.7132ZM6.63609 65.2219C6.64245 65.2698 6.67368 65.3646 6.72978 65.5062C6.78155 65.637 6.82152 65.722 6.84968 65.7612C7.61851 65.5702 8.32693 65.2266 8.97494 64.7305C9.62954 64.2192 10.1571 63.6258 10.5577 62.9504C10.9539 62.2641 11.1914 61.5272 11.2703 60.7398C11.3492 59.9523 11.1951 59.1814 10.8082 58.4271C10.7887 58.4096 10.7431 58.3899 10.6713 58.3679C10.6105 58.3416 10.567 58.3273 10.5409 58.325C10.1598 58.4129 9.79682 58.5945 9.45205 58.8697C9.10728 59.1448 8.78623 59.48 8.48892 59.875C8.1873 60.2591 7.91599 60.688 7.67499 61.1616C7.44488 61.6308 7.24849 62.1056 7.08581 62.586C6.92312 63.0663 6.80073 63.5371 6.71863 63.9981C6.64743 64.4549 6.61991 64.8628 6.63609 65.2219ZM21.3823 60.8757C21.0407 60.8723 20.7439 60.8071 20.4919 60.68C20.2399 60.5529 20.0152 60.3835 19.8179 60.1718C19.6206 59.96 19.4408 59.7287 19.2785 59.4779C19.1118 59.2162 18.9506 58.9523 18.7948 58.6863C18.6709 58.6598 18.5224 58.7942 18.3495 59.0895C18.1722 59.374 17.9763 59.7226 17.7616 60.1353C17.5469 60.548 17.3093 60.9825 17.0488 61.4385C16.7949 61.8794 16.5216 62.2397 16.229 62.5194C15.9365 62.7992 15.6259 62.9537 15.2972 62.983C14.9794 63.008 14.6438 62.8132 14.2905 62.3985C14.1713 62.2567 14.0949 62.016 14.0612 61.6764C14.0342 61.3216 14.0399 60.9223 14.0784 60.4785C14.1169 60.0347 14.1784 59.5692 14.2627 59.082C14.3537 58.5797 14.4467 58.1143 14.5417 57.6859C14.6434 57.2423 14.7448 56.8619 14.846 56.5445C14.9537 56.2119 15.047 55.9859 15.1257 55.8665C15.4238 55.8871 15.6061 56.0292 15.6727 56.2927C15.7458 56.541 15.7578 56.8577 15.7086 57.2427C15.6703 57.6234 15.5861 58.0475 15.4561 58.5149C15.337 58.978 15.2288 59.4368 15.1315 59.8913C15.0408 60.3305 14.9893 60.7416 14.9771 61.1246C14.9649 61.5076 15.0411 61.8114 15.2057 62.0361C15.4843 62.0392 15.759 61.8737 16.03 61.5395C16.3076 61.1901 16.5768 60.7558 16.8375 60.2366C17.1091 59.7131 17.3668 59.1384 17.6105 58.5125C17.8608 57.8714 18.087 57.265 18.2892 56.6934C18.487 56.1109 18.6629 55.6001 18.8167 55.161C18.9705 54.722 19.0913 54.4221 19.1789 54.2614C19.4508 54.2797 19.6364 54.4142 19.7356 54.6648C19.8306 54.9045 19.8752 55.2082 19.8696 55.5759C19.8749 55.9394 19.8583 56.343 19.8198 56.7868C19.7878 57.2154 19.7777 57.6353 19.7893 58.0467C19.801 58.458 19.8606 58.8314 19.9683 59.1669C20.0759 59.5024 20.2753 59.7512 20.5663 59.9132L21.3809 60.3469L23.0315 59.6932C23.1078 59.663 23.1371 59.6892 23.1194 59.7718C23.1017 59.8544 23.0644 59.9511 23.0074 60.0619C22.9614 60.1684 22.9098 60.277 22.8529 60.3878C22.7916 60.4877 22.7555 60.5398 22.7446 60.5441C22.4829 60.7108 22.2563 60.8068 22.0647 60.8323C21.8774 60.8687 21.65 60.8831 21.3823 60.8757ZM23.9482 59.8595C23.8254 58.2444 23.7776 56.9462 23.8049 55.9648C23.8388 54.9683 23.9087 54.2537 24.0146 53.821C24.1315 53.384 24.2572 53.2081 24.3918 53.2935C24.5265 53.3788 24.6364 53.6882 24.7216 54.2216C24.8177 54.7508 24.8608 55.4962 24.851 56.4581C24.8478 57.4047 24.7558 58.5251 24.5751 59.8192C24.5008 59.8864 24.3995 59.9329 24.271 59.9585C24.1425 59.9842 24.0349 59.9512 23.9482 59.8595ZM23.6951 50.8658C23.6517 50.8199 23.602 50.7262 23.5459 50.5846C23.4898 50.4429 23.4662 50.3514 23.475 50.3101C23.6911 50.1237 23.8775 50.0373 24.0341 50.0509C24.1907 50.0645 24.3113 50.1302 24.3958 50.248C24.4759 50.3549 24.5222 50.4878 24.5347 50.6467C24.5582 50.8013 24.5414 50.934 24.4844 51.0448C24.4231 51.1447 24.324 51.1965 24.1868 51.2004C24.0563 51.1891 23.8924 51.0775 23.6951 50.8658ZM28.8512 57.9178C28.4446 57.8142 28.1232 57.6074 27.8871 57.2976C27.6619 56.9834 27.5021 56.6119 27.4078 56.1828C27.3092 55.7429 27.2553 55.2727 27.2462 54.7722C27.2479 54.2673 27.267 53.7745 27.3035 53.2937C27.3509 52.8086 27.4003 52.3605 27.4517 51.9493C27.5141 51.5339 27.5566 51.1957 27.5793 50.9346C27.586 50.8563 27.5998 50.6681 27.6204 50.37C27.6519 50.0677 27.6802 49.7414 27.7053 49.3911C27.7305 49.0408 27.7533 48.7166 27.7739 48.4186C27.8011 48.1053 27.8181 47.9095 27.8249 47.8312C27.836 47.7638 27.8386 47.643 27.8327 47.4689C27.8334 47.2796 27.8351 47.0772 27.838 46.8618C27.841 46.6464 27.8536 46.4397 27.8761 46.2417C27.9051 46.0286 27.9535 45.8644 28.0214 45.7493C28.1001 45.6299 28.1993 45.578 28.319 45.5937C28.4495 45.605 28.6177 45.7274 28.8237 45.961C28.8232 46.0872 28.8006 46.3483 28.7557 46.7442C28.7217 47.1357 28.6809 47.6057 28.6333 48.1539C28.5858 48.7021 28.5304 49.3101 28.4671 49.978C28.4148 50.6415 28.3701 51.3084 28.333 51.9785C28.2958 52.6486 28.2708 53.3014 28.2577 53.9367C28.2403 54.5612 28.2438 55.127 28.2682 55.6342C28.2991 56.1261 28.3565 56.5256 28.4403 56.8327C28.5307 57.1246 28.6542 57.2774 28.8109 57.291C28.9936 57.3068 29.2027 57.2618 29.4381 57.156C29.68 57.035 29.9231 56.9009 30.1674 56.7538C30.4116 56.6066 30.6504 56.4616 30.8837 56.3188C31.1127 56.1651 31.322 56.057 31.5116 55.9946C31.594 56.0754 31.6001 56.1864 31.53 56.3276C31.4556 56.4579 31.3354 56.6 31.1695 56.7539C30.9992 56.897 30.7942 57.0475 30.5543 57.2056C30.3209 57.3484 30.0887 57.4781 29.8576 57.5949C29.6375 57.7073 29.4326 57.7947 29.2431 57.8572C29.0644 57.9153 28.9338 57.9355 28.8512 57.9178ZM34.7674 55.5749C34.7479 55.5574 34.7187 55.4996 34.6799 55.4016C34.641 55.3035 34.6206 55.236 34.6185 55.199C34.6038 55.0662 34.5817 54.8354 34.5524 54.5067C34.5187 54.1671 34.4862 53.8145 34.4548 53.4488C34.4191 53.0722 34.3866 52.7196 34.3573 52.3909C34.3279 52.0622 34.3059 51.8314 34.2911 51.6986C34.2743 51.5288 34.2542 51.3351 34.2311 51.1174C34.2035 50.8888 34.1368 50.6884 34.0307 50.5161C33.8587 50.559 33.6657 50.6606 33.4519 50.8209C33.2338 50.9703 33.0135 51.1143 32.7911 51.2528C32.5752 51.3761 32.3573 51.4624 32.1374 51.5117C31.924 51.5458 31.7306 51.4711 31.5571 51.2877C31.58 50.9636 31.707 50.7116 31.9383 50.5318C32.1653 50.341 32.4249 50.1689 32.717 50.0154C33.0091 49.8619 33.2784 49.6986 33.5249 49.5253C33.7823 49.3477 33.9474 49.1122 34.0202 48.8187C34.0061 48.4966 33.9846 48.108 33.9557 47.6531C33.9334 47.183 33.91 46.6944 33.8857 46.1873C33.8613 45.6802 33.85 45.1742 33.8517 44.6693C33.8643 44.1601 33.9018 43.6978 33.9642 43.2824C34.0538 43.1587 34.1497 43.1144 34.2519 43.1496C34.354 43.1847 34.4473 43.2612 34.5318 43.379C34.6229 43.4816 34.6997 43.5961 34.7624 43.7226C34.8251 43.849 34.8596 43.9361 34.8659 43.984C34.9128 44.2932 34.9192 44.6436 34.8852 45.0352C34.8578 45.4116 34.838 45.7912 34.8258 46.1742C34.8245 46.5528 34.845 46.9228 34.8873 47.2842C34.9404 47.6413 35.0634 47.9518 35.2562 48.2158L38.77 46.8242C38.7809 46.8199 38.8232 46.8473 38.897 46.9063C38.9665 46.9544 39.0262 46.9938 39.0761 47.0244C39.191 47.1554 39.1721 47.2826 39.0193 47.4061C38.8666 47.5296 38.6474 47.6605 38.3619 47.7988C38.072 47.9262 37.7386 48.0709 37.3615 48.2328C36.9911 48.3795 36.6423 48.5491 36.3152 48.7417C35.9947 48.919 35.722 49.1216 35.4971 49.3493C35.2679 49.5661 35.1495 49.8083 35.1421 50.076C35.1479 50.9182 35.1777 51.7572 35.2314 52.593C35.2808 53.4179 35.3454 54.2494 35.4252 55.0875C35.4163 55.1288 35.3943 55.2005 35.3592 55.3027C35.3197 55.394 35.2726 55.4819 35.2179 55.5666C35.1589 55.6404 35.0891 55.6869 35.0085 55.7063C34.9388 55.7213 34.8584 55.6775 34.7674 55.5749ZM49.6764 49.4437C49.646 49.4305 49.6114 49.3749 49.5726 49.2768C49.5337 49.1788 49.5209 49.1145 49.5341 49.0841L49.6577 45.3862L48.1051 46.0011C48.0724 46.014 48.0311 46.0052 47.9812 45.9745C47.9421 45.9396 47.9009 45.8992 47.8576 45.8533C47.8208 45.7923 47.7861 45.7367 47.7537 45.6865C47.7169 45.6254 47.7029 45.5743 47.7118 45.5329C47.7401 45.5091 47.7914 45.4636 47.8657 45.3964C47.9399 45.3292 48.0174 45.2544 48.0982 45.1719C48.179 45.0895 48.2565 45.0147 48.3307 44.9475C48.4049 44.8803 48.4541 44.8293 48.4781 44.7946C48.5065 44.7708 48.5807 44.7036 48.7008 44.593C48.8317 44.4781 48.9682 44.3611 49.11 44.2419C49.2584 44.1074 49.3927 43.985 49.5128 43.8744C49.6328 43.7638 49.7049 43.6912 49.729 43.6564C49.8252 43.5175 49.8936 43.2446 49.9341 42.8378C49.9813 42.4158 50.0243 41.9198 50.0633 41.3498C50.1022 40.7798 50.15 40.1684 50.2067 39.5158C50.259 38.8523 50.3439 38.2073 50.4614 37.581C50.5746 36.9438 50.7278 36.36 50.9211 35.8297C51.1101 35.2885 51.3575 34.8628 51.6632 34.5527C51.9755 34.2273 52.357 34.0448 52.8076 34.005C53.2582 33.9652 53.7995 34.1226 54.4315 34.4773C54.5509 34.5561 54.6529 34.6544 54.7374 34.7722C54.8175 34.8791 54.8726 35.0022 54.9026 35.1416C54.8261 35.2349 54.7323 35.2846 54.6213 35.2908C54.5103 35.2969 54.3961 35.2791 54.2788 35.2374C54.1723 35.1913 54.0713 35.1431 53.9757 35.0927C53.8758 35.0314 53.8063 34.9833 53.7673 34.9484C52.9898 35.1176 52.4199 35.3811 52.0574 35.739C51.7015 36.0816 51.4553 36.4942 51.3187 36.9768C51.1887 37.4442 51.1194 37.9695 51.1109 38.5527C51.1024 39.1359 51.0676 39.7483 51.0067 40.3901C50.9822 40.551 50.9565 40.7566 50.9295 41.0068C50.9134 41.2526 50.8952 41.493 50.8748 41.728C50.8544 41.9629 50.8341 42.1663 50.8139 42.3381C50.8046 42.5057 50.8 42.5894 50.8 42.5894L50.8777 42.7856C50.8949 42.8291 51.0441 42.8079 51.3251 42.7218C51.6061 42.6357 51.9241 42.5476 52.2791 42.4574C52.6451 42.3629 53.0033 42.2967 53.3537 42.2587C53.7108 42.2056 53.9686 42.2358 54.127 42.3495L54.0185 42.6005C53.3845 42.8138 52.8572 43.01 52.4366 43.1891C52.016 43.3683 51.6736 43.5858 51.4094 43.8417C51.1452 44.0976 50.9515 44.4201 50.8283 44.8092C50.7008 45.1874 50.6153 45.6876 50.5718 46.3098C50.558 46.5296 50.5385 46.8146 50.5134 47.1649C50.4839 47.5042 50.4545 47.8436 50.425 48.183C50.3912 48.5115 50.3663 48.7986 50.3502 49.0445C50.3298 49.2794 50.3164 49.4045 50.3098 49.4197L50.1849 49.6772C50.1435 49.6683 50.0566 49.6397 49.924 49.5914C49.798 49.5279 49.7155 49.4786 49.6764 49.4437ZM58.0728 46.3454C57.5418 46.3414 57.1431 46.1779 56.8765 45.8549C56.6209 45.5276 56.4645 45.1169 56.4074 44.6227C56.3461 44.1176 56.3675 43.5671 56.4719 42.9712C56.5719 42.3644 56.7218 41.7883 56.9217 41.2428C57.1216 40.6972 57.3474 40.2171 57.5991 39.8023C57.8574 39.3723 58.1108 39.0892 58.3593 38.953C59.0003 38.5983 59.5482 38.438 60.0029 38.4722C60.4641 38.4912 60.8325 38.6416 61.1079 38.9232C61.3833 39.2049 61.5789 39.5875 61.6947 40.071C61.8063 40.5436 61.8383 41.054 61.7907 41.6022C61.754 42.1461 61.64 42.7017 61.4487 43.269C61.2684 43.832 61.0185 44.3469 60.6992 44.8137C60.3865 45.2653 60.0098 45.635 59.5692 45.9229C59.1244 46.1999 58.6255 46.3408 58.0728 46.3454ZM57.5241 45.485C57.7493 45.7992 58.0122 45.9219 58.3128 45.8533C58.609 45.7738 58.9078 45.5736 59.2092 45.2525C59.5172 44.9163 59.8113 44.4973 60.0916 43.9956C60.3676 43.4829 60.5946 42.9582 60.7727 42.4213C60.9617 41.8801 61.0853 41.3648 61.1436 40.8753C61.2084 40.3707 61.175 39.968 61.0433 39.6672C60.9225 39.3622 60.6848 39.1916 60.3302 39.1556C59.9822 39.1043 59.4898 39.2615 58.8532 39.6271C58.7567 39.8291 58.6296 40.0811 58.4719 40.3831C58.3099 40.6741 58.1456 40.9913 57.979 41.3345C57.8233 41.6735 57.6763 42.0342 57.5379 42.4167C57.3952 42.7884 57.2895 43.1579 57.2207 43.5255C57.152 43.893 57.1345 44.2466 57.1681 44.5861C57.2127 44.9214 57.3313 45.221 57.5241 45.485ZM64.2832 43.8859C64.2571 43.8837 64.2075 43.7584 64.1343 43.51C64.0678 43.2465 63.9884 42.9187 63.8962 42.5267C63.8039 42.1347 63.713 41.698 63.6232 41.2168C63.5335 40.7356 63.4578 40.274 63.3962 39.832C63.3303 39.3791 63.2914 38.9786 63.2796 38.6304C63.2743 38.267 63.3024 38.0037 63.3639 37.8407C63.4099 37.7343 63.4862 37.7041 63.5927 37.7501C63.6948 37.7853 63.8056 37.8423 63.925 37.921C64.0401 37.9889 64.1531 38.0513 64.2639 38.1082C64.3703 38.1543 64.4542 38.1274 64.5155 38.0275C64.6523 37.4817 64.825 36.947 65.0335 36.4233C65.2486 35.8843 65.5234 35.3848 65.8579 34.9246C65.8886 34.8746 65.989 34.7781 66.1592 34.6351C66.3252 34.4812 66.5205 34.3219 66.7452 34.1573C66.9656 33.9818 67.1979 33.8204 67.4421 33.6733C67.6929 33.511 67.9131 33.3986 68.1026 33.3361C68.2987 33.2584 68.4489 33.2557 68.5531 33.3279C68.6639 33.3848 68.6916 33.5503 68.6363 33.8243C67.9869 34.0941 67.4522 34.5264 67.0324 35.1212C66.6125 35.716 66.2708 36.3807 66.0071 37.1154C65.7434 37.85 65.5428 38.6164 65.4051 39.4146C65.2631 40.2018 65.1529 40.9261 65.0745 41.5874C65.007 42.2443 64.9463 42.7914 64.8926 43.2286C64.8498 43.6615 64.7848 43.8953 64.6976 43.9298C64.6867 43.9341 64.6291 43.9317 64.5246 43.9227C64.4159 43.9027 64.3354 43.8905 64.2832 43.8859ZM81.0186 37.2583C80.8534 37.2229 80.8026 37.1107 80.8664 36.9216C80.9367 36.7173 81.0757 36.4794 81.2834 36.2081C81.4976 35.9216 81.7533 35.6124 82.0504 35.2805C82.3475 34.9485 82.6325 34.634 82.9056 34.3368C83.1895 34.0353 83.4385 33.7728 83.6525 33.5494C83.8622 33.3151 83.9923 33.1502 84.0427 33.0546C84.2814 32.6071 84.3674 32.2832 84.3006 32.0828C84.2404 31.8671 84.0885 31.7382 83.8449 31.696C83.597 31.6429 83.2804 31.6549 82.8949 31.7319C82.5161 31.7937 82.1252 31.8729 81.7223 31.9695C81.3259 32.0508 80.9405 32.1278 80.566 32.2005C80.2023 32.2689 79.9118 32.2831 79.6943 32.2432C79.4768 32.2033 79.3608 32.0854 79.3462 31.8895C79.3382 31.6784 79.4852 31.3492 79.787 30.902C79.8964 30.7326 80.0572 30.4861 80.2694 30.1626C80.4816 29.8391 80.7134 29.5015 80.9649 29.1499C81.2272 28.7939 81.4928 28.4618 81.7615 28.1537C82.0302 27.8457 82.2682 27.6191 82.4754 27.474C82.5866 27.4047 82.7108 27.3682 82.8479 27.3643C82.9959 27.3561 83.1253 27.3805 83.2361 27.4374C83.3426 27.4835 83.4098 27.5577 83.4377 27.6601C83.4766 27.7581 83.4403 27.8734 83.3288 28.0057C82.8458 28.6003 82.376 29.1645 81.9194 29.6983C81.4737 30.2277 81.0397 30.8029 80.6176 31.4238C80.6194 31.5239 80.6551 31.598 80.7245 31.6461C80.8049 31.6899 80.8843 31.7152 80.9626 31.722C82.165 31.3845 83.098 31.2104 83.7618 31.1996C84.4364 31.1845 84.9018 31.2775 85.1579 31.4786C85.4249 31.6753 85.5186 31.9596 85.439 32.3315C85.3593 32.7033 85.1795 33.1086 84.8995 33.5472C84.6303 33.9815 84.2947 34.4232 83.8928 34.8723C83.4908 35.3213 83.0901 35.7258 82.6907 36.0857C82.3021 36.4412 81.9507 36.7316 81.6366 36.9569C81.3225 37.1821 81.1165 37.2826 81.0186 37.2583ZM88.5038 34.294C88.4843 34.2765 88.4551 34.2188 88.4163 34.1207C88.3775 34.0226 88.357 33.9551 88.355 33.9181C88.3402 33.7853 88.3181 33.5546 88.2888 33.2259C88.2551 32.8863 88.2226 32.5336 88.1912 32.1679C88.1555 31.7913 88.123 31.4387 88.0937 31.11C88.0643 30.7813 88.0423 30.5506 88.0275 30.4178C88.0107 30.248 87.9907 30.0542 87.9675 29.8365C87.94 29.6079 87.8732 29.4075 87.7672 29.2352C87.5951 29.2782 87.4022 29.3798 87.1884 29.5401C86.9702 29.6895 86.7499 29.8334 86.5275 29.9719C86.3116 30.0952 86.0937 30.1815 85.8738 30.2308C85.6604 30.2649 85.467 30.1903 85.2935 30.0069C85.3164 29.6827 85.4435 29.4307 85.6748 29.2509C85.9017 29.0602 86.1613 28.8881 86.4534 28.7346C86.7455 28.5811 87.0149 28.4177 87.2614 28.2444C87.5187 28.0669 87.6839 27.8313 87.7567 27.5378C87.7425 27.2157 87.721 26.8272 87.6921 26.3723C87.6698 25.9022 87.6465 25.4135 87.6221 24.9064C87.5977 24.3993 87.5864 23.8933 87.5881 23.3884C87.6007 22.8793 87.6382 22.417 87.7006 22.0015C87.7902 21.8778 87.8861 21.8335 87.9883 21.8687C88.0905 21.9039 88.1838 21.9804 88.2682 22.0982C88.3593 22.2007 88.4361 22.3153 88.4988 22.4417C88.5615 22.5681 88.596 22.6553 88.6024 22.7032C88.6492 23.0123 88.6556 23.3627 88.6216 23.7543C88.5942 24.1307 88.5744 24.5104 88.5622 24.8933C88.5609 25.272 88.5814 25.642 88.6237 26.0034C88.6769 26.3604 88.7998 26.6709 88.9926 26.9349L92.5064 25.5434C92.5173 25.5391 92.5596 25.5664 92.6334 25.6254C92.7029 25.6735 92.7626 25.7129 92.8125 25.7435C92.9274 25.8745 92.9085 26.0017 92.7557 26.1253C92.603 26.2488 92.3838 26.3797 92.0983 26.518C91.8084 26.6454 91.475 26.79 91.098 26.9519C90.7275 27.0986 90.3787 27.2683 90.0517 27.4608C89.7312 27.6382 89.4585 27.8407 89.2335 28.0684C89.0043 28.2852 88.8859 28.5275 88.8785 28.7951C88.8843 29.6373 88.9141 30.4763 88.9678 31.3121C89.0172 32.137 89.0818 32.9685 89.1616 33.8066C89.1528 33.8479 89.1307 33.9197 89.0956 34.0218C89.0561 34.1131 89.009 34.2011 88.9543 34.2858C88.8953 34.3595 88.8255 34.4061 88.7449 34.4254C88.6752 34.4404 88.5949 34.3966 88.5038 34.294ZM101.072 29.3168C100.73 29.3135 100.433 29.2482 100.181 29.1212C99.9293 28.9941 99.7046 28.8247 99.5073 28.6129C99.31 28.4011 99.1302 28.1699 98.9679 27.919C98.8012 27.6573 98.64 27.3935 98.4842 27.1274C98.3603 27.1009 98.2118 27.2353 98.0389 27.5307C97.8617 27.8151 97.6657 28.1637 97.451 28.5765C97.2364 28.9892 96.9987 29.4236 96.7382 29.8797C96.4843 30.3206 96.211 30.6809 95.9185 30.9606C95.6259 31.2403 95.3153 31.3948 94.9866 31.4242C94.6688 31.4492 94.3332 31.2544 93.9799 30.8397C93.8607 30.6978 93.7843 30.4571 93.7507 30.1175C93.7236 29.7627 93.7293 29.3634 93.7678 28.9196C93.8064 28.4758 93.8678 28.0103 93.9522 27.5232C94.0431 27.0208 94.1361 26.5554 94.2311 26.1271C94.3328 25.6835 94.4342 25.303 94.5354 24.9856C94.6431 24.6531 94.7364 24.4271 94.8152 24.3076C95.1132 24.3283 95.2955 24.4703 95.3621 24.7339C95.4352 24.9822 95.4472 25.2989 95.398 25.6839C95.3597 26.0646 95.2755 26.4886 95.1455 26.956C95.0264 27.4191 94.9182 27.8779 94.8209 28.3324C94.7302 28.7717 94.6787 29.1828 94.6665 29.5657C94.6543 29.9487 94.7306 30.2525 94.8952 30.4772C95.1737 30.4804 95.4485 30.3148 95.7194 29.9807C95.997 29.6312 96.2662 29.1969 96.5269 28.6777C96.7986 28.1542 97.0562 27.5795 97.2999 26.9536C97.5502 26.3125 97.7764 25.7062 97.9786 25.1346C98.1764 24.552 98.3523 24.0412 98.5061 23.6022C98.66 23.1631 98.7807 22.8632 98.8683 22.7025C99.1402 22.7209 99.3258 22.8553 99.4251 23.1059C99.52 23.3456 99.5646 23.6493 99.559 24.0171C99.5643 24.3805 99.5477 24.7841 99.5092 25.2279C99.4772 25.6565 99.4671 26.0765 99.4787 26.4878C99.4904 26.8991 99.55 27.2726 99.6577 27.608C99.7653 27.9435 99.9647 28.1923 100.256 28.3543L101.07 28.788L102.721 28.1343C102.797 28.1041 102.827 28.1303 102.809 28.2129C102.791 28.2956 102.754 28.3923 102.697 28.5031C102.651 28.6095 102.599 28.7182 102.542 28.829C102.481 28.9289 102.445 28.981 102.434 28.9853C102.172 29.1519 101.946 29.248 101.754 29.2735C101.567 29.3098 101.339 29.3243 101.072 29.3168ZM110.408 25.3927C109.882 25.2733 109.444 25.0433 109.095 24.7027C108.741 24.3511 108.426 23.9529 108.149 23.508L107.969 23.5792C107.371 24.6478 106.817 25.4913 106.305 26.1098C105.805 26.7239 105.349 27.163 104.937 27.4271C104.52 27.6802 104.156 27.7802 103.845 27.7269C103.534 27.6736 103.285 27.5204 103.096 27.2673C102.914 26.999 102.795 26.6494 102.737 26.2183C102.68 25.7872 102.694 25.3281 102.778 24.8409C102.858 24.3429 103.018 23.8386 103.256 23.328C103.495 22.8174 103.815 22.3506 104.214 21.9277C104.625 21.5004 105.119 21.1408 105.697 20.849C106.281 20.542 106.961 20.3485 107.736 20.2685L107.838 20.0012L108.29 14.6984C108.602 14.6255 108.828 14.6872 108.968 14.8835C109.109 15.0799 109.199 15.3217 109.237 15.6091C109.286 15.8922 109.3 16.1827 109.28 16.4808C109.266 16.7636 109.253 16.9703 109.242 17.1009C109.235 17.1792 109.219 17.3304 109.194 17.5544C109.18 17.7742 109.16 18.0407 109.133 18.3539C109.112 18.652 109.087 18.9707 109.058 19.3101C109.028 19.6495 109 19.9758 108.973 20.2891C108.952 20.5871 108.932 20.8536 108.911 21.0886C108.887 21.3126 108.874 21.4562 108.874 21.5193C108.837 22.0001 108.915 22.4672 109.107 22.9205C109.306 23.3585 109.504 23.7781 109.7 24.1792C109.822 24.3581 109.973 24.487 110.156 24.566C110.334 24.634 110.516 24.6945 110.7 24.7474C110.892 24.785 111.078 24.8248 111.258 24.8668C111.45 24.9044 111.622 24.9747 111.777 25.0775C111.789 25.2364 111.73 25.3417 111.599 25.3935C111.473 25.4562 111.328 25.4883 111.165 25.4899C111.001 25.4915 110.845 25.4779 110.695 25.4491C110.545 25.4203 110.449 25.4015 110.408 25.3927ZM104.02 27.0714C104.137 27.2393 104.322 27.2291 104.576 27.0406C104.839 26.8479 105.12 26.554 105.417 26.1589C105.71 25.753 106.006 25.2894 106.304 24.7682C106.612 24.2426 106.872 23.7365 107.082 23.2497C107.304 22.7587 107.454 22.3272 107.534 21.9554C107.625 21.5792 107.604 21.3354 107.471 21.224C107.06 21.1725 106.648 21.2288 106.234 21.3927C105.819 21.5567 105.436 21.7969 105.082 22.1134C104.735 22.4147 104.425 22.7771 104.151 23.2005C103.884 23.6087 103.689 24.0389 103.566 24.4911C103.453 24.939 103.425 25.3915 103.48 25.8487C103.541 26.2907 103.721 26.6982 104.02 27.0714ZM113.738 24.3008C113.368 24.3213 113.052 24.2571 112.792 24.1082C112.538 23.9441 112.33 23.7367 112.167 23.4859C112.005 23.2351 111.882 22.9561 111.798 22.649C111.721 22.3266 111.672 22.012 111.651 21.7051C111.84 21.227 112.047 20.6848 112.274 20.0784C112.506 19.4569 112.765 18.8375 113.05 18.2205C113.335 17.6035 113.65 17.0126 113.993 16.448C114.343 15.8682 114.736 15.3788 115.17 14.9799C115.314 14.8346 115.453 14.7861 115.585 14.8344C115.724 14.8676 115.85 14.9627 115.963 15.1197C116.075 15.2768 116.172 15.4719 116.251 15.705C116.342 15.9338 116.414 16.1636 116.468 16.3945C116.521 16.6253 116.555 16.8387 116.57 17.0346C116.584 17.2305 116.577 17.372 116.549 17.4589C116.478 17.6632 116.294 17.9444 115.994 18.3024C115.706 18.6561 115.382 19.0489 115.024 19.4807C114.661 19.9017 114.303 20.3335 113.949 20.7762C113.595 21.2189 113.323 21.6293 113.132 22.0072C112.937 22.3743 112.862 22.694 112.907 22.9661C112.951 23.2383 113.195 23.4067 113.636 23.4713C114.024 23.3682 114.464 23.175 114.957 22.8916C115.456 22.593 115.952 22.2704 116.445 21.924C116.945 21.5623 117.423 21.2092 117.879 20.8648C118.33 20.5094 118.702 20.2234 118.995 20.0068L119.262 20.1089C119.148 20.5198 118.87 20.9639 118.428 21.4411C117.987 21.9184 117.485 22.3693 116.922 22.7939C116.355 23.2076 115.783 23.5603 115.205 23.8521C114.623 24.133 114.134 24.2826 113.738 24.3008ZM115.171 16.5108C115.156 16.5042 115.094 16.5856 114.984 16.755C114.871 16.9135 114.734 17.1252 114.574 17.3901C114.421 17.6398 114.255 17.92 114.075 18.2305C113.902 18.5259 113.741 18.8039 113.592 19.0645C113.455 19.3208 113.341 19.5424 113.251 19.7292C113.157 19.9052 113.12 19.9888 113.142 19.9802C113.329 19.9439 113.544 19.8336 113.786 19.6495C114.035 19.4501 114.276 19.2159 114.51 18.9469C114.755 18.6735 114.977 18.3903 115.176 18.0972C115.37 17.7932 115.507 17.5184 115.587 17.2728C115.677 17.0229 115.694 16.8271 115.638 16.6854C115.592 16.5395 115.437 16.4813 115.171 16.5108ZM125.832 19.5113C125.657 19.1647 125.544 18.7998 125.493 18.4166C125.448 18.0183 125.436 17.62 125.454 17.2218C125.48 16.8084 125.513 16.3983 125.553 15.9915C125.6 15.5695 125.625 15.1692 125.626 14.7906C125.623 14.401 125.586 14.0375 125.515 13.7C125.44 13.3515 125.291 13.0387 125.068 12.7616C124.757 12.7714 124.45 12.9183 124.146 13.2024C123.854 13.4821 123.569 13.8467 123.294 14.2962C123.014 14.7348 122.739 15.2344 122.469 15.7949C122.206 16.3402 121.953 16.8942 121.71 17.457C121.473 18.0046 121.246 18.5294 121.028 19.0313C120.811 19.5332 120.603 19.9623 120.404 20.3185C120.211 20.6595 120.03 20.9015 119.859 21.0446C119.685 21.1767 119.526 21.1577 119.383 20.9874C119.368 20.9808 119.374 20.8209 119.401 20.5077C119.435 20.1792 119.47 19.7745 119.506 19.2937C119.554 18.8086 119.605 18.2843 119.659 17.7209C119.724 17.1532 119.785 16.6246 119.844 16.1352C119.898 15.6348 119.95 15.2107 120.001 14.8627C120.053 14.5147 120.096 14.3211 120.131 14.2821C120.42 14.344 120.601 14.4676 120.675 14.6528C120.755 14.8228 120.801 15.0188 120.813 15.2408C120.821 15.4519 120.82 15.6728 120.811 15.9035C120.812 16.1298 120.879 16.3302 121.011 16.5048C121.138 16.3159 121.313 16.0575 121.536 15.7297C121.766 15.3866 122.015 15.0295 122.284 14.6583C122.564 14.2828 122.857 13.9084 123.163 13.5352C123.479 13.1576 123.788 12.8399 124.09 12.582C124.386 12.3131 124.669 12.1194 124.937 12.0006C125.216 11.8775 125.455 11.8772 125.655 11.9998C125.855 12.1223 126.007 12.396 126.113 12.8207C126.224 13.2302 126.269 13.8364 126.247 14.6393C126.244 14.7285 126.236 14.9461 126.222 15.292C126.214 15.6228 126.201 15.9872 126.182 16.3854C126.17 16.7684 126.156 17.1328 126.142 17.4788C126.135 17.8095 126.129 18.0195 126.127 18.1087C126.133 18.1566 126.149 18.2448 126.175 18.3733C126.207 18.4865 126.241 18.6183 126.275 18.7686C126.305 18.908 126.324 19.0517 126.332 19.1997C126.336 19.3368 126.318 19.451 126.279 19.5422C126.239 19.6335 126.161 19.6582 126.043 19.6165C125.922 19.5638 125.851 19.5288 125.832 19.5113ZM130.359 17.7185C130.339 17.701 130.31 17.6432 130.271 17.5452C130.232 17.4471 130.212 17.3796 130.21 17.3426C130.195 17.2098 130.173 16.979 130.144 16.6504C130.11 16.3108 130.078 15.9581 130.046 15.5924C130.01 15.2158 129.978 14.8632 129.949 14.5345C129.919 14.2058 129.897 13.975 129.882 13.8422C129.866 13.6725 129.846 13.4787 129.822 13.261C129.795 13.0324 129.728 12.832 129.622 12.6597C129.45 12.7026 129.257 12.8043 129.043 12.9646C128.825 13.114 128.605 13.2579 128.382 13.3964C128.167 13.5197 127.949 13.606 127.729 13.6553C127.515 13.6894 127.322 13.6148 127.148 13.4314C127.171 13.1072 127.298 12.8552 127.53 12.6754C127.757 12.4847 128.016 12.3125 128.308 12.159C128.6 12.0055 128.87 11.8422 129.116 11.6689C129.374 11.4914 129.539 11.2558 129.612 10.9623C129.597 10.6402 129.576 10.2517 129.547 9.79676C129.525 9.32664 129.501 8.83802 129.477 8.33089C129.453 7.82377 129.441 7.31778 129.443 6.81293C129.456 6.30376 129.493 5.84146 129.556 5.42603C129.645 5.3023 129.741 5.25802 129.843 5.29319C129.945 5.32835 130.039 5.40484 130.123 5.52264C130.214 5.62523 130.291 5.73974 130.354 5.86617C130.416 5.9926 130.451 6.07977 130.457 6.12766C130.504 6.43683 130.511 6.78721 130.477 7.1788C130.449 7.55518 130.429 7.93484 130.417 8.3178C130.416 8.69644 130.436 9.06645 130.479 9.42784C130.532 9.78491 130.655 10.0954 130.848 10.3594L134.361 8.96786C134.372 8.96354 134.415 8.99089 134.488 9.0499C134.558 9.09801 134.618 9.13739 134.667 9.16803C134.782 9.29899 134.763 9.42623 134.611 9.54974C134.458 9.67326 134.239 9.80416 133.953 9.94245C133.663 10.0698 133.33 10.2145 132.953 10.3764C132.582 10.5231 132.234 10.6928 131.907 10.8853C131.586 11.0626 131.313 11.2652 131.088 11.4929C130.859 11.7097 130.741 11.952 130.733 12.2196C130.739 13.0618 130.769 13.9008 130.823 14.7366C130.872 15.5615 130.937 16.393 131.017 17.2311C131.008 17.2724 130.986 17.3442 130.951 17.4463C130.911 17.5376 130.864 17.6256 130.809 17.7102C130.75 17.784 130.68 17.8306 130.6 17.8499C130.53 17.8649 130.45 17.8211 130.359 17.7185ZM136.373 15.3367C136.208 15.3013 136.157 15.1891 136.221 14.9999C136.291 14.7956 136.43 14.5578 136.638 14.2865C136.852 14 137.108 13.6908 137.405 13.3589C137.702 13.0269 137.987 12.7124 138.26 12.4152C138.544 12.1137 138.793 11.8512 139.007 11.6278C139.217 11.3935 139.347 11.2286 139.397 11.133C139.636 10.6855 139.722 10.3616 139.655 10.1611C139.595 9.9455 139.443 9.81659 139.199 9.7744C138.951 9.72133 138.635 9.73329 138.249 9.81031C137.87 9.87212 137.48 9.95129 137.077 10.0478C136.68 10.1292 136.295 10.2062 135.92 10.2789C135.557 10.3473 135.266 10.3615 135.049 10.3216C134.831 10.2817 134.715 10.1638 134.701 9.96787C134.693 9.75676 134.84 9.42758 135.141 8.98033C135.251 8.81097 135.412 8.56453 135.624 8.24101C135.836 7.9175 136.068 7.57991 136.319 7.22824C136.582 6.87225 136.847 6.54022 137.116 6.23213C137.385 5.92404 137.623 5.69745 137.83 5.55236C137.941 5.48311 138.065 5.44654 138.202 5.44266C138.35 5.43446 138.48 5.45884 138.591 5.5158C138.697 5.56187 138.764 5.63609 138.792 5.73846C138.831 5.83652 138.795 5.95173 138.683 6.08409C138.2 6.67869 137.73 7.24287 137.274 7.77663C136.828 8.30608 136.394 8.88126 135.972 9.50219C135.974 9.6023 136.009 9.67641 136.079 9.72452C136.159 9.76832 136.239 9.79362 136.317 9.80041C137.519 9.46289 138.452 9.28874 139.116 9.27796C139.791 9.26287 140.256 9.35586 140.512 9.55695C140.779 9.75371 140.873 10.038 140.793 10.4099C140.714 10.7817 140.534 11.1869 140.254 11.6256C139.985 12.0599 139.649 12.5016 139.247 12.9506C138.845 13.3997 138.445 13.8042 138.045 14.164C137.657 14.5196 137.305 14.81 136.991 15.0352C136.677 15.2605 136.471 15.361 136.373 15.3367ZM37.6348 74.4401C37.6087 74.4379 37.587 74.415 37.5697 74.3714C37.5525 74.3278 37.5504 74.2908 37.5636 74.2604C37.593 73.921 37.6043 73.488 37.5974 72.9613C37.5862 72.4238 37.5708 71.8438 37.5512 71.2214C37.5272 70.588 37.4968 69.9383 37.4599 69.2723C37.4296 68.5911 37.4047 67.9393 37.3851 67.3168C37.372 66.6792 37.3729 66.0927 37.3878 65.5574C37.4027 65.0221 37.4434 64.5838 37.5099 64.2424C37.572 63.8901 37.6653 63.6641 37.7896 63.5644C37.9097 63.4538 38.076 63.5077 38.2885 63.726C38.4858 63.9378 38.6166 64.1885 38.6809 64.4782C38.7409 64.7569 38.7616 65.0638 38.743 65.3989C38.731 65.7187 38.6961 66.0602 38.6383 66.4235C38.5871 66.7715 38.5467 67.1152 38.5173 67.4545C38.4878 67.7939 38.4856 68.1225 38.5106 68.4403C38.5356 68.7581 38.6239 69.0446 38.7753 69.2997C39.0502 69.1026 39.2643 68.8476 39.4177 68.5348C39.582 68.2177 39.7311 67.8939 39.865 67.5636C40.0055 67.2181 40.16 66.8922 40.3286 66.5859C40.4972 66.2797 40.732 66.0292 41.033 65.8343C41.5062 65.5335 41.9474 65.3903 42.3565 65.4047C42.7612 65.4083 43.1057 65.5303 43.3899 65.7706C43.6851 66.0067 43.9114 66.3393 44.0687 66.7685C44.2261 67.1978 44.2919 67.6822 44.2661 68.2218C44.2403 68.7614 44.1067 69.3311 43.8653 69.9308C43.6239 70.5306 43.2541 71.1245 42.7559 71.7125C42.2577 72.3006 41.6149 72.8576 40.8275 73.3837C40.0401 73.9098 39.0854 74.3635 37.9634 74.7448C37.933 74.7317 37.8711 74.6869 37.7778 74.6104C37.6954 74.5296 37.6477 74.4728 37.6348 74.4401ZM38.7269 72.9489C38.7332 72.9968 38.7645 73.0916 38.8206 73.2332C38.8723 73.3639 38.9123 73.449 38.9405 73.4882C39.7093 73.2972 40.4177 72.9536 41.0657 72.4575C41.7203 71.9462 42.2479 71.3528 42.6485 70.6774C43.0447 69.9911 43.2822 69.2542 43.3611 68.4667C43.44 67.6793 43.2859 66.9084 42.899 66.1541C42.8795 66.1366 42.8338 66.1169 42.7621 66.0949C42.7013 66.0686 42.6578 66.0543 42.6317 66.052C42.2506 66.1399 41.8876 66.3215 41.5428 66.5966C41.1981 66.8718 40.877 67.2069 40.5797 67.602C40.2781 67.9861 40.0068 68.415 39.7658 68.8885C39.5357 69.3578 39.3393 69.8326 39.1766 70.313C39.0139 70.7933 38.8915 71.264 38.8094 71.7251C38.7382 72.1818 38.7107 72.5898 38.7269 72.9489ZM46.2238 78.9416C46.0653 78.8279 45.9758 78.586 45.9553 78.216C45.9282 77.8612 45.9437 77.4706 46.0018 77.0443C46.0532 76.6332 46.1221 76.2341 46.2083 75.8471C46.2879 75.4752 46.3508 75.2045 46.3971 75.0349C46.4368 74.8806 46.5018 74.6469 46.5921 74.3338C46.6715 74.0251 46.7652 73.6729 46.8732 73.2772C46.9812 72.8815 47.0936 72.4651 47.2104 72.0281C47.3382 71.5868 47.4582 71.1738 47.5705 70.789C47.6785 70.3933 47.7776 70.0389 47.8679 69.7259C47.9582 69.4128 48.0232 69.1791 48.0629 69.0247C48.1112 68.8922 48.0508 68.7396 47.8817 68.5671C47.7125 68.3946 47.4814 68.2089 47.1883 68.0098C46.9018 67.7956 46.5794 67.5703 46.2212 67.3341C45.8695 67.0826 45.5342 66.8247 45.2152 66.5603C44.9028 66.2807 44.6307 65.9914 44.3989 65.6925C44.1779 65.3892 44.0528 65.0733 44.0235 64.7446C44.1088 64.6099 44.2611 64.6126 44.4804 64.7527C44.6954 64.8818 44.9461 65.085 45.2324 65.3624C45.5252 65.6245 45.8387 65.9226 46.1726 66.2567C46.5023 66.5799 46.8136 66.8726 47.1064 67.1348C47.395 67.386 47.6522 67.574 47.8781 67.6988C48.1149 67.8193 48.2825 67.7971 48.381 67.632C48.5823 67.3128 48.7566 66.9413 48.9039 66.5175C49.0468 66.0827 49.1745 65.6414 49.2871 65.1935C49.3996 64.7456 49.5001 64.3151 49.5885 63.9019C49.6836 63.4736 49.7795 63.0952 49.8764 62.767C49.9139 62.6387 49.9588 62.5453 50.0112 62.4867C50.0702 62.4129 50.1868 62.3731 50.3609 62.3671C50.498 62.3633 50.5517 62.5626 50.5221 62.965C50.4924 63.3675 50.4089 63.9047 50.2717 64.5767C50.1345 65.2487 49.9566 66.0249 49.7382 66.9055C49.5263 67.7709 49.2947 68.6819 49.0433 69.6385C48.7985 70.5799 48.5483 71.5235 48.2926 72.4693C48.0478 73.4107 47.8251 74.2804 47.6243 75.0783C47.417 75.8915 47.2481 76.5949 47.1176 77.1885C46.9806 77.7974 46.9062 78.2302 46.8945 78.4869C46.8897 78.6022 46.885 78.7175 46.8802 78.8329C46.8646 78.9525 46.8261 79.0622 46.7649 79.1621C46.7387 79.1599 46.7029 79.1489 46.6572 79.1291C46.6007 79.1137 46.5475 79.0907 46.4975 79.06C46.441 79.0446 46.3878 79.0216 46.3378 78.9909C46.2813 78.9755 46.2433 78.9591 46.2238 78.9416ZM62.9195 64.8617C62.7542 64.8263 62.7035 64.714 62.7672 64.5249C62.8376 64.3206 62.9766 64.0828 63.1842 63.8115C63.3985 63.525 63.6541 63.2158 63.9512 62.8838C64.2483 62.5519 64.5334 62.2374 64.8064 61.9402C65.0904 61.6387 65.3393 61.3762 65.5534 61.1528C65.7631 60.9185 65.8931 60.7536 65.9435 60.658C66.1822 60.2105 66.2682 59.8866 66.2014 59.6861C66.1413 59.4705 65.9894 59.3416 65.7458 59.2994C65.4979 59.2463 65.1812 59.2583 64.7958 59.3353C64.4169 59.3971 64.026 59.4763 63.6231 59.5728C63.2268 59.6542 62.8413 59.7312 62.4668 59.8039C62.1032 59.8723 61.8126 59.8865 61.5951 59.8466C61.3776 59.8067 61.2616 59.6888 61.2471 59.4929C61.2391 59.2817 61.386 58.9526 61.6879 58.5053C61.7972 58.336 61.958 58.0895 62.1702 57.766C62.3824 57.4425 62.6143 57.1049 62.8657 56.7532C63.1281 56.3972 63.3936 56.0652 63.6623 55.7571C63.9311 55.449 64.169 55.2224 64.3763 55.0774C64.4875 55.0081 64.6116 54.9715 64.7488 54.9676C64.8968 54.9594 65.0262 54.9838 65.1369 55.0408C65.2434 55.0869 65.3106 55.1611 65.3386 55.2634C65.3774 55.3615 65.3411 55.4767 65.2297 55.6091C64.7467 56.2037 64.2769 56.7679 63.8202 57.3016C63.3745 57.8311 62.9406 58.4063 62.5184 59.0272C62.5203 59.1273 62.5559 59.2014 62.6254 59.2495C62.7058 59.2933 62.7851 59.3186 62.8634 59.3254C64.0658 58.9879 64.9989 58.8137 65.6626 58.8029C66.3373 58.7879 66.8026 58.8809 67.0587 59.0819C67.3257 59.2787 67.4194 59.563 67.3398 59.9349C67.2602 60.3067 67.0803 60.7119 66.8003 61.1505C66.5311 61.5848 66.1956 62.0265 65.7936 62.4756C65.3917 62.9247 64.991 63.3292 64.5915 63.689C64.2029 64.0446 63.8516 64.335 63.5375 64.5602C63.2233 64.7855 63.0173 64.8859 62.9195 64.8617ZM70.4047 61.8974C70.3851 61.8799 70.356 61.8221 70.3171 61.7241C70.2783 61.626 70.2579 61.5585 70.2558 61.5215C70.241 61.3887 70.219 61.1579 70.1896 60.8292C70.156 60.4896 70.1235 60.137 70.0921 59.7713C70.0564 59.3947 70.0239 59.0421 69.9945 58.7134C69.9652 58.3847 69.9431 58.1539 69.9283 58.0211C69.9115 57.8513 69.8915 57.6576 69.8683 57.4399C69.8408 57.2113 69.774 57.0109 69.668 56.8386C69.4959 56.8815 69.303 56.9831 69.0892 57.1434C68.8711 57.2928 68.6508 57.4368 68.4283 57.5753C68.2125 57.6986 67.9946 57.7849 67.7746 57.8342C67.5612 57.8683 67.3678 57.7936 67.1944 57.6102C67.2172 57.2861 67.3443 57.0341 67.5756 56.8543C67.8026 56.6635 68.0621 56.4914 68.3543 56.3379C68.6464 56.1844 68.9157 56.0211 69.1622 55.8478C69.4196 55.6703 69.5847 55.4347 69.6575 55.1412C69.6434 54.8191 69.6219 54.4306 69.593 53.9756C69.5706 53.5055 69.5473 53.0169 69.5229 52.5098C69.4985 52.0027 69.4872 51.4967 69.489 50.9918C69.5016 50.4826 69.5391 50.0203 69.6014 49.6049C69.6911 49.4812 69.787 49.4369 69.8891 49.4721C69.9913 49.5072 70.0846 49.5837 70.1691 49.7015C70.2601 49.8041 70.337 49.9186 70.3997 50.0451C70.4623 50.1715 70.4969 50.2586 70.5032 50.3065C70.55 50.6157 70.5564 50.9661 70.5225 51.3577C70.4951 51.7341 70.4753 52.1137 70.4631 52.4967C70.4618 52.8753 70.4822 53.2453 70.5245 53.6067C70.5777 53.9638 70.7007 54.2743 70.8934 54.5383L74.4072 53.1467C74.4181 53.1424 74.4605 53.1698 74.5343 53.2288C74.6037 53.2769 74.6634 53.3163 74.7134 53.3469C74.8283 53.4779 74.8093 53.6051 74.6566 53.7286C74.5038 53.8521 74.2847 53.983 73.9991 54.1213C73.7093 54.2487 73.3758 54.3934 72.9988 54.5553C72.6283 54.702 72.2796 54.8716 71.9525 55.0642C71.632 55.2415 71.3593 55.4441 71.1344 55.6718C70.9051 55.8886 70.7868 56.1308 70.7793 56.3985C70.7852 57.2407 70.8149 58.0797 70.8686 58.9155C70.918 59.7404 70.9826 60.5719 71.0624 61.41C71.0536 61.4513 71.0316 61.523 70.9964 61.6252C70.9569 61.7165 70.9098 61.8044 70.8552 61.8891C70.7961 61.9629 70.7264 62.0095 70.6458 62.0288C70.5761 62.0438 70.4957 62 70.4047 61.8974ZM82.9726 56.9202C82.6309 56.9168 82.3341 56.8516 82.0821 56.7245C81.8301 56.5975 81.6055 56.428 81.4082 56.2163C81.2109 56.0045 81.0311 55.7732 80.8687 55.5224C80.7021 55.2607 80.5408 54.9968 80.3851 54.7308C80.2611 54.7043 80.1127 54.8387 79.9398 55.134C79.7625 55.4185 79.5665 55.7671 79.3519 56.1798C79.1372 56.5926 78.8996 57.027 78.6391 57.4831C78.3851 57.9239 78.1119 58.2842 77.8193 58.564C77.5267 58.8437 77.2161 58.9982 76.8874 59.0275C76.5696 59.0526 76.2341 58.8577 75.8808 58.4431C75.7616 58.3012 75.6852 58.0605 75.6515 57.7209C75.6244 57.3661 75.6302 56.9668 75.6687 56.523C75.7072 56.0792 75.7686 55.6137 75.853 55.1265C75.944 54.6242 76.0369 54.1588 76.132 53.7304C76.2336 53.2868 76.335 52.9064 76.4362 52.589C76.544 52.2564 76.6372 52.0304 76.716 51.911C77.0141 51.9316 77.1964 52.0737 77.2629 52.3372C77.3361 52.5856 77.348 52.9022 77.2988 53.2872C77.2605 53.6679 77.1764 54.092 77.0464 54.5594C76.9273 55.0225 76.8191 55.4813 76.7218 55.9358C76.631 56.375 76.5796 56.7862 76.5674 57.1691C76.5552 57.5521 76.6314 57.8559 76.796 58.0806C77.0745 58.0837 77.3493 57.9182 77.6203 57.584C77.8979 57.2346 78.167 56.8003 78.4278 56.2811C78.6994 55.7576 78.9571 55.1829 79.2008 54.557C79.451 53.9159 79.6773 53.3095 79.8794 52.7379C80.0773 52.1554 80.2531 51.6446 80.407 51.2056C80.5608 50.7665 80.6815 50.4666 80.7691 50.3059C81.0411 50.3242 81.2267 50.4587 81.3259 50.7093C81.4208 50.949 81.4655 51.2527 81.4599 51.6205C81.4652 51.9839 81.4485 52.3875 81.41 52.8313C81.3781 53.2599 81.3679 53.6799 81.3796 54.0912C81.3912 54.5025 81.4509 54.8759 81.5585 55.2114C81.6662 55.5469 81.8655 55.7957 82.1566 55.9577L82.9711 56.3914L84.6218 55.7377C84.6981 55.7075 84.7274 55.7337 84.7097 55.8163C84.692 55.8989 84.6546 55.9957 84.5977 56.1064C84.5516 56.2129 84.5001 56.3215 84.4431 56.4323C84.3819 56.5322 84.3458 56.5843 84.3349 56.5886C84.0732 56.7553 83.8465 56.8514 83.655 56.8768C83.4677 56.9132 83.2402 56.9276 82.9726 56.9202ZM92.3086 52.996C91.7824 52.8767 91.3447 52.6467 90.9955 52.306C90.642 51.9545 90.3267 51.5562 90.0497 51.1114L89.8699 51.1826C89.2722 52.2512 88.7176 53.0947 88.2063 53.7131C87.7059 54.3272 87.2495 54.7663 86.8374 55.0304C86.4208 55.2836 86.0571 55.3835 85.7461 55.3302C85.4351 55.277 85.1853 55.1238 84.9969 54.8707C84.815 54.6024 84.6954 54.2527 84.6382 53.8216C84.5809 53.3906 84.5944 52.9315 84.6788 52.4443C84.7589 51.9462 84.9184 51.4419 85.1573 50.9314C85.3963 50.4208 85.7156 49.954 86.1153 49.531C86.5258 49.1037 87.02 48.7442 87.5976 48.4524C88.1819 48.1454 88.8615 47.9519 89.6365 47.8719L89.7386 47.6045L90.1909 42.3018C90.5024 42.2289 90.7285 42.2906 90.8693 42.4869C91.01 42.6832 91.0995 42.9251 91.1377 43.2125C91.1868 43.4955 91.201 43.7861 91.1804 44.0842C91.1664 44.367 91.1537 44.5737 91.1424 44.7042C91.1356 44.7825 91.1198 44.9337 91.0951 45.1578C91.0813 45.3775 91.0608 45.644 91.0336 45.9573C91.013 46.2554 90.988 46.5741 90.9585 46.9135C90.9291 47.2528 90.9007 47.5792 90.8736 47.8924C90.8529 48.1905 90.8324 48.457 90.8121 48.6919C90.7873 48.916 90.7749 49.0596 90.7747 49.1227C90.7382 49.6035 90.816 50.0705 91.0081 50.5238C91.2068 50.9619 91.4045 51.3815 91.6012 51.7826C91.7224 51.9614 91.8743 52.0904 92.0568 52.1693C92.235 52.2374 92.4165 52.2979 92.6013 52.3507C92.7927 52.3884 92.9786 52.4282 93.1591 52.4701C93.3505 52.5078 93.5232 52.578 93.6774 52.6808C93.6899 52.8397 93.6308 52.9451 93.5 52.9969C93.3736 53.0595 93.2288 53.0917 93.0656 53.0933C92.9023 53.0949 92.7457 53.0813 92.5957 53.0525C92.4456 53.0237 92.3499 53.0049 92.3086 52.996ZM85.9213 54.6747C86.0383 54.8427 86.2233 54.8325 86.4764 54.644C86.7403 54.4512 87.021 54.1573 87.3183 53.7623C87.6113 53.3564 87.9066 52.8928 88.2044 52.3715C88.513 51.846 88.7726 51.3398 88.9832 50.8531C89.2047 50.362 89.3552 49.9306 89.4349 49.5588C89.5254 49.1826 89.5044 48.9388 89.3721 48.8274C88.961 48.7759 88.5484 48.8321 88.1344 48.9961C87.7203 49.1601 87.3365 49.4003 86.9829 49.7168C86.6359 50.0181 86.3256 50.3805 86.0521 50.8039C85.7852 51.2121 85.5901 51.6423 85.4667 52.0945C85.3542 52.5424 85.3254 52.9949 85.3804 53.4521C85.442 53.894 85.6223 54.3016 85.9213 54.6747ZM95.6386 51.9042C95.2685 51.9247 94.9532 51.8605 94.6926 51.7116C94.4386 51.5475 94.2304 51.3401 94.068 51.0892C93.9057 50.8384 93.7826 50.5595 93.6988 50.2523C93.6215 49.93 93.5726 49.6154 93.5519 49.3085C93.7406 48.8304 93.9482 48.2882 94.1744 47.6818C94.4072 47.0602 94.6661 46.4409 94.9511 45.8239C95.2361 45.2068 95.5504 44.616 95.894 44.0514C96.2442 43.4716 96.6365 42.9822 97.0709 42.5833C97.215 42.438 97.3534 42.3895 97.486 42.4378C97.6251 42.4709 97.751 42.566 97.8636 42.7231C97.9762 42.8802 98.0724 43.0753 98.1521 43.3084C98.2427 43.5372 98.3148 43.767 98.3685 43.9979C98.4221 44.2287 98.4562 44.4421 98.4707 44.638C98.4853 44.8339 98.4783 44.9753 98.4497 45.0623C98.3793 45.2666 98.1945 45.5478 97.8951 45.9058C97.6067 46.2595 97.2832 46.6523 96.9249 47.0841C96.5622 47.505 96.2038 47.9368 95.8498 48.3796C95.4957 48.8223 95.2234 49.2326 95.0328 49.6106C94.8378 49.9777 94.7627 50.2973 94.8075 50.5695C94.8523 50.8417 95.0954 51.0101 95.537 51.0747C95.9247 50.9716 96.3649 50.7783 96.8577 50.4949C97.357 50.1964 97.8532 49.8738 98.3462 49.5273C98.8458 49.1656 99.3236 48.8126 99.7796 48.4681C100.231 48.1128 100.603 47.8268 100.896 47.6102L101.163 47.7123C101.048 48.1232 100.77 48.5673 100.329 49.0445C99.888 49.5217 99.386 49.9727 98.8231 50.3972C98.2558 50.8109 97.6834 51.1637 97.1057 51.4555C96.5237 51.7364 96.0347 51.8859 95.6386 51.9042ZM97.0722 44.1142C97.057 44.1076 96.9947 44.189 96.8853 44.3584C96.7716 44.5168 96.6348 44.7285 96.4751 44.9935C96.3219 45.2432 96.1555 45.5233 95.976 45.8339C95.8031 46.1293 95.6422 46.4073 95.4933 46.6679C95.3554 46.9242 95.2414 47.1458 95.1516 47.3326C95.0574 47.5086 95.0212 47.5922 95.043 47.5836C95.2303 47.5472 95.445 47.437 95.6872 47.2528C95.9359 47.0535 96.1772 46.8193 96.411 46.5503C96.6556 46.2769 96.8775 45.9937 97.0765 45.7006C97.2712 45.3966 97.4082 45.1218 97.4874 44.8762C97.5775 44.6262 97.5944 44.4304 97.5384 44.2888C97.4932 44.1428 97.3378 44.0846 97.0722 44.1142ZM107.733 47.1147C107.557 46.7681 107.444 46.4032 107.394 46.02C107.349 45.6216 107.336 45.2233 107.355 44.8252C107.381 44.4118 107.414 44.0017 107.454 43.5949C107.501 43.1729 107.525 42.7726 107.527 42.3939C107.524 42.0044 107.487 41.6409 107.416 41.3033C107.341 40.9549 107.192 40.6421 106.969 40.365C106.658 40.3748 106.35 40.5217 106.047 40.8057C105.754 41.0854 105.47 41.4501 105.195 41.8996C104.915 42.3382 104.64 42.8378 104.37 43.3983C104.107 43.9436 103.854 44.4976 103.61 45.0604C103.373 45.608 103.146 46.1327 102.929 46.6347C102.712 47.1366 102.504 47.5657 102.305 47.9219C102.112 48.2629 101.931 48.5049 101.76 48.6479C101.586 48.7801 101.427 48.761 101.284 48.5908C101.269 48.5842 101.275 48.4243 101.302 48.111C101.336 47.7825 101.371 47.3779 101.407 46.8971C101.455 46.412 101.505 45.8877 101.56 45.3243C101.625 44.7565 101.686 44.228 101.745 43.7385C101.798 43.2382 101.851 42.814 101.902 42.466C101.954 42.118 101.997 41.9245 102.032 41.8854C102.321 41.9474 102.502 42.0709 102.575 42.2562C102.655 42.4262 102.702 42.6222 102.714 42.8442C102.722 43.0553 102.721 43.2762 102.712 43.5068C102.713 43.7331 102.78 43.9336 102.912 44.1081C103.039 43.9192 103.214 43.6609 103.437 43.333C103.666 42.99 103.916 42.6329 104.185 42.2617C104.465 41.8862 104.757 41.5118 105.063 41.1386C105.38 40.761 105.689 40.4433 105.99 40.1853C106.287 39.9165 106.57 39.7227 106.838 39.604C107.117 39.4809 107.356 39.4806 107.556 39.6032C107.756 39.7257 107.908 39.9993 108.013 40.424C108.125 40.8335 108.17 41.4397 108.147 42.2427C108.145 42.3319 108.137 42.5494 108.122 42.8954C108.115 43.2262 108.102 43.5906 108.083 43.9888C108.071 44.3717 108.057 44.7362 108.043 45.0821C108.035 45.4129 108.03 45.6229 108.028 45.7121C108.034 45.76 108.05 45.8482 108.076 45.9766C108.108 46.0899 108.141 46.2217 108.176 46.372C108.206 46.5113 108.225 46.655 108.233 46.803C108.237 46.9401 108.219 47.0543 108.18 47.1456C108.14 47.2368 108.062 47.2616 107.944 47.2199C107.823 47.1672 107.752 47.1321 107.733 47.1147ZM112.26 45.3218C112.24 45.3044 112.211 45.2466 112.172 45.1485C112.133 45.0505 112.113 44.983 112.111 44.946C112.096 44.8132 112.074 44.5824 112.045 44.2537C112.011 43.9141 111.978 43.5615 111.947 43.1958C111.911 42.8192 111.879 42.4665 111.849 42.1379C111.82 41.8092 111.798 41.5784 111.783 41.4456C111.766 41.2758 111.746 41.0821 111.723 40.8644C111.696 40.6358 111.629 40.4354 111.523 40.2631C111.351 40.306 111.158 40.4076 110.944 40.5679C110.726 40.7173 110.506 40.8613 110.283 40.9998C110.067 41.1231 109.85 41.2094 109.63 41.2587C109.416 41.2928 109.223 41.2181 109.049 41.0347C109.072 40.7106 109.199 40.4586 109.431 40.2787C109.657 40.088 109.917 39.9159 110.209 39.7624C110.501 39.6089 110.771 39.4455 111.017 39.2723C111.275 39.0947 111.44 38.8592 111.512 38.5657C111.498 38.2435 111.477 37.855 111.448 37.4001C111.426 36.93 111.402 36.4414 111.378 35.9343C111.353 35.4271 111.342 34.9212 111.344 34.4163C111.357 33.9071 111.394 33.4448 111.456 33.0294C111.546 32.9057 111.642 32.8614 111.744 32.8966C111.846 32.9317 111.94 33.0082 112.024 33.126C112.115 33.2286 112.192 33.3431 112.255 33.4695C112.317 33.596 112.352 33.6831 112.358 33.731C112.405 34.0402 112.411 34.3906 112.377 34.7822C112.35 35.1585 112.33 35.5382 112.318 35.9212C112.317 36.2998 112.337 36.6698 112.379 37.0312C112.433 37.3883 112.556 37.6988 112.748 37.9628L116.262 36.5712C116.273 36.5669 116.315 36.5943 116.389 36.6533C116.459 36.7014 116.518 36.7408 116.568 36.7714C116.683 36.9024 116.664 37.0296 116.512 37.1531C116.359 37.2766 116.14 37.4075 115.854 37.5458C115.564 37.6732 115.231 37.8179 114.854 37.9798C114.483 38.1265 114.135 38.2961 113.807 38.4887C113.487 38.666 113.214 38.8685 112.989 39.0963C112.76 39.3131 112.642 39.5553 112.634 39.823C112.64 40.6651 112.67 41.5041 112.724 42.34C112.773 43.1649 112.838 43.9964 112.917 44.8345C112.909 44.8758 112.887 44.9475 112.851 45.0497C112.812 45.141 112.765 45.2289 112.71 45.3136C112.651 45.3874 112.581 45.4339 112.501 45.4532C112.431 45.4682 112.351 45.4244 112.26 45.3218ZM118.274 42.94C118.109 42.9047 118.058 42.7924 118.122 42.6033C118.192 42.399 118.331 42.1612 118.539 41.8899C118.753 41.6034 119.009 41.2942 119.306 40.9622C119.603 40.6303 119.888 40.3157 120.161 40.0185C120.445 39.717 120.694 39.4546 120.908 39.2312C121.117 38.9969 121.248 38.8319 121.298 38.7364C121.537 38.2889 121.623 37.9649 121.556 37.7645C121.496 37.5489 121.344 37.42 121.1 37.3778C120.852 37.3247 120.536 37.3367 120.15 37.4137C119.771 37.4755 119.38 37.5547 118.978 37.6512C118.581 37.7325 118.196 37.8096 117.821 37.8823C117.458 37.9506 117.167 37.9649 116.95 37.925C116.732 37.885 116.616 37.7671 116.601 37.5712C116.593 37.3601 116.74 37.0309 117.042 36.5837C117.152 36.4143 117.312 36.1679 117.525 35.8444C117.737 35.5209 117.969 35.1833 118.22 34.8316C118.482 34.4756 118.748 34.1436 119.017 33.8355C119.285 33.5274 119.523 33.3008 119.731 33.1557C119.842 33.0865 119.966 33.0499 120.103 33.046C120.251 33.0378 120.381 33.0622 120.491 33.1192C120.598 33.1652 120.665 33.2395 120.693 33.3418C120.732 33.4399 120.695 33.5551 120.584 33.6875C120.101 34.2821 119.631 34.8462 119.175 35.38C118.729 35.9094 118.295 36.4846 117.873 37.1056C117.875 37.2057 117.91 37.2798 117.98 37.3279C118.06 37.3717 118.139 37.397 118.218 37.4038C119.42 37.0663 120.353 36.8921 121.017 36.8813C121.692 36.8662 122.157 36.9592 122.413 37.1603C122.68 37.3571 122.774 37.6414 122.694 38.0132C122.615 38.3851 122.435 38.7903 122.155 39.2289C121.886 39.6632 121.55 40.1049 121.148 40.554C120.746 41.0031 120.345 41.4075 119.946 41.7674C119.557 42.123 119.206 42.4134 118.892 42.6386C118.578 42.8638 118.372 42.9643 118.274 42.94Z" fill="#969696"/>
<path d="M151.931 102.484C138.798 100.357 123.808 100.742 114.938 89.4279C111.306 84.795 107.275 77.3922 111.196 71.6643C113.677 68.0414 118.175 67.3154 122.235 68.0316C127.351 68.934 128.031 74.4998 127.611 78.8433C126.852 86.6996 122.315 92.053 114.642 93.6619C108.877 94.8706 103.24 94.3967 98.9387 90.0416C93.3426 84.3758 90.4856 76.7563 87.7488 69.4553" stroke="#969696" stroke-width="0.5" stroke-linecap="round"/>
<path d="M146.28 107.015C146.357 106.82 146.858 106.459 147.047 106.322C147.684 105.863 148.409 105.489 149.066 105.005C149.801 104.464 151.025 103.896 151.584 103.154C151.94 102.681 152.086 102.591 151.666 102.149C150.599 101.028 149.75 100.061 149.069 98.6331C148.456 97.3494 147.75 96.0991 147.166 94.8159" stroke="#969696" stroke-width="0.5" stroke-linecap="round"/>
</svg>
