<svg width="504" height="530" viewBox="0 0 504 530" fill="none" xmlns="http://www.w3.org/2000/svg">
<g opacity="0.08">
<path d="M87.2155 382.516L48.3827 529.908H0L0.5753 528.24C8.45691 512.476 21.4012 485.495 29.8005 455.119L93.3712 216.6C101.253 185.649 103.496 159.76 104.072 141.811L104.647 140.142H151.879L129.385 225.057C161.429 168.792 202.506 136.748 237.944 136.748C282.932 136.748 313.308 187.374 280.689 281.896C244.1 385.393 180.587 421.406 138.935 421.406C110.803 421.406 93.3712 404.55 87.1579 382.574L87.2155 382.516ZM239.095 284.658C264.408 214.356 253.132 164.823 218.269 164.823C181.162 164.823 135.023 221.087 110.285 296.451L96.2477 349.321C94.5793 372.966 103.554 399.948 131.686 401.098C168.275 401.674 212.113 361.173 239.152 284.658H239.095Z" fill="url(#paint0_linear_149_376)"/>
<path d="M308.877 274.533C345.466 172.129 408.979 136.691 451.781 136.691C481.006 136.691 499.013 151.879 504.076 174.948C518.689 164.248 531.058 153.029 540.665 140.085H549.64L486.069 374.635C477.612 407.83 523.176 377.454 560.34 314.458L563.735 318.946C538.997 375.21 502.408 421.349 470.939 421.349C455.175 421.349 438.894 410.648 449.538 370.147L459.663 333.041C427.043 388.73 385.392 421.349 350.528 421.349C304.965 421.349 275.164 369.572 308.877 274.533ZM370.204 392.642C407.311 392.642 454.025 336.377 478.763 261.013L493.375 205.899C495.619 183.405 487.737 156.423 459.088 155.848C422.498 154.698 376.935 196.349 350.528 270.62C324.64 343.166 334.765 392.699 370.204 392.699V392.642Z" fill="url(#paint1_linear_149_376)"/>
</g>
<defs>
<linearGradient id="paint0_linear_149_376" x1="147.177" y1="136.748" x2="147.177" y2="529.908" gradientUnits="userSpaceOnUse">
<stop stop-color="#FAFAFA"/>
<stop offset="1" stop-color="#FAFAFA" stop-opacity="0"/>
</linearGradient>
<linearGradient id="paint1_linear_149_376" x1="429.065" y1="136.691" x2="429.065" y2="421.349" gradientUnits="userSpaceOnUse">
<stop stop-color="#FAFAFA"/>
<stop offset="1" stop-color="#FAFAFA" stop-opacity="0"/>
</linearGradient>
</defs>
</svg>
