<svg width="463" height="359" viewBox="0 0 463 359" fill="none" xmlns="http://www.w3.org/2000/svg">
<g opacity="0.08">
<path d="M15.9267 81.5629C11.4394 78.2261 -2.54042 71.4376 -17.7283 70.9774C-63.2921 69.5391 -98.7306 91.8032 -111.1 127.817C-127.38 174.474 -84.6357 204.332 -54.8352 224.007C-48.737 227.977 -42.8689 232.004 -37.3461 236.146C-17.4407 250.989 -2.48289 267.155 -0.641922 286.024C-0.0666351 292.353 -0.929581 299.084 -3.63348 306.102C-4.95668 309.439 -6.50998 312.488 -8.29341 315.25C-17.038 329.172 -30.8452 336.421 -45.2852 339.182C-51.4409 340.39 -57.7692 340.736 -63.8099 340.448C-74.7406 340.103 -84.8083 337.399 -93.898 332.854C-100.456 329.632 -106.44 325.548 -111.847 320.715C-125.309 308.806 -135.147 292.928 -140.325 276.877L-141.993 277.453L-157.181 320.6L-160 328.654C-149.127 337.054 -136.068 343.9 -121.858 348.905C-103.736 355.348 -83.6577 358.8 -63.8099 358.455C-52.0162 358.282 -41.028 356.901 -30.8452 354.198C-1.61993 346.316 20.2415 327.849 30.3092 298.681C30.6544 297.818 30.942 296.898 31.2297 295.977C39.7441 270.204 32.8981 248.803 15.1213 228.667C6.20413 218.542 -5.41693 208.762 -19.2241 198.867C-21.6404 197.141 -24.1142 195.357 -26.703 193.631C-53.6846 175.049 -89.1231 153.13 -76.7541 121.086C-68.3547 98.5342 -45.803 88.9842 -22.2157 87.8912C-9.09883 87.2583 2.8674 89.7897 13.2803 94.7948L15.9267 81.5629Z" fill="url(#paint0_linear_149_381)"/>
<path d="M55.8514 279.12L105.903 92.9532H67.0698L70.464 80.5843C115.452 71.0343 141.341 38.4148 161.016 0.732666H169.473L149.223 74.4286H234.367L229.304 93.0108H144.735L96.9278 269.628C83.9836 316.86 95.2594 326.467 108.204 326.467C127.304 326.467 157.162 306.217 190.357 247.134L193.751 251.621C169.013 307.885 133.574 355.693 91.9227 355.693C57.6348 355.693 44.1153 323.073 55.9089 279.178L55.8514 279.12Z" fill="url(#paint1_linear_149_381)"/>
<path d="M186.906 259.447L216.706 150.887C224.588 120.512 226.832 90.7111 224.588 76.0985V74.4301H275.79L226.314 254.441C211.701 307.311 230.226 326.987 255.021 326.987C307.891 326.987 363.58 235.284 387.8 156.525L410.295 74.3726H449.127L383.888 311.166C376.582 339.873 421.571 311.741 458.677 248.746L462.072 253.233C437.334 309.498 400.745 355.637 370.369 355.637C353.513 355.637 337.174 344.361 347.875 304.435L361.912 252.14C332.111 306.679 289.367 355.061 238.165 355.061C201.058 355.061 167.863 330.323 186.963 259.447H186.906Z" fill="url(#paint2_linear_149_381)"/>
</g>
<defs>
<linearGradient id="paint0_linear_149_381" x1="-62.5651" y1="70.9116" x2="-62.5651" y2="358.478" gradientUnits="userSpaceOnUse">
<stop stop-color="#FAFAFA"/>
<stop offset="1" stop-color="#FAFAFA" stop-opacity="0"/>
</linearGradient>
<linearGradient id="paint1_linear_149_381" x1="143.048" y1="0.732666" x2="143.048" y2="355.693" gradientUnits="userSpaceOnUse">
<stop stop-color="#FAFAFA"/>
<stop offset="1" stop-color="#FAFAFA" stop-opacity="0"/>
</linearGradient>
<linearGradient id="paint2_linear_149_381" x1="321.732" y1="74.3726" x2="321.732" y2="355.637" gradientUnits="userSpaceOnUse">
<stop stop-color="#FAFAFA"/>
<stop offset="1" stop-color="#FAFAFA" stop-opacity="0"/>
</linearGradient>
</defs>
</svg>
