<svg width="100" height="100" viewBox="0 0 100 100" fill="none" xmlns="http://www.w3.org/2000/svg">
<g clip-path="url(#clip0_461_419)">
<rect width="100" height="100" rx="50" fill="#0C0C0C" fill-opacity="0.15"/>
<path d="M50 62.0001C60.8485 62.0001 69.6429 53.2057 69.6429 42.3572C69.6429 31.5088 60.8485 22.7144 50 22.7144C39.1516 22.7144 30.3572 31.5088 30.3572 42.3572C30.3572 53.2057 39.1516 62.0001 50 62.0001Z" fill="white"/>
<path d="M84.8743 84.59C93.2965 90.2147 88.0143 101.287 77.8866 101.287H22.1138C11.9861 101.287 6.70395 90.2147 15.1261 84.59C25.1056 77.9252 37.0992 74.0396 50.0002 74.0396C62.9012 74.0396 74.8948 77.9252 84.8743 84.59Z" fill="white"/>
</g>
<defs>
<clipPath id="clip0_461_419">
<rect width="100" height="100" rx="50" fill="white"/>
</clipPath>
</defs>
</svg>
