<svg width="14" height="15" viewBox="0 0 14 15" fill="none" xmlns="http://www.w3.org/2000/svg">
<path fill-rule="evenodd" clip-rule="evenodd" d="M5.94715 12.4715L12.4158 6.34705C13.491 5.32904 13.4079 3.52696 12.2324 2.37139C11.0846 1.24303 9.33406 1.1655 8.3223 2.1982L2.03002 8.62075C2.03002 8.62075 3.4239 9.17531 4.40347 10.1383C5.38303 11.1012 5.94715 12.4715 5.94715 12.4715Z" fill="white"/>
<path fill-rule="evenodd" clip-rule="evenodd" d="M5.94715 12.4715L12.4158 6.34705C13.491 5.32904 13.4079 3.52696 12.2324 2.37139C11.0846 1.24303 9.33406 1.1655 8.3223 2.1982L2.03002 8.62075C2.03002 8.62075 3.4239 9.17531 4.40347 10.1383C5.38303 11.1012 5.94715 12.4715 5.94715 12.4715Z" stroke="#0C0C0C" stroke-linecap="round" stroke-linejoin="round"/>
<path d="M2.4195 13.3835L5.94356 12.4764C5.94356 12.4764 5.38071 11.1057 4.40203 10.1418C3.42335 9.17797 2.02998 8.62216 2.02998 8.62216L1.10746 12.0601C0.905009 12.8145 1.66231 13.5784 2.4195 13.3835Z" fill="white"/>
<path d="M2.4195 13.3835L5.94356 12.4764C5.94356 12.4764 5.38071 11.1057 4.40203 10.1418C3.42335 9.17797 2.02998 8.62216 2.02998 8.62216L1.10746 12.0601C0.905009 12.8145 1.66231 13.5784 2.4195 13.3835Z" stroke="#0C0C0C" stroke-linecap="round" stroke-linejoin="round"/>
</svg>
