<svg width="1280" height="226" viewBox="0 0 1280 226" fill="none" xmlns="http://www.w3.org/2000/svg">
<g filter="url(#filter0_d_729_1773)">
<mask id="mask0_729_1773" style="mask-type:luminance" maskUnits="userSpaceOnUse" x="1040" y="3" width="121" height="167">
<path d="M1160.05 3.35156H1040.81V169.642H1160.05V3.35156Z" fill="white"/>
</mask>
<g mask="url(#mask0_729_1773)">
<path d="M1049.9 131.759C1048.93 135.822 1049.61 140.014 1051.82 143.569C1053.11 145.65 1054.83 147.366 1056.86 148.628C1056.06 152.354 1056.72 156.18 1058.73 159.435C1060.81 162.778 1064.06 165.119 1067.91 166.021L1081.7 169.275C1082.84 169.547 1083.99 169.676 1085.14 169.676C1087.85 169.676 1090.51 168.928 1092.87 167.471C1096.14 165.461 1098.45 162.336 1099.41 158.639C1105.93 158.032 1111.63 153.368 1113.22 146.682L1116.54 132.667C1117.33 129.33 1117.02 125.904 1115.66 122.821C1119.03 118.534 1123.27 114.997 1128.15 112.42C1142.82 104.679 1153.41 91.1063 1157.19 75.1812C1164.51 44.3274 1144.8 13.1788 1113.25 5.74399C1098.01 2.14743 1082.29 4.55889 1068.99 12.5362C1055.62 20.5488 1046.3 33.2194 1042.74 48.207C1038.96 64.1321 1042.32 80.9947 1051.95 94.4729C1055.16 98.9539 1057.35 104.013 1058.44 109.354C1055.92 111.447 1054.03 114.337 1053.22 117.75L1049.9 131.759Z" fill="#3D90F2"/>
</g>
<path d="M1060.55 119.456C1061.28 116.372 1063.7 114.126 1066.6 113.43C1065.93 105.011 1063.01 96.9803 1058.08 90.0879C1049.71 78.3725 1046.78 63.7327 1050.06 49.9066C1053.15 36.906 1061.25 25.9099 1072.86 18.9408C1084.47 11.9836 1098.19 9.88458 1111.5 13.0213C1139.01 19.5128 1156.21 46.6108 1149.84 73.4317C1146.56 87.2519 1137.36 99.038 1124.6 105.771C1117.09 109.727 1110.88 115.606 1106.49 122.834C1107.14 123.383 1107.73 124.037 1108.19 124.786C1109.34 126.631 1109.69 128.813 1109.19 130.918L1105.86 144.938C1104.97 148.665 1101.62 151.182 1097.93 151.182C1097.32 151.182 1096.68 151.111 1096.06 150.964L1093.61 150.386L1092.13 156.595C1091.68 158.464 1090.53 160.056 1088.89 161.064C1087.73 161.777 1086.43 162.143 1085.1 162.143C1084.54 162.143 1083.98 162.078 1083.42 161.948L1069.62 158.694C1067.74 158.246 1066.15 157.102 1065.13 155.463C1064.11 153.824 1063.8 151.89 1064.24 150.015L1065.72 143.812L1063.27 143.234C1061.15 142.733 1059.35 141.442 1058.21 139.597C1057.07 137.751 1056.72 135.576 1057.22 133.465L1060.55 119.456ZM1065.18 120.547L1064.06 125.24L1103.45 134.526L1104.56 129.827C1104.77 128.948 1104.62 128.046 1104.15 127.28C1103.67 126.513 1102.93 125.971 1102.04 125.77L1069.26 118.041C1069 117.976 1068.73 117.946 1068.47 117.946C1066.94 117.946 1065.55 118.996 1065.18 120.547ZM1090.53 73.0838L1080.39 115.789L1082.58 116.301L1093.11 118.784L1103.25 76.079L1090.53 73.0838ZM1122.37 101.579C1133.92 95.4827 1142.24 84.8286 1145.21 72.335C1150.97 48.0612 1135.36 23.522 1110.41 17.6378C1106.74 16.7711 1103.04 16.3466 1099.37 16.3466C1090.94 16.3466 1082.66 18.6048 1075.32 23.0032C1064.82 29.306 1057.49 39.2467 1054.7 50.9974C1051.73 63.491 1054.38 76.7334 1061.96 87.3344C1067.51 95.0936 1070.75 104.168 1071.4 113.666L1075.76 114.692L1086.05 71.3681C1082.3 69.1099 1075.16 64.5582 1073.48 61.8401C1072.27 59.8945 1071.9 57.595 1072.42 55.3722C1072.95 53.1494 1074.32 51.2627 1076.27 50.0599C1078.22 48.863 1080.53 48.4916 1082.76 49.0163C1084.99 49.5411 1086.89 50.9031 1088.09 52.8487C1089.77 55.5727 1090.66 63.9686 1091.01 68.3198L1104.96 71.6039C1107.23 67.8776 1111.8 60.7612 1114.53 59.0808C1118.56 56.6045 1123.86 57.8485 1126.35 61.8637C1127.55 63.8094 1127.92 66.1029 1127.4 68.3316C1126.87 70.5544 1125.5 72.4411 1123.55 73.638C1120.82 75.3184 1112.39 76.1969 1108.02 76.5507L1097.73 119.874L1102.1 120.9C1106.94 112.699 1113.92 106.037 1122.37 101.579ZM1085.98 65.7433C1085.48 60.9793 1084.73 56.4571 1084.04 55.3427C1083.51 54.476 1082.66 53.8687 1081.67 53.6329C1081.37 53.5621 1081.07 53.5327 1080.78 53.5327C1080.08 53.5327 1079.39 53.7272 1078.77 54.0987C1077.91 54.6352 1077.29 55.4783 1077.06 56.4689C1076.83 57.4594 1076.99 58.4853 1077.53 59.3461C1078.22 60.4723 1081.94 63.1608 1085.98 65.7433ZM1110.61 71.5449C1115.39 71.0438 1119.92 70.3009 1121.05 69.6111C1122.84 68.5026 1123.41 66.1501 1122.29 64.3636C1121.57 63.1962 1120.32 62.5535 1119.03 62.5535C1118.34 62.5535 1117.65 62.7363 1117.03 63.1196C1115.91 63.8094 1113.2 67.518 1110.61 71.5449ZM1070.35 144.903L1068.88 151.111C1068.73 151.754 1068.84 152.414 1069.19 152.975C1069.53 153.541 1070.08 153.93 1070.72 154.083L1084.53 157.338C1085.85 157.65 1087.19 156.831 1087.5 155.504L1088.98 149.301L1075.03 146.017L1070.35 144.903ZM1062.26 137.108C1062.74 137.875 1063.48 138.411 1064.37 138.624L1069.4 139.809L1092.39 145.227H1092.39L1097.16 146.348C1098.97 146.772 1100.81 145.652 1101.23 143.836L1102.34 139.137L1062.97 129.856L1061.85 134.561C1061.64 135.434 1061.79 136.342 1062.26 137.108Z" fill="#FAFAFA"/>
</g>
<g filter="url(#filter1_d_729_1773)">
<mask id="mask1_729_1773" style="mask-type:luminance" maskUnits="userSpaceOnUse" x="81" y="18" width="117" height="194">
<path d="M81.0703 18.75H197.799V211.157H81.0703V18.75Z" fill="white"/>
</mask>
<g mask="url(#mask1_729_1773)">
<path d="M192.811 201.335L162.69 210.302C160.047 211.089 157.258 209.595 156.472 206.965L134.149 132.86C121.818 131.803 109.903 126.741 100.605 118.322C87.4681 106.414 80.7739 89.0669 82.2476 70.7091C83.4304 55.9793 90.7855 42.3002 102.429 33.1807C118.111 20.896 137.598 17.1557 155.89 22.9049C173.858 28.5549 187.808 42.6108 193.194 60.506C200.02 83.1657 191.833 107.081 173.858 121.084L196.168 195.15C196.961 197.773 195.461 200.549 192.811 201.335Z" fill="#79A333"/>
</g>
<path d="M168.147 131.166C167.697 129.672 166.693 128.443 165.318 127.71C164.42 127.227 163.435 126.996 162.45 127.016L160.283 119.826C181.31 109.524 191.976 85.5026 185.183 62.9419C181.482 50.6571 173.182 40.5399 161.803 34.4404C150.423 28.341 137.359 27.0061 125.008 30.6869C99.4735 38.293 84.922 65.1359 92.5678 90.5183C98.7796 111.129 117.838 124.802 138.832 124.795C140.808 124.795 142.811 124.676 144.819 124.425L146.987 131.609C146.148 132.137 145.454 132.871 144.971 133.763C144.231 135.131 144.066 136.704 144.515 138.197L161.869 195.808C162.318 197.301 163.329 198.531 164.704 199.264C165.569 199.733 166.514 199.971 167.473 199.971C168.041 199.971 168.609 199.885 169.164 199.72L181.575 196.026C183.075 195.583 184.311 194.579 185.051 193.211C185.797 191.843 185.956 190.27 185.507 188.777L168.147 131.166ZM146.24 118.901C124.783 122.621 103.894 109.768 97.643 89.005C90.8298 66.398 103.789 42.4959 126.528 35.729C137.524 32.4579 149.161 33.6474 159.292 39.0728C169.422 44.5048 176.823 53.5185 180.114 64.4486C186.366 85.2052 176.017 107.356 156.04 115.973C154.805 116.509 154.17 117.87 154.553 119.145L157.316 128.311L151.989 129.89L149.234 120.731C148.897 119.601 147.846 118.855 146.703 118.855C146.544 118.861 146.392 118.874 146.24 118.901ZM180.385 190.713C180.339 190.805 180.233 190.931 180.048 190.991L167.638 194.685C167.453 194.737 167.301 194.691 167.208 194.638C167.116 194.592 166.997 194.486 166.937 194.308L149.584 136.69C149.525 136.505 149.571 136.36 149.624 136.267C149.677 136.175 149.776 136.049 149.961 135.996L158.327 133.505L161.367 132.6L162.371 132.302C162.424 132.283 162.483 132.276 162.53 132.276C162.642 132.276 162.734 132.309 162.801 132.342C162.893 132.388 163.012 132.487 163.072 132.672L180.425 190.283C180.484 190.475 180.438 190.62 180.385 190.713ZM171.325 94.1264C175.997 85.496 177.022 75.5836 174.206 66.213C168.371 46.8442 147.78 35.8017 128.299 41.6104C118.875 44.4123 111.111 50.71 106.432 59.3404C101.753 67.9708 100.729 77.8832 103.551 87.2538C106.366 96.6177 112.703 104.343 121.387 108.995C126.852 111.929 132.825 113.416 138.859 113.416C142.401 113.416 145.969 112.901 149.452 111.863C158.882 109.048 166.647 102.75 171.325 94.1264ZM123.898 104.356C116.463 100.378 111.038 93.7629 108.626 85.7405C106.207 77.718 107.08 69.233 111.091 61.8383C115.095 54.4437 121.743 49.0513 129.812 46.6525C132.825 45.7538 135.872 45.3243 138.859 45.3243C152.452 45.3243 165.034 54.1265 169.131 67.7197C171.55 75.7422 170.671 84.2272 166.66 91.6218C162.655 99.0165 156.007 104.409 147.939 106.808C139.87 109.213 131.332 108.341 123.898 104.356Z" fill="#FAFAFA"/>
</g>
<g filter="url(#filter2_d_729_1773)">
<mask id="mask2_729_1773" style="mask-type:luminance" maskUnits="userSpaceOnUse" x="343" y="34" width="177" height="157">
<path d="M343.398 34H519.551V190.052H343.398V34Z" fill="white"/>
</mask>
<g mask="url(#mask2_729_1773)">
<path d="M496.503 162.849C481.194 178.359 460.098 187.847 437.1 189.547C434.622 189.733 432.153 189.822 429.692 189.822C409.357 189.822 389.953 183.573 374.394 171.891C356.56 158.502 345.882 139.615 344.328 118.722C342.774 97.8276 350.545 77.5733 366.209 61.6985C381.518 46.1799 402.614 36.7004 425.612 34.9923C448.611 33.2923 470.881 39.558 488.318 52.648C506.152 66.0376 516.838 84.9238 518.392 105.818C519.938 126.72 512.167 146.966 496.503 162.849Z" fill="#CDCDCD"/>
</g>
<path d="M510.832 106.433C507.974 68.0124 470.024 39.3876 426.228 42.6338C405.067 44.2043 385.703 52.8905 371.691 67.0896C357.589 81.3777 350.586 99.5354 351.979 118.211C353.363 136.879 362.972 153.806 379.033 165.852C393.264 176.546 411.058 182.261 429.742 182.261C432.016 182.261 434.291 182.172 436.582 182.002C480.378 178.756 513.689 144.853 510.832 106.433ZM436.226 177.201C416.239 178.683 396.956 173.291 381.923 162.006C366.995 150.803 358.066 135.122 356.779 117.847C355.5 100.58 362.017 83.7577 375.123 70.4653C388.318 57.0919 406.589 48.9157 426.585 47.4343C428.738 47.2724 430.875 47.1995 432.996 47.1995C471.367 47.1995 503.506 72.8858 506.031 106.789C508.679 142.562 477.374 174.149 436.226 177.201Z" fill="#FAFAFA"/>
<path d="M474.07 117.75C474.272 118.907 474.005 120.073 473.325 121.036C472.645 122 471.633 122.639 470.467 122.842C470.216 122.882 469.957 122.906 469.706 122.906C468.8 122.906 467.925 122.631 467.172 122.097C466.209 121.425 465.57 120.405 465.367 119.247C465.165 118.09 465.432 116.916 466.112 115.953C466.784 114.989 467.804 114.35 468.97 114.147C470.127 113.953 471.301 114.212 472.264 114.892C473.228 115.572 473.867 116.584 474.07 117.75ZM434.435 139.372C435.115 138.409 435.382 137.243 435.18 136.077C434.759 133.689 432.468 132.078 430.072 132.491C427.676 132.904 426.057 135.187 426.478 137.583C426.68 138.749 427.32 139.753 428.283 140.441C429.036 140.967 429.918 141.242 430.817 141.242C431.068 141.242 431.327 141.226 431.578 141.177C432.743 140.975 433.755 140.335 434.435 139.372ZM408.547 129.067C408.134 126.671 405.835 125.06 403.439 125.481C401.034 125.894 399.423 128.176 399.844 130.573C400.038 131.738 400.686 132.742 401.649 133.43C402.402 133.956 403.285 134.232 404.183 134.232C404.434 134.232 404.693 134.215 404.944 134.167C406.11 133.965 407.122 133.325 407.802 132.362C408.482 131.406 408.741 130.233 408.547 129.067ZM439.114 93.1159C439.997 93.3344 440.895 93.4397 441.786 93.4397C443.801 93.4397 445.785 92.8892 447.558 91.8125C448.691 91.1244 449.055 89.643 448.359 88.5097C447.671 87.3763 446.19 87.0201 445.056 87.7082C443.607 88.5825 441.907 88.8497 440.264 88.4449C438.612 88.0482 437.228 87.0363 436.346 85.5873C435.658 84.4539 434.176 84.0896 433.043 84.7777C431.901 85.4739 431.545 86.9473 432.233 88.0806C433.771 90.6225 436.224 92.4116 439.114 93.1159ZM404.766 95.4473C405.819 95.7549 406.887 95.9087 407.948 95.9087C409.785 95.9087 411.607 95.4554 413.258 94.5568C415.873 93.1401 417.783 90.7844 418.625 87.9349C419.006 86.6558 418.277 85.3201 417.006 84.9396C415.727 84.5673 414.383 85.2877 414.011 86.5668C413.015 89.9101 409.486 91.8287 406.134 90.8411C404.855 90.4606 403.511 91.1892 403.139 92.4601C402.767 93.7392 403.487 95.0668 404.766 95.4473ZM447.145 141.987C445.833 141.785 444.595 142.667 444.384 143.986C443.939 146.763 439.932 148.52 435.641 147.832C434.33 147.621 433.091 148.512 432.889 149.831C432.679 151.143 433.569 152.373 434.889 152.584C435.803 152.729 436.702 152.802 437.576 152.802C443.51 152.802 448.367 149.564 449.144 144.739C449.347 143.436 448.456 142.205 447.145 141.987ZM467.699 136.264C465.634 136.62 463.594 136.798 461.603 136.798C450.529 136.798 441.106 131.495 438.329 123.441L422.762 126.128C422.835 130.767 420.827 135.381 416.941 139.332C412.594 143.768 406.361 146.868 399.415 148.066C397.335 148.431 395.262 148.609 393.222 148.609C388.446 148.609 383.888 147.629 379.97 145.727C374.117 142.885 370.369 138.336 369.43 132.912C368.491 127.48 370.483 121.935 375.04 117.304C379.387 112.868 385.613 109.768 392.567 108.57C406.126 106.222 418.658 111.889 421.936 121.393L437.495 118.705C437.43 114.066 439.438 109.452 443.324 105.494C447.671 101.065 453.896 97.9649 460.85 96.7587C467.804 95.5606 474.709 96.3944 480.295 99.1063C486.148 101.948 489.888 106.505 490.827 111.929C492.721 122.817 482.343 133.738 467.699 136.264ZM417.799 124.542C416.585 117.523 408.53 112.828 398.776 112.828C397.027 112.828 395.222 112.982 393.392 113.297C387.426 114.334 382.132 116.948 378.481 120.664C375.04 124.169 373.51 128.225 374.182 132.086C374.854 135.948 377.655 139.251 382.075 141.396C386.762 143.679 392.631 144.359 398.589 143.331C404.556 142.295 409.85 139.688 413.501 135.972C416.941 132.459 418.471 128.403 417.799 124.542ZM486.091 112.747C485.419 108.885 482.618 105.574 478.198 103.429C474.936 101.843 471.099 101.033 467.059 101.033C465.294 101.033 463.489 101.187 461.676 101.503C455.71 102.531 450.415 105.145 446.764 108.861C443.324 112.366 441.802 116.422 442.466 120.284C443.899 128.557 454.851 133.608 466.881 131.528C478.902 129.447 487.524 121.02 486.091 112.747Z" fill="#FAFAFA"/>
</g>
<g filter="url(#filter3_d_729_1773)">
<mask id="mask3_729_1773" style="mask-type:luminance" maskUnits="userSpaceOnUse" x="275" y="98" width="131" height="168">
<path d="M275.07 98.8125H405.129V265.823H275.07V98.8125Z" fill="white"/>
</mask>
<g mask="url(#mask3_729_1773)">
<path d="M395.26 238.686C386.892 251.86 373.887 260.993 358.64 264.409C354.336 265.373 350.003 265.852 345.699 265.852C334.744 265.852 323.988 262.763 314.505 256.777C301.296 248.438 292.139 235.469 288.711 220.257L277.64 171.093C274.212 155.881 276.933 140.255 285.295 127.087C293.657 113.919 306.662 104.78 321.915 101.364C353.402 94.3094 384.766 114.117 391.843 145.516L402.915 194.674C406.343 209.886 403.622 225.518 395.26 238.686Z" fill="#E07FBF"/>
</g>
<path d="M395.091 196.407L384.025 147.244C381.065 134.128 373.17 122.94 361.777 115.751C350.384 108.557 336.865 106.215 323.714 109.164C310.552 112.107 299.34 119.991 292.123 131.349C284.911 142.712 282.563 156.19 285.518 169.306L296.596 218.469C299.55 231.584 307.446 242.773 318.838 249.961C327.02 255.129 336.299 257.792 345.741 257.792C349.455 257.792 353.192 257.378 356.901 256.548C370.057 253.599 381.275 245.722 388.487 234.364C395.704 223.006 398.052 209.523 395.091 196.407ZM379.062 148.353L382.647 164.255L340.836 173.621L338.185 161.849C342.354 159.752 344.737 155.022 343.668 150.281L340.964 138.286C339.902 133.539 335.715 130.28 331.049 130.163L327.323 113.62C329.823 113.205 332.316 113.001 334.786 113.001C355.54 113.001 374.326 127.325 379.062 148.353ZM329.607 135.355C330.004 135.267 330.395 135.226 330.792 135.226C331.796 135.226 332.777 135.512 333.648 136.055C334.85 136.82 335.691 138 336.001 139.396L338.705 151.39C339.353 154.257 337.537 157.119 334.658 157.767C333.262 158.076 331.826 157.831 330.623 157.066C329.414 156.307 328.573 155.121 328.263 153.726L325.56 141.737C325.244 140.347 325.496 138.911 326.261 137.708C327.025 136.505 328.217 135.67 329.607 135.355ZM296.415 134.058C302.447 124.557 311.592 117.766 322.36 114.729L326.085 131.284C324.415 132.12 322.99 133.381 321.963 134.998C320.474 137.346 319.989 140.131 320.602 142.847L323.306 154.841C324.368 159.583 328.555 162.836 333.221 162.958L335.872 174.737L294.061 184.103L290.476 168.202C287.825 156.395 289.933 144.277 296.415 134.058ZM384.195 231.654C377.707 241.874 367.622 248.957 355.791 251.608C343.96 254.259 331.802 252.157 321.56 245.687C311.311 239.217 304.21 229.155 301.553 217.359L295.177 189.043L383.762 169.206L390.139 197.522C392.796 209.318 390.682 221.435 384.195 231.654Z" fill="#FAFAFA"/>
</g>
<g filter="url(#filter4_d_729_1773)">
<mask id="mask4_729_1773" style="mask-type:luminance" maskUnits="userSpaceOnUse" x="-38" y="80" width="193" height="163">
<path d="M-38 80.3359H154.358V242.322H-38V80.3359Z" fill="white"/>
</mask>
<g mask="url(#mask4_729_1773)">
<path d="M149.263 185.612L126.78 184.274L123.583 238.177C123.438 240.569 121.395 242.382 119.009 242.244L-7.48336 234.697C-9.86939 234.552 -11.682 232.502 -11.5436 230.109L-8.34681 176.213L-32.998 174.736C-36.5111 174.525 -38.3171 170.419 -36.0959 167.677L17.0953 102.035C17.9719 100.954 19.3166 100.354 20.7073 100.44L65.4749 103.109L66.569 84.6211C66.7141 82.2285 68.7639 80.4159 71.1433 80.5543L105.167 82.5778C107.553 82.7228 109.366 84.7793 109.227 87.1653L108.133 105.654L109.241 105.72C110.704 105.805 112.022 106.629 112.741 107.895L153.27 179.126C154.977 182.125 152.683 185.816 149.263 185.612Z" fill="#F3D1F4"/>
</g>
<path d="M138.915 171.734L107.02 115.689C106.558 114.865 105.708 114.337 104.759 114.278L98.774 113.922L99.967 93.898C100.007 93.1598 99.7561 92.4282 99.2683 91.8745C98.774 91.3209 98.0885 90.9847 97.3503 90.9386L77.9062 89.7785C76.3638 89.6863 75.0456 90.8595 74.9533 92.4018L73.7603 112.426L23.9109 109.447C23.8911 109.447 23.8713 109.447 23.8581 109.447C23.7725 109.447 23.6802 109.447 23.6011 109.447C23.5681 109.447 23.5286 109.453 23.4956 109.453C23.3902 109.467 23.2847 109.48 23.1792 109.499C23.1529 109.506 23.1265 109.513 23.0936 109.519C23.0211 109.539 22.9354 109.559 22.8563 109.592C22.8233 109.598 22.7838 109.612 22.7508 109.625C22.6717 109.658 22.5926 109.691 22.5135 109.737C22.4938 109.743 22.474 109.75 22.4542 109.763C22.3553 109.816 22.2565 109.875 22.1642 109.934C22.151 109.941 22.1378 109.961 22.1246 109.967C22.0456 110.02 21.973 110.086 21.9005 110.152C21.8808 110.165 21.861 110.185 21.8412 110.205C21.7687 110.277 21.7028 110.343 21.6303 110.422C21.6237 110.429 21.6105 110.442 21.6039 110.455C21.5974 110.462 21.5842 110.468 21.5776 110.482L-20.2701 162.13C-20.9292 162.948 -21.0742 164.062 -20.6524 165.024C-20.2306 165.98 -19.3078 166.626 -18.2664 166.685L0.999777 167.838L-2.28924 223.277C-2.33538 224.022 -2.07833 224.747 -1.59057 225.301C-1.10283 225.854 -0.410746 226.19 0.327473 226.237L44.2184 228.86H44.225L112.24 232.92C112.299 232.927 112.352 232.927 112.411 232.927C113.09 232.927 113.749 232.676 114.257 232.221C114.81 231.727 115.147 231.035 115.193 230.297L118.488 174.858L136.331 175.926C136.383 175.926 136.443 175.926 136.496 175.926C137.458 175.926 138.361 175.431 138.868 174.608C139.402 173.724 139.422 172.63 138.915 171.734ZM94.2326 96.3632L92.5651 124.402L78.6971 123.578L79.1717 115.557C79.1717 115.557 79.1717 115.557 79.1717 115.55L80.3581 95.5327L94.2326 96.3632ZM23.3045 117.238L29.5266 128.588C29.3486 128.733 29.1773 128.891 29.0257 129.082L2.66736 162.328L-12.5056 161.425L23.3045 117.238ZM6.68141 166.263L32.4004 133.821L52.0027 169.578C52.4641 170.422 53.3275 170.969 54.2832 171.022L70.2274 171.971L67.1032 224.615L47.3361 223.435L49.0037 195.409C49.2278 191.587 47.9557 187.902 45.418 185.028C42.887 182.168 39.3805 180.467 35.5642 180.236C31.7478 180.006 28.0765 181.284 25.2159 183.829C22.3553 186.373 20.6548 189.879 20.4241 193.702L18.7631 221.728L3.43853 220.819L6.68141 166.263ZM24.3327 222.064L26.0003 194.032C26.1387 191.699 27.1735 189.563 28.9202 188.008C30.6669 186.459 32.9145 185.681 35.2346 185.819C37.5613 185.958 39.6969 186.999 41.2392 188.739C42.7881 190.492 43.5659 192.74 43.4275 195.08L41.7599 223.106L24.3327 222.064ZM109.781 227.159L72.6793 224.945L75.8036 172.307L112.906 174.522L109.781 227.159ZM73.378 166.553C73.3714 166.553 73.3582 166.553 73.345 166.553C73.3319 166.553 73.3253 166.553 73.3055 166.553L56.1551 165.525L28.6302 115.346L73.4373 118.015L72.9628 126.037C72.9166 126.775 73.1671 127.507 73.6548 128.06C74.1492 128.614 74.8413 128.95 75.5795 128.996L95.0236 130.156C95.0763 130.163 95.1356 130.163 95.1884 130.163C95.2081 130.163 95.2279 130.156 95.2477 130.156C95.2938 130.156 95.34 130.15 95.3861 130.15C95.4322 130.15 95.4784 130.143 95.5245 130.137C95.5641 130.137 95.6102 130.123 95.6563 130.117C95.7025 130.11 95.7486 130.104 95.7948 130.09C95.8343 130.084 95.8738 130.071 95.9134 130.064C95.9661 130.051 96.0123 130.038 96.0584 130.025C96.0979 130.011 96.1309 129.998 96.1639 129.985C96.2166 129.965 96.2627 129.945 96.3155 129.926C96.3484 129.912 96.3748 129.899 96.4077 129.88C96.4605 129.86 96.5132 129.833 96.5593 129.8C96.5857 129.787 96.6055 129.774 96.6384 129.754C96.6846 129.721 96.7373 129.688 96.7834 129.655C96.8098 129.642 96.8296 129.622 96.8559 129.609C96.9021 129.576 96.9548 129.537 97.0009 129.497C97.0141 129.477 97.0405 129.464 97.0603 129.445C97.1064 129.405 97.1525 129.352 97.1921 129.306C97.2119 129.293 97.2251 129.273 97.2448 129.26C97.2844 129.214 97.3305 129.161 97.3701 129.108C97.3832 129.089 97.403 129.069 97.4162 129.049C97.4557 129.003 97.4887 128.95 97.5282 128.891C97.5414 128.878 97.5546 128.851 97.5678 128.832C97.6007 128.779 97.6337 128.719 97.6667 128.667C97.6798 128.64 97.6864 128.621 97.6996 128.594C97.726 128.542 97.7523 128.476 97.7721 128.423C97.7853 128.397 97.7985 128.37 97.8051 128.35C97.8314 128.291 97.8446 128.232 97.8644 128.172C97.871 128.146 97.8842 128.113 97.8908 128.087C97.9105 128.027 97.9171 127.961 97.9303 127.896C97.9369 127.869 97.9501 127.843 97.9501 127.816C97.9633 127.724 97.9764 127.632 97.983 127.54L98.4576 119.518L102.933 119.782L131.519 170.027L73.378 166.553Z" fill="#FAFAFA"/>
</g>
<g filter="url(#filter5_d_729_1773)">
<mask id="mask5_729_1773" style="mask-type:luminance" maskUnits="userSpaceOnUse" x="696" y="81" width="115" height="161">
<path d="M696.953 81.3672H810.804V241.59H696.953V81.3672Z" fill="white"/>
</mask>
<g mask="url(#mask5_729_1773)">
<path d="M807.39 179.775L771.148 189.481L785.442 223.973C786.2 225.798 785.336 227.898 783.511 228.657L753.814 241.036C751.99 241.8 749.9 240.93 749.141 239.106L734.842 204.608L702.418 223.522C699.973 224.949 696.923 223.093 697.051 220.255L703.272 85.4858C703.41 82.4572 707.001 80.9615 709.239 82.9982L808.87 173.654C810.965 175.564 810.121 179.043 807.39 179.775Z" fill="#F7738D"/>
</g>
<path d="M794.147 171.011L714.751 98.765C714.03 98.1073 712.996 97.927 712.099 98.3035C711.197 98.6748 710.598 99.5341 710.55 100.51L705.596 207.916C705.554 208.834 706.015 209.709 706.806 210.186C707.591 210.669 708.577 210.674 709.373 210.213L738.715 193.102L753.847 229.625C754.102 230.241 754.595 230.734 755.21 230.989C755.518 231.111 755.841 231.174 756.17 231.174C756.494 231.174 756.828 231.111 757.135 230.983L774.087 223.913C775.371 223.383 775.975 221.908 775.445 220.619L760.307 184.096L793.102 175.312C793.988 175.074 794.682 174.368 794.895 173.472C795.107 172.576 794.826 171.631 794.147 171.011ZM756.234 179.969C755.539 180.16 754.95 180.638 754.632 181.29C754.314 181.937 754.287 182.701 754.563 183.374L769.839 220.227L757.528 225.361L742.258 188.503C741.982 187.83 741.43 187.315 740.741 187.082C740.481 186.997 740.21 186.955 739.935 186.955C739.494 186.955 739.059 187.066 738.672 187.294L710.837 203.53L715.329 106.095L787.347 171.637L756.234 179.969Z" fill="#FAFAFA"/>
</g>
<mask id="mask6_729_1773" style="mask-type:luminance" maskUnits="userSpaceOnUse" x="154" y="59" width="196" height="196">
<path d="M349.172 145.438L260.267 58.9976L154.003 168.292L242.908 254.732L349.172 145.438Z" fill="white"/>
</mask>
<g mask="url(#mask6_729_1773)">
<path d="M232.435 94.5424L208.511 198.197C205.713 210.317 209.77 222.499 218.138 230.636C222.466 234.844 227.943 237.967 234.222 239.452C252.647 243.811 271.087 232.385 275.333 213.994L299.795 108.008C301.062 102.52 297.637 97.0252 292.145 95.7249C291.025 95.4571 289.908 95.3881 288.827 95.4917C286.592 84.7976 278.366 75.7826 267.046 73.1093C259.533 71.3328 251.794 72.5835 245.258 76.6311C238.719 80.6825 234.167 87.0448 232.435 94.5424Z" fill="#AE7BEF"/>
</g>
<path d="M239.985 96.3343L216.061 199.988C214.467 206.88 215.661 213.998 219.418 220.026C220.583 221.899 221.958 223.6 223.501 225.099C226.921 228.425 231.194 230.785 235.954 231.911C250.207 235.28 264.481 226.442 267.761 212.212L292.223 106.226C292.528 104.91 291.703 103.592 290.388 103.272C289.068 102.963 287.757 103.78 287.448 105.092L262.99 211.082C260.31 222.685 248.673 229.894 237.054 227.141C231.422 225.813 226.634 222.37 223.566 217.456C220.506 212.541 219.533 206.735 220.832 201.118L244.759 97.4605C245.731 93.248 248.292 89.6798 251.958 87.4036C255.628 85.131 259.972 84.429 264.196 85.4267C268.412 86.4245 271.999 89.0039 274.298 92.6843C276.593 96.3684 277.324 100.719 276.352 104.932L259.452 178.156C258.879 180.635 257.376 182.734 255.215 184.075C253.057 185.413 250.499 185.825 248.016 185.241C245.532 184.65 243.422 183.136 242.07 180.971C240.721 178.802 240.294 176.245 240.86 173.765L255.913 108.552C256.219 107.237 255.39 105.915 254.074 105.602C252.759 105.289 251.441 106.107 251.139 107.419L236.085 172.632C234.301 180.377 239.158 188.172 246.915 190.004C250.673 190.89 254.543 190.265 257.811 188.241C261.083 186.214 263.358 183.036 264.226 179.282L281.123 106.061C282.39 100.574 281.441 94.9079 278.449 90.1103C275.461 85.3162 270.788 81.9565 265.293 80.66C259.801 79.3597 254.142 80.279 249.362 83.2375C244.582 86.1961 241.248 90.8506 239.985 96.3343Z" fill="#FAFAFA"/>
<g filter="url(#filter6_d_729_1773)">
<mask id="mask7_729_1773" style="mask-type:luminance" maskUnits="userSpaceOnUse" x="498" y="33" width="253" height="253">
<path d="M551.445 33.125L750.557 85.321L697.959 285.967L498.847 233.771L551.445 33.125Z" fill="white"/>
</mask>
<g mask="url(#mask7_729_1773)">
<path d="M707.875 214.723L688.187 222.775L693.776 237.535C695.14 241.128 693.298 245.14 689.683 246.447L634.22 266.563C630.717 267.834 626.833 266.091 625.466 262.621L611.826 228.138L610.902 228.116C608.349 228.054 605.838 228.779 603.821 230.161C603.222 230.575 602.606 230.97 601.982 231.341C593.06 236.725 582.396 238 572.609 235.039L549.608 245.034C545.947 246.629 541.701 244.784 540.369 241.016L516.718 174.07C515.443 170.471 517.343 166.518 520.958 165.27L543.13 157.597L571.843 97.8849C574.449 92.7189 578.933 88.8797 584.446 87.06C584.855 86.9256 585.267 86.8066 585.677 86.6945C598.69 64.4764 625.37 52.62 651.475 59.4633C679.744 66.8739 697.851 93.7286 695.204 121.922C701.344 127.206 704.279 135.728 702.037 144.057L694.058 173.656C698.283 172.56 702.778 172.897 706.957 174.658C712.277 176.902 716.605 181.338 718.825 186.832C723.302 197.903 718.389 210.415 707.875 214.723Z" fill="#C3D61E"/>
</g>
<path d="M711.202 189.933C709.798 186.462 707.089 183.672 703.774 182.269C700.781 181.009 697.543 180.965 694.664 182.143L681.831 187.395L694.089 141.919C696.027 134.748 691.759 127.348 684.588 125.41C684.561 125.403 684.533 125.395 684.499 125.386C681.437 124.584 678.335 124.912 675.635 126.108C675.872 123.388 675.269 120.661 673.876 118.239C672.083 115.111 669.183 112.88 665.724 111.944C665.697 111.936 665.663 111.927 665.628 111.918C662.197 111.019 658.606 111.505 655.505 113.284C653.522 114.426 651.906 116.008 650.744 117.899C648.999 115.202 646.289 113.115 642.96 112.213C638.643 111.06 634.04 112.115 630.642 115.053C630.442 115.227 630.277 115.411 630.14 115.624C628.915 115.552 627.687 115.655 626.501 115.907C627.281 113.293 627.251 110.504 626.375 107.844C625.251 104.423 622.87 101.639 619.669 100.024C616.469 98.4093 612.82 98.141 609.393 99.263C607.222 99.9751 605.314 101.195 603.793 102.81C602.63 99.818 600.402 97.2283 597.32 95.6662C590.694 92.3187 582.579 94.9864 579.231 101.612C579.219 101.631 579.209 101.643 579.203 101.664L549.1 164.277L527.457 171.773C526.797 172.002 526.262 172.477 525.965 173.109C525.662 173.733 525.622 174.447 525.851 175.107L546.755 234.269C546.993 234.954 547.509 235.499 548.172 235.79C548.296 235.844 548.416 235.89 548.546 235.925C549.115 236.074 549.713 236.025 550.25 235.793L572.334 226.194C580.601 229.65 590.019 228.964 597.75 224.299C598.229 224.007 598.714 223.695 599.178 223.378C602.661 220.982 606.798 219.775 611.139 219.888L617.514 220.059L631.74 256.02C632.057 256.821 632.731 257.378 633.505 257.581C634.005 257.712 634.543 257.699 635.054 257.511L683.107 240.079C683.763 239.841 684.294 239.351 684.585 238.717C684.875 238.083 684.904 237.358 684.657 236.708L679.057 221.909C680.131 220.214 681.027 218.414 681.725 216.533L704.769 207.098C711.092 204.509 713.983 196.805 711.202 189.933ZM611.276 214.675C605.829 214.536 600.621 216.055 596.228 219.076C595.845 219.334 595.456 219.591 595.058 219.823C588.474 223.8 580.395 224.237 573.445 220.98C572.773 220.665 571.987 220.649 571.306 220.954L550.743 229.89L531.634 175.833L551.827 168.842C551.899 168.817 551.965 168.791 552.039 168.759C552.046 168.761 552.048 168.754 552.063 168.751C552.181 168.693 552.3 168.63 552.407 168.555C552.427 168.538 552.444 168.528 552.461 168.518C552.575 168.445 552.671 168.361 552.766 168.276C552.785 168.259 552.797 168.24 552.815 168.23C552.914 168.132 552.997 168.036 553.076 167.932C553.086 167.921 553.092 167.9 553.102 167.888C553.191 167.772 553.261 167.644 553.323 167.521L553.324 167.515L583.89 103.946C585.948 99.8958 590.913 98.2692 594.972 100.322C599.031 102.374 600.67 107.35 598.614 111.423L598.612 111.429L574.607 158.936C574.452 159.246 574.368 159.568 574.342 159.891L574.013 160.53C573.361 161.815 573.879 163.386 575.167 164.031C575.334 164.119 575.509 164.179 575.687 164.226C576.852 164.531 578.105 163.996 578.669 162.877L581.041 158.184L581.045 158.171L581.059 158.145L606.227 108.323C608.281 104.257 613.255 102.625 617.315 104.678C621.381 106.732 623.019 111.708 620.967 115.767L593.401 170.319C592.75 171.605 593.268 173.176 594.555 173.821C594.724 173.902 594.897 173.969 595.075 174.016C596.24 174.321 597.495 173.779 598.057 172.667L621.973 125.335C624.025 121.276 628.999 119.644 633.067 121.691C637.126 123.744 638.765 128.719 636.71 132.786L636.709 132.792C636.707 132.799 636.705 132.806 636.705 132.806L610.988 184.886C609.573 187.743 609.714 191.089 611.361 193.826C613.014 196.566 615.905 198.246 619.095 198.336C626.372 198.53 634.763 198.775 634.77 198.777C636.914 198.834 638.919 199.733 640.409 201.309C641.928 202.915 642.725 205.013 642.658 207.221C642.519 211.775 638.747 215.383 634.247 215.265L611.276 214.675ZM702.799 202.27L678.658 212.149C677.945 212.438 677.401 213.034 677.166 213.763C676.444 216.012 675.39 218.137 674.019 220.069C674.018 220.076 674.018 220.076 674.018 220.076C669.88 225.946 663.414 229.499 656.267 229.815C654.83 229.877 653.719 231.101 653.782 232.538C653.835 233.701 654.654 234.655 655.729 234.937C655.976 235.002 656.238 235.034 656.505 235.023C663.698 234.698 670.333 231.701 675.286 226.66L678.844 236.07L635.652 251.738L623.174 220.195L634.103 220.476C641.468 220.672 647.637 214.786 647.866 207.378C647.976 203.776 646.67 200.352 644.196 197.727C641.742 195.136 638.447 193.658 634.913 193.566C634.913 193.566 626.515 193.319 619.232 193.123C617.806 193.086 616.563 192.357 615.829 191.133C615.089 189.906 615.027 188.47 615.663 187.187L641.373 135.106C641.373 135.106 641.375 135.099 641.377 135.092C644.535 128.797 642.277 121.185 636.365 117.571C637.998 116.901 639.811 116.768 641.551 117.224C641.565 117.228 641.585 117.233 641.606 117.239C646.003 118.421 648.612 122.963 647.43 127.36L634.65 175.217C634.286 176.608 635.113 178.032 636.5 178.411L636.506 178.413C637.897 178.777 639.315 177.948 639.684 176.566L652.023 130.336C652.046 130.276 652.069 130.216 652.085 130.154L654.235 122.848C654.238 122.834 654.244 122.814 654.249 122.793C654.813 120.672 656.185 118.901 658.107 117.794C660.021 116.693 662.252 116.392 664.363 116.967C666.483 117.538 668.254 118.91 669.36 120.832C670.462 122.746 670.758 124.969 670.187 127.089L668.082 134.897L668.08 134.904L668.078 134.91L656.022 180.146C655.658 181.537 656.478 182.96 657.874 183.333C657.881 183.335 657.881 183.335 657.887 183.337C659.271 183.699 660.696 182.872 661.067 181.483L673.121 136.254C674.298 131.878 678.811 129.269 683.188 130.416C683.201 130.42 683.222 130.425 683.242 130.43C687.633 131.611 690.249 136.154 689.06 140.55L676.107 188.618C672.717 187.868 669.173 188.206 665.904 189.647C661.825 191.44 658.658 194.724 656.992 198.9C656.458 200.238 657.114 201.757 658.446 202.29C658.554 202.325 658.653 202.366 658.756 202.393C660.009 202.721 661.344 202.068 661.836 200.836C662.991 197.939 665.191 195.661 668.012 194.424C670.817 193.19 673.921 193.133 676.739 194.252C677.228 194.453 677.746 194.487 678.226 194.386C678.467 194.361 678.708 194.307 678.94 194.207L696.643 186.966C698.234 186.314 700.047 186.351 701.755 187.069C703.804 187.936 705.483 189.686 706.372 191.881C708.076 196.105 706.471 200.772 702.799 202.27ZM667.95 103.369L679.384 91.8129C680.398 90.7905 682.042 90.7749 683.071 91.7914C684.096 92.7992 684.101 94.4551 683.093 95.4793L671.66 107.035C670.982 107.722 670.014 107.951 669.144 107.723C668.712 107.61 668.31 107.387 667.972 107.057C666.949 106.042 666.935 104.391 667.95 103.369ZM607.484 75.6589C607.108 74.2719 607.925 72.8316 609.312 72.4558C610.701 72.0731 612.133 72.895 612.515 74.2837L616.809 89.9627C617.192 91.3514 616.37 92.7831 614.981 93.1657C614.53 93.2963 614.064 93.2841 613.64 93.1728C612.77 92.9447 612.039 92.27 611.785 91.3396L607.484 75.6589ZM641.477 89.8333L645.6 74.106C645.964 72.7155 647.391 71.8816 648.781 72.2461C650.172 72.6106 651.006 74.0371 650.641 75.4276L646.518 91.1549C646.154 92.5454 644.727 93.3794 643.337 93.0149C641.946 92.6503 641.112 91.2238 641.477 89.8333Z" fill="#FAFAFA"/>
</g>
<g filter="url(#filter7_d_729_1773)">
<path d="M985.223 202.961L942.993 173.621C940.909 172.175 939.126 170.329 937.744 168.192L870.802 64.4135C867.713 59.629 866.65 53.9387 867.788 48.3587C868.967 42.5697 872.555 37.5472 877.514 34.3478L885.242 29.3601C895.183 22.9382 908.503 25.8182 914.936 35.782L981.896 139.584C983.296 141.749 984.248 144.176 984.706 146.714L993.817 197.41C994.694 202.276 989.276 205.771 985.223 202.961Z" fill="#A4F1EB"/>
<path d="M984.309 187.901L976.824 146.24C976.766 145.927 976.644 145.625 976.47 145.352L918.243 55.0794C918.208 55.0213 918.179 54.9632 918.139 54.9052C918.098 54.8413 918.057 54.7832 918.005 54.7252L908.494 39.9768C904.36 33.5723 895.801 31.7201 889.403 35.8485L881.384 41.0278C878.272 43.031 876.129 46.1433 875.345 49.7723C874.567 53.4013 875.247 57.1174 877.256 60.2355L945.202 165.558C945.208 165.564 945.208 165.564 945.208 165.57C945.29 165.686 945.377 165.796 945.47 165.895C945.487 165.912 945.51 165.936 945.528 165.959C945.632 166.058 945.742 166.156 945.859 166.232L980.546 190.329C980.958 190.619 981.44 190.764 981.928 190.764C982.381 190.764 982.84 190.636 983.24 190.381C984.059 189.847 984.483 188.871 984.309 187.901ZM951.607 164.31L972.696 150.7L975.378 165.611L964.027 172.938L951.607 164.31ZM897.108 82.0386L920.223 67.1103L971.082 145.95L947.966 160.878L897.108 82.0386ZM892.248 74.5193L915.369 59.591L917.581 63.0226L894.466 77.9509L892.248 74.5193ZM880.095 50.8C880.6 48.4426 881.988 46.4278 884.014 45.1213L887.997 42.5491L892.033 39.942C896.185 37.2594 901.741 38.4672 904.424 42.6188L912.733 55.4974L889.617 70.4258L881.332 57.5877C880.025 55.5671 879.59 53.1574 880.095 50.8ZM968.353 175.94L976.313 170.801L978.502 182.995L968.353 175.94ZM952.019 148.801C952.739 149.933 952.42 151.437 951.288 152.163C950.887 152.43 950.428 152.558 949.981 152.558C949.186 152.558 948.402 152.163 947.937 151.437L906.537 86.8812C905.812 85.7489 906.137 84.2451 907.263 83.5192C908.395 82.7934 909.894 83.1186 910.619 84.2509L952.019 148.801ZM961.53 145.555C961.124 145.816 960.671 145.944 960.218 145.944C959.422 145.944 958.644 145.549 958.18 144.829L916.78 80.2677C916.054 79.1354 916.379 77.6315 917.506 76.9057C918.632 76.1799 920.13 76.5051 920.856 77.6373L962.256 142.187C962.982 143.32 962.657 144.829 961.53 145.555Z" fill="#FAFAFA"/>
</g>
<g filter="url(#filter8_d_729_1773)">
<mask id="mask8_729_1773" style="mask-type:luminance" maskUnits="userSpaceOnUse" x="1057" y="112" width="163" height="139">
<path d="M1057.24 112.156H1219.97V250.871H1057.24V112.156Z" fill="white"/>
</mask>
<g mask="url(#mask8_729_1773)">
<path d="M1219.75 171.273C1219.65 186.872 1213.49 201.504 1202.41 212.466C1191.41 223.341 1176.87 229.316 1161.43 229.316C1161.3 229.316 1161.18 229.316 1161.06 229.316L1115.33 229.039C1114.48 229.033 1113.64 229.008 1112.79 228.964L1080.72 249.118C1078.84 250.293 1076.74 250.871 1074.65 250.871C1071.68 250.871 1068.73 249.708 1066.52 247.472C1062.77 243.665 1062.16 237.747 1065.05 233.242L1077.14 214.47C1064.62 203.42 1057.25 187.349 1057.35 170.28C1057.45 154.681 1063.6 140.056 1074.69 129.093C1085.77 118.13 1100.46 112.143 1116.04 112.243L1161.77 112.52C1177.35 112.614 1191.97 118.777 1202.92 129.878C1213.86 140.979 1219.84 155.68 1219.75 171.273Z" fill="#FF9683"/>
</g>
<path d="M1196.7 135.974C1187.38 126.525 1174.94 121.279 1161.68 121.198L1115.94 120.915C1102.69 120.833 1090.17 125.928 1080.74 135.258C1071.31 144.593 1066.07 157.045 1065.99 170.32C1065.88 187.364 1074.53 203.233 1088.73 212.412L1072.3 237.937C1071.6 239.018 1071.75 240.437 1072.65 241.355C1073.18 241.889 1073.89 242.165 1074.6 242.165C1075.1 242.165 1075.6 242.033 1076.06 241.744L1110.54 220.076C1112.14 220.24 1113.75 220.328 1115.33 220.334L1161.06 220.616C1161.17 220.616 1161.28 220.616 1161.38 220.616C1174.53 220.616 1186.9 215.528 1196.26 206.268C1205.7 196.938 1210.94 184.486 1211.02 171.206C1211.11 157.937 1206.02 145.416 1196.7 135.974ZM1192.41 202.372C1184.08 210.609 1173.07 215.132 1161.38 215.132C1161.29 215.132 1161.19 215.132 1161.1 215.132L1115.36 214.856C1113.67 214.843 1111.95 214.73 1110.23 214.523C1109.6 214.447 1108.98 214.592 1108.44 214.925L1083.58 230.543L1094.87 213.015C1095.28 212.38 1095.41 211.608 1095.22 210.873C1095.04 210.137 1094.57 209.516 1093.92 209.139C1079.97 201.242 1071.37 186.377 1071.46 170.357C1071.54 158.547 1076.2 147.464 1084.59 139.172C1092.92 130.929 1103.94 126.406 1115.63 126.406C1115.72 126.406 1115.82 126.406 1115.91 126.406L1161.64 126.682C1173.45 126.758 1184.51 131.425 1192.8 139.825C1201.09 148.231 1205.62 159.363 1205.54 171.18C1205.47 182.991 1200.81 194.067 1192.41 202.372Z" fill="#FAFAFA"/>
</g>
<g filter="url(#filter9_d_729_1773)">
<mask id="mask9_729_1773" style="mask-type:luminance" maskUnits="userSpaceOnUse" x="393" y="93" width="177" height="163">
<path d="M393.109 93.6797H569.224V255.192H393.109V93.6797Z" fill="white"/>
</mask>
<g mask="url(#mask9_729_1773)">
<path d="M569.147 166.497C569.258 171.216 566.769 175.588 562.651 177.922C558.533 180.251 553.485 180.133 549.479 177.625L541.224 172.46L517.456 210.149C515.722 212.905 512.471 214.317 509.269 213.716L465.475 205.486L432.467 250.792C429.897 254.328 424.931 255.115 421.382 252.551L396.426 234.518C392.877 231.954 392.085 227.012 394.667 223.476L442.091 158.36C443.893 155.889 446.965 154.669 449.98 155.232L491.955 163.122L501.671 147.714L493.633 142.686C490.016 140.426 487.607 136.574 487.422 132.325C487.18 127.024 490.19 122.219 494.946 120.07L549.615 95.3673C553.554 93.5838 558.087 93.8934 561.747 96.1847C565.406 98.476 567.654 102.415 567.76 106.719L569.147 166.497Z" fill="#109D73"/>
</g>
<path d="M559.709 106.899C559.672 105.295 558.842 103.828 557.479 102.979C556.117 102.131 554.426 102.013 552.965 102.676L498.296 127.379C496.692 128.103 495.626 129.639 495.503 131.385C495.385 133.138 496.24 134.804 497.732 135.733L512.811 145.177L495.88 172.022L450.172 163.439C449.206 163.253 448.215 163.643 447.639 164.436L402.785 226.029C401.955 227.162 402.209 228.747 403.349 229.571L423.977 244.477C424.41 244.793 424.937 244.954 425.469 244.954C425.599 244.954 425.735 244.947 425.865 244.929C426.534 244.824 427.135 244.458 427.531 243.913L461.957 196.644L508.984 205.475C510.012 205.667 511.059 205.215 511.61 204.329L538.703 161.371L553.782 170.808C555.275 171.737 557.151 171.78 558.681 170.92C560.21 170.053 561.139 168.424 561.096 166.671L559.709 106.899ZM539.254 155.729C538.684 155.37 537.991 155.258 537.334 155.401C536.672 155.549 536.102 155.958 535.743 156.528L508.216 200.168L461.313 191.356C460.347 191.176 459.362 191.566 458.78 192.359L424.899 238.879L408.402 226.951L450.816 168.727L496.642 177.335C497.67 177.527 498.717 177.075 499.274 176.196L518.484 145.734C519.233 144.545 518.874 142.978 517.679 142.235L500.94 131.757L554.625 107.5L555.987 166.207L539.254 155.729Z" fill="#FAFAFA"/>
</g>
<g filter="url(#filter10_d_729_1773)">
<mask id="mask10_729_1773" style="mask-type:luminance" maskUnits="userSpaceOnUse" x="909" y="84" width="172" height="172">
<path d="M909.422 84.4531H1080.41V255.375H909.422V84.4531Z" fill="white"/>
</mask>
<g mask="url(#mask10_729_1773)">
<path d="M1078.3 170.985L1049.38 186.404L1064.8 215.326C1065.61 216.852 1065.04 218.74 1063.51 219.55L997.886 254.541C996.366 255.351 994.473 254.78 993.663 253.254L978.238 224.338L949.322 239.757C947.796 240.567 945.908 239.996 945.099 238.47L910.101 172.843C909.291 171.317 909.868 169.424 911.388 168.614L940.31 153.195L924.885 124.273C924.076 122.753 924.652 120.859 926.173 120.05L991.805 85.0579C993.325 84.2424 995.218 84.8191 996.028 86.3395L1011.45 115.261L1040.37 99.8422C1041.89 99.0267 1043.78 99.6034 1044.59 101.13L1079.58 166.756C1080.4 168.276 1079.82 170.17 1078.3 170.985Z" fill="#97B3FB"/>
</g>
<path d="M1071.46 164.973L1041.54 108.847C1041.26 108.335 1040.8 107.956 1040.25 107.781C1039.7 107.618 1039.1 107.676 1038.58 107.944L1008.83 123.812L992.965 94.063C992.698 93.5504 992.232 93.1717 991.678 92.997C991.125 92.8339 990.525 92.8921 990.018 93.1601L933.892 123.084C933.386 123.358 933.001 123.818 932.832 124.377C932.663 124.931 932.722 125.531 932.995 126.037L948.863 155.787L919.108 171.654C918.601 171.928 918.217 172.388 918.048 172.947C917.879 173.495 917.937 174.095 918.211 174.608L948.135 230.727C948.7 231.788 950.022 232.195 951.088 231.624L980.837 215.762L996.699 245.512C997.096 246.246 997.853 246.671 998.628 246.671C998.977 246.671 999.327 246.583 999.653 246.409L1055.78 216.491C1056.29 216.217 1056.67 215.751 1056.84 215.197C1057.01 214.644 1056.95 214.044 1056.68 213.537L1040.81 183.782L1070.56 167.92C1071.63 167.349 1072.02 166.033 1071.46 164.973ZM1036.83 180.957C1035.77 181.528 1035.37 182.844 1035.93 183.91L1051.8 213.665L999.53 241.533L983.663 211.784C983.272 211.05 982.515 210.625 981.735 210.625C981.391 210.625 981.036 210.712 980.709 210.887L950.96 226.749L923.081 174.474L952.836 158.612C953.343 158.338 953.727 157.878 953.896 157.319C954.065 156.765 954.007 156.165 953.733 155.658L937.871 125.909L990.14 98.0358L1006 127.785C1006.28 128.298 1006.74 128.676 1007.3 128.851C1007.85 129.014 1008.45 128.956 1008.96 128.682L1038.71 112.82L1066.58 165.089L1036.83 180.957Z" fill="#FAFAFA"/>
<path d="M1013.41 163.059C1013.41 165.266 1011.61 167.06 1009.41 167.06C1007.2 167.06 1005.41 165.266 1005.41 163.059C1005.41 160.851 1007.2 159.063 1009.41 159.063C1011.61 159.063 1013.41 160.857 1013.41 163.059ZM976.919 162.697C974.717 162.697 972.923 164.492 972.923 166.694C972.923 168.901 974.717 170.695 976.919 170.695C979.126 170.695 980.92 168.901 980.92 166.694C980.92 164.492 979.126 162.697 976.919 162.697ZM1005.56 173.031C1004.36 173.031 1003.38 174.01 1003.38 175.216C1003.38 178.757 1000.69 181.635 997.388 181.635C994.085 181.635 991.394 178.757 991.394 175.216C991.394 174.01 990.421 173.031 989.216 173.031C988.01 173.031 987.031 174.01 987.031 175.216C987.031 181.163 991.68 185.998 997.388 185.998C1003.1 185.998 1007.74 181.163 1007.74 175.216C1007.74 174.01 1006.76 173.031 1005.56 173.031ZM981.305 148.047C977.431 145.88 972.515 147.267 970.348 151.146C969.759 152.195 970.138 153.529 971.187 154.117C971.524 154.303 971.891 154.391 972.247 154.391C973.01 154.391 973.756 153.989 974.152 153.272C975.148 151.501 977.396 150.867 979.173 151.857C980.227 152.445 981.555 152.067 982.144 151.018C982.738 149.964 982.359 148.635 981.305 148.047ZM1016.13 148.397C1013.19 145.065 1008.09 144.744 1004.77 147.68C1003.86 148.472 1003.77 149.853 1004.58 150.756C1005.37 151.665 1006.75 151.746 1007.65 150.954C1009.18 149.608 1011.51 149.754 1012.86 151.28C1013.3 151.769 1013.9 152.014 1014.5 152.014C1015.01 152.014 1015.53 151.839 1015.94 151.472C1016.84 150.68 1016.93 149.3 1016.13 148.397Z" fill="#FAFAFA"/>
</g>
<g filter="url(#filter11_d_729_1773)">
<mask id="mask11_729_1773" style="mask-type:luminance" maskUnits="userSpaceOnUse" x="104" y="132" width="236" height="115">
<path d="M104.68 132.695H339.519V246.417H104.68V132.695Z" fill="white"/>
</mask>
<g mask="url(#mask11_729_1773)">
<path d="M338.385 239.871C336.936 243.793 333.222 246.395 329.068 246.395H115.487C111.333 246.395 107.619 243.793 106.171 239.871C104.722 235.949 105.851 231.531 108.996 228.794L215.786 135.962C219.516 132.721 225.039 132.721 228.769 135.962L335.559 228.794C338.705 231.523 339.834 235.941 338.385 239.871Z" fill="#FB8104"/>
</g>
<path d="M331.022 234.643L224.24 141.812C223.399 141.084 222.151 141.084 221.31 141.812L114.528 234.643C113.816 235.259 113.568 236.252 113.888 237.132C114.216 238.013 115.048 238.605 115.985 238.605H329.565C330.502 238.605 331.334 238.013 331.662 237.132C331.991 236.252 331.735 235.259 331.022 234.643ZM122.004 234.099L222.783 146.502L323.554 234.099H122.004Z" fill="#FAFAFA"/>
<path d="M192.688 186.868C192.688 185.619 193.688 184.619 194.929 184.619C196.161 184.619 197.162 185.619 197.162 186.868C197.162 189.069 198.939 190.854 201.116 190.854C203.301 190.854 205.078 189.069 205.078 186.868C205.078 185.619 206.07 184.619 207.311 184.619C208.552 184.619 209.552 185.619 209.552 186.868C209.552 191.55 205.766 195.36 201.116 195.36C196.473 195.36 192.688 191.55 192.688 186.868ZM241.232 195.36C245.875 195.36 249.66 191.55 249.66 186.868C249.66 185.619 248.66 184.619 247.427 184.619C246.187 184.619 245.186 185.619 245.186 186.868C245.186 189.069 243.409 190.854 241.232 190.854C239.047 190.854 237.278 189.069 237.278 186.868C237.278 185.619 236.278 184.619 235.037 184.619C233.804 184.619 232.804 185.619 232.804 186.868C232.796 191.55 236.582 195.36 241.232 195.36ZM215.331 200.179C215.707 200.451 216.155 200.579 216.604 200.579C217.02 200.579 217.444 200.459 217.804 200.227L226.273 194.8C227.313 194.136 227.625 192.743 226.961 191.695C226.297 190.638 224.912 190.334 223.871 190.998L219.901 193.543L221.678 185.131C221.934 183.915 221.166 182.714 219.957 182.458C218.749 182.194 217.564 182.97 217.308 184.187L214.411 197.858C214.226 198.746 214.587 199.659 215.331 200.179ZM252.438 199.603C251.493 198.81 250.085 198.938 249.284 199.891C245.202 204.821 235.061 208.143 224.047 208.143C213.09 208.143 202.965 204.845 198.851 199.939C198.058 198.986 196.65 198.866 195.705 199.667C194.761 200.467 194.64 201.892 195.433 202.844C200.419 208.799 211.657 212.641 224.047 212.641C236.502 212.641 247.756 208.775 252.718 202.78C253.51 201.828 253.382 200.403 252.438 199.603Z" fill="#FAFAFA"/>
</g>
<g filter="url(#filter12_d_729_1773)">
<mask id="mask12_729_1773" style="mask-type:luminance" maskUnits="userSpaceOnUse" x="778" y="84" width="194" height="163">
<path d="M778.039 84.4531H971.443V246.255H778.039V84.4531Z" fill="white"/>
</mask>
<g mask="url(#mask12_729_1773)">
<path d="M971.114 167.44L968.25 242.349C968.164 244.529 966.327 246.227 964.148 246.148L782.108 239.176C779.929 239.097 778.23 237.26 778.316 235.081L783.925 88.3097C784.011 86.1305 785.847 84.4253 788.027 84.5109L857.452 87.1707C859.638 87.2497 861.336 89.0866 861.251 91.2658L860.026 123.243L912.387 125.251C914.566 125.33 916.265 127.167 916.179 129.346L914.954 161.323L967.308 163.331C969.494 163.424 971.199 165.254 971.114 167.44Z" fill="#FFD355"/>
</g>
<path d="M960.445 171.094L906.662 169.033L907.94 135.628C907.966 134.963 907.729 134.311 907.275 133.817C906.82 133.323 906.188 133.034 905.517 133.007L851.734 130.947L853.012 97.5473C853.064 96.1515 851.985 94.9796 850.582 94.9203L794.285 92.7675C792.902 92.7148 791.717 93.8011 791.664 95.1969L786.549 228.827C786.522 229.498 786.766 230.15 787.22 230.644C787.675 231.138 788.307 231.428 788.972 231.454L901.573 235.76C901.58 235.76 901.593 235.76 901.6 235.76L957.877 237.919C957.91 237.919 957.943 237.919 957.976 237.919C958.608 237.919 959.227 237.675 959.694 237.241C960.188 236.787 960.478 236.155 960.498 235.49L962.868 173.708C962.921 172.319 961.834 171.14 960.445 171.094ZM955.553 232.771L901.771 230.716C901.764 230.716 901.758 230.716 901.744 230.716L791.691 226.503L796.609 97.9094L847.863 99.8713L846.586 133.277C846.533 134.666 847.62 135.845 849.015 135.898L902.798 137.958L901.521 171.364C901.494 172.029 901.731 172.681 902.186 173.175C902.64 173.668 903.272 173.958 903.943 173.984L957.726 176.045L955.553 232.771Z" fill="#FAFAFA"/>
<path d="M857.46 203.853C857.354 206.638 856.077 209.199 853.865 211.062C851.837 212.767 849.243 213.695 846.511 213.695C846.36 213.695 846.208 213.689 846.05 213.689C843.153 213.577 840.461 212.431 838.459 210.469C836.398 208.448 835.319 205.795 835.424 203.01C835.477 201.621 836.655 200.515 838.044 200.58C839.44 200.64 840.526 201.812 840.474 203.201C840.421 204.544 840.961 205.847 841.995 206.861C843.094 207.948 844.608 208.573 846.241 208.639C847.887 208.705 849.434 208.185 850.613 207.197C851.725 206.262 852.364 205.005 852.41 203.662C852.469 202.266 853.648 201.186 855.03 201.232C856.426 201.285 857.512 202.463 857.46 203.853ZM857.828 190.402C858.065 191.185 857.914 192.035 857.42 192.68C856.94 193.305 856.202 193.674 855.419 193.674C855.386 193.674 855.353 193.674 855.32 193.674L838.334 193.022C837.518 192.989 836.76 192.568 836.313 191.877C835.865 191.192 835.779 190.336 836.076 189.572L845.497 165.726C845.892 164.732 846.873 164.087 847.94 164.133C849.006 164.172 849.941 164.883 850.257 165.911L857.828 190.402ZM851.956 188.493L847.558 174.265L842.093 188.117L851.956 188.493ZM824.212 174.167C822.816 174.12 821.644 175.2 821.592 176.596C821.545 177.689 821.085 178.703 820.281 179.447C819.478 180.191 818.431 180.573 817.345 180.533C815.087 180.441 813.322 178.538 813.408 176.287C813.461 174.891 812.374 173.719 810.979 173.66C809.589 173.607 808.411 174.7 808.358 176.089C808.167 181.126 812.104 185.385 817.148 185.576C817.266 185.583 817.385 185.589 817.503 185.589C819.814 185.589 822.006 184.727 823.711 183.147C825.502 181.488 826.543 179.229 826.635 176.787C826.687 175.391 825.601 174.219 824.212 174.167ZM884.078 176.458C882.669 176.398 881.51 177.491 881.451 178.887C881.365 181.139 879.456 182.903 877.204 182.818C876.111 182.778 875.098 182.317 874.354 181.514C873.61 180.711 873.228 179.664 873.267 178.571C873.32 177.175 872.24 176.003 870.838 175.944C869.449 175.898 868.27 176.984 868.218 178.374C868.125 180.816 868.988 183.147 870.647 184.944C872.306 186.735 874.564 187.775 877.007 187.867C877.125 187.874 877.244 187.874 877.356 187.874C882.241 187.874 886.303 183.996 886.494 179.078C886.553 177.682 885.467 176.51 884.078 176.458ZM880.983 165.14C882.057 165.14 883.057 164.442 883.393 163.363C883.808 162.033 883.064 160.611 881.734 160.202L869.416 156.377C868.086 155.963 866.67 156.7 866.256 158.036C865.847 159.366 866.585 160.788 867.921 161.197L880.233 165.022C880.483 165.107 880.733 165.14 880.983 165.14ZM827.128 154.751L814.554 157.628C813.197 157.938 812.348 159.294 812.657 160.657C812.927 161.822 813.968 162.619 815.113 162.619C815.304 162.619 815.488 162.592 815.679 162.553L828.248 159.676C829.611 159.366 830.46 158.01 830.15 156.654C829.841 155.291 828.491 154.442 827.128 154.751Z" fill="#FAFAFA"/>
</g>
<g filter="url(#filter13_d_729_1773)">
<mask id="mask13_729_1773" style="mask-type:luminance" maskUnits="userSpaceOnUse" x="1151" y="72" width="188" height="188">
<path d="M1151.67 72.125H1339V259.128H1151.67V72.125Z" fill="white"/>
</mask>
<g mask="url(#mask13_729_1773)">
<path d="M1337.12 174.262L1242.71 257.927C1241 259.452 1238.37 259.292 1236.85 257.57L1153.19 163.166C1151.66 161.451 1151.82 158.824 1153.54 157.3L1247.94 73.6407C1249.66 72.1166 1252.29 72.2761 1253.81 73.9914L1337.47 168.395C1339 170.111 1338.83 172.745 1337.12 174.262Z" fill="#A2A53E"/>
</g>
<path d="M1328.08 169.106L1251.99 83.2473C1251.12 82.2716 1249.62 82.1823 1248.64 83.0496L1162.79 159.133C1161.81 160 1161.72 161.499 1162.59 162.474L1238.68 248.333C1239.14 248.862 1239.79 249.13 1240.45 249.13C1241.01 249.13 1241.57 248.933 1242.02 248.537L1327.88 172.448C1328.85 171.58 1328.94 170.082 1328.08 169.106ZM1240.65 243.423L1167.7 161.11L1250.02 88.1639L1322.96 170.477L1240.65 243.423Z" fill="#FAFAFA"/>
<path d="M1277.42 156.016L1235.68 157.833C1235.06 157.865 1234.46 158.139 1234.04 158.598C1233.61 159.064 1233.39 159.676 1233.42 160.301C1233.96 172.768 1244.28 182.55 1256.64 182.55C1256.99 182.55 1257.33 182.544 1257.67 182.525C1263.88 182.257 1269.61 179.585 1273.81 175.006C1278 170.421 1280.17 164.484 1279.9 158.279C1279.83 156.972 1278.72 155.965 1277.42 156.016ZM1270.31 171.805C1266.97 175.453 1262.41 177.582 1257.46 177.799C1248.06 178.207 1239.97 171.499 1238.4 162.456L1275.12 160.856C1274.78 164.924 1273.11 168.744 1270.31 171.805ZM1268.36 149.135C1266 149.135 1264.06 147.241 1264.01 144.875C1263.99 143.715 1264.42 142.618 1265.22 141.782C1266.03 140.947 1267.11 140.469 1268.27 140.45C1269.43 140.43 1270.53 140.858 1271.37 141.661C1272.21 142.465 1272.67 143.549 1272.7 144.703C1272.74 147.094 1270.84 149.084 1268.44 149.129C1268.41 149.135 1268.38 149.135 1268.36 149.135ZM1231.48 145.506C1231.51 146.667 1231.08 147.764 1230.27 148.599C1229.47 149.435 1228.39 149.913 1227.23 149.932C1227.21 149.932 1227.18 149.932 1227.15 149.932C1224.79 149.932 1222.85 148.038 1222.81 145.672C1222.78 144.512 1223.21 143.415 1224.02 142.579C1224.82 141.744 1225.9 141.266 1227.06 141.247C1229.45 141.215 1231.44 143.115 1231.48 145.506ZM1220.18 128.793C1219.55 129.934 1218.11 130.355 1216.97 129.724C1215.82 129.092 1215.41 127.657 1216.03 126.51C1218.61 121.823 1223.72 119.01 1229.05 119.329C1234.39 119.648 1239.12 123.06 1241.11 128.027C1241.6 129.239 1241.01 130.616 1239.8 131.101C1239.51 131.216 1239.21 131.273 1238.92 131.273C1237.98 131.273 1237.09 130.712 1236.72 129.787C1235.41 126.516 1232.28 124.265 1228.77 124.055C1225.25 123.844 1221.89 125.7 1220.18 128.793ZM1280.17 133.537C1279.88 133.652 1279.58 133.709 1279.29 133.709C1278.34 133.709 1277.46 133.148 1277.09 132.223C1275.77 128.952 1272.65 126.701 1269.13 126.49C1265.61 126.274 1262.25 128.136 1260.54 131.222C1259.91 132.37 1258.48 132.785 1257.33 132.16C1256.19 131.528 1255.77 130.093 1256.39 128.946C1258.98 124.259 1264.07 121.44 1269.41 121.759C1274.75 122.084 1279.48 125.496 1281.48 130.457C1281.97 131.669 1281.38 133.052 1280.17 133.537ZM1243.01 149.836L1246.31 133.078C1246.57 131.796 1247.82 130.961 1249.1 131.209C1250.38 131.464 1251.21 132.708 1250.96 133.99L1247.66 150.748C1247.43 151.877 1246.44 152.661 1245.33 152.661C1245.18 152.661 1245.03 152.642 1244.87 152.617C1243.59 152.368 1242.75 151.118 1243.01 149.836Z" fill="#FAFAFA"/>
</g>
<defs>
<filter id="filter0_d_729_1773" x="1035.23" y="0.117188" width="137.492" height="185.523" filterUnits="userSpaceOnUse" color-interpolation-filters="sRGB">
<feFlood flood-opacity="0" result="BackgroundImageFix"/>
<feColorMatrix in="SourceAlpha" type="matrix" values="0 0 0 0 0 0 0 0 0 0 0 0 0 0 0 0 0 0 127 0" result="hardAlpha"/>
<feOffset dx="4" dy="6"/>
<feGaussianBlur stdDeviation="5"/>
<feComposite in2="hardAlpha" operator="out"/>
<feColorMatrix type="matrix" values="0 0 0 0 0 0 0 0 0 0 0 0 0 0 0 0 0 0 0.15 0"/>
<feBlend mode="normal" in2="BackgroundImageFix" result="effect1_dropShadow_729_1773"/>
<feBlend mode="normal" in="SourceGraphic" in2="effect1_dropShadow_729_1773" result="shape"/>
</filter>
<filter id="filter1_d_729_1773" x="76.0469" y="16.2656" width="134.336" height="210.25" filterUnits="userSpaceOnUse" color-interpolation-filters="sRGB">
<feFlood flood-opacity="0" result="BackgroundImageFix"/>
<feColorMatrix in="SourceAlpha" type="matrix" values="0 0 0 0 0 0 0 0 0 0 0 0 0 0 0 0 0 0 127 0" result="hardAlpha"/>
<feOffset dx="4" dy="6"/>
<feGaussianBlur stdDeviation="5"/>
<feComposite in2="hardAlpha" operator="out"/>
<feColorMatrix type="matrix" values="0 0 0 0 0 0 0 0 0 0 0 0 0 0 0 0 0 0 0.15 0"/>
<feBlend mode="normal" in2="BackgroundImageFix" result="effect1_dropShadow_729_1773"/>
<feBlend mode="normal" in="SourceGraphic" in2="effect1_dropShadow_729_1773" result="shape"/>
</filter>
<filter id="filter2_d_729_1773" x="338.133" y="30.7188" width="194.453" height="175.102" filterUnits="userSpaceOnUse" color-interpolation-filters="sRGB">
<feFlood flood-opacity="0" result="BackgroundImageFix"/>
<feColorMatrix in="SourceAlpha" type="matrix" values="0 0 0 0 0 0 0 0 0 0 0 0 0 0 0 0 0 0 127 0" result="hardAlpha"/>
<feOffset dx="4" dy="6"/>
<feGaussianBlur stdDeviation="5"/>
<feComposite in2="hardAlpha" operator="out"/>
<feColorMatrix type="matrix" values="0 0 0 0 0 0 0 0 0 0 0 0 0 0 0 0 0 0 0.15 0"/>
<feBlend mode="normal" in2="BackgroundImageFix" result="effect1_dropShadow_729_1773"/>
<feBlend mode="normal" in="SourceGraphic" in2="effect1_dropShadow_729_1773" result="shape"/>
</filter>
<filter id="filter3_d_729_1773" x="270.195" y="95.9375" width="148.164" height="185.883" filterUnits="userSpaceOnUse" color-interpolation-filters="sRGB">
<feFlood flood-opacity="0" result="BackgroundImageFix"/>
<feColorMatrix in="SourceAlpha" type="matrix" values="0 0 0 0 0 0 0 0 0 0 0 0 0 0 0 0 0 0 127 0" result="hardAlpha"/>
<feOffset dx="4" dy="6"/>
<feGaussianBlur stdDeviation="5"/>
<feComposite in2="hardAlpha" operator="out"/>
<feColorMatrix type="matrix" values="0 0 0 0 0 0 0 0 0 0 0 0 0 0 0 0 0 0 0.15 0"/>
<feBlend mode="normal" in2="BackgroundImageFix" result="effect1_dropShadow_729_1773"/>
<feBlend mode="normal" in="SourceGraphic" in2="effect1_dropShadow_729_1773" result="shape"/>
</filter>
<filter id="filter4_d_729_1773" x="-43.0703" y="76.5469" width="210.922" height="181.703" filterUnits="userSpaceOnUse" color-interpolation-filters="sRGB">
<feFlood flood-opacity="0" result="BackgroundImageFix"/>
<feColorMatrix in="SourceAlpha" type="matrix" values="0 0 0 0 0 0 0 0 0 0 0 0 0 0 0 0 0 0 127 0" result="hardAlpha"/>
<feOffset dx="4" dy="6"/>
<feGaussianBlur stdDeviation="5"/>
<feComposite in2="hardAlpha" operator="out"/>
<feColorMatrix type="matrix" values="0 0 0 0 0 0 0 0 0 0 0 0 0 0 0 0 0 0 0.15 0"/>
<feBlend mode="normal" in2="BackgroundImageFix" result="effect1_dropShadow_729_1773"/>
<feBlend mode="normal" in="SourceGraphic" in2="effect1_dropShadow_729_1773" result="shape"/>
</filter>
<filter id="filter5_d_729_1773" x="691.047" y="78.0625" width="132.992" height="179.25" filterUnits="userSpaceOnUse" color-interpolation-filters="sRGB">
<feFlood flood-opacity="0" result="BackgroundImageFix"/>
<feColorMatrix in="SourceAlpha" type="matrix" values="0 0 0 0 0 0 0 0 0 0 0 0 0 0 0 0 0 0 127 0" result="hardAlpha"/>
<feOffset dx="4" dy="6"/>
<feGaussianBlur stdDeviation="5"/>
<feComposite in2="hardAlpha" operator="out"/>
<feColorMatrix type="matrix" values="0 0 0 0 0 0 0 0 0 0 0 0 0 0 0 0 0 0 0.15 0"/>
<feBlend mode="normal" in2="BackgroundImageFix" result="effect1_dropShadow_729_1773"/>
<feBlend mode="normal" in="SourceGraphic" in2="effect1_dropShadow_729_1773" result="shape"/>
</filter>
<filter id="filter6_d_729_1773" x="510.32" y="53.5312" width="224.164" height="229.445" filterUnits="userSpaceOnUse" color-interpolation-filters="sRGB">
<feFlood flood-opacity="0" result="BackgroundImageFix"/>
<feColorMatrix in="SourceAlpha" type="matrix" values="0 0 0 0 0 0 0 0 0 0 0 0 0 0 0 0 0 0 127 0" result="hardAlpha"/>
<feOffset dx="4" dy="6"/>
<feGaussianBlur stdDeviation="5"/>
<feComposite in2="hardAlpha" operator="out"/>
<feColorMatrix type="matrix" values="0 0 0 0 0 0 0 0 0 0 0 0 0 0 0 0 0 0 0.15 0"/>
<feBlend mode="normal" in2="BackgroundImageFix" result="effect1_dropShadow_729_1773"/>
<feBlend mode="normal" in="SourceGraphic" in2="effect1_dropShadow_729_1773" result="shape"/>
</filter>
<filter id="filter7_d_729_1773" x="861.344" y="21.9375" width="146.57" height="198.023" filterUnits="userSpaceOnUse" color-interpolation-filters="sRGB">
<feFlood flood-opacity="0" result="BackgroundImageFix"/>
<feColorMatrix in="SourceAlpha" type="matrix" values="0 0 0 0 0 0 0 0 0 0 0 0 0 0 0 0 0 0 127 0" result="hardAlpha"/>
<feOffset dx="4" dy="6"/>
<feGaussianBlur stdDeviation="5"/>
<feComposite in2="hardAlpha" operator="out"/>
<feColorMatrix type="matrix" values="0 0 0 0 0 0 0 0 0 0 0 0 0 0 0 0 0 0 0.15 0"/>
<feBlend mode="normal" in2="BackgroundImageFix" result="effect1_dropShadow_729_1773"/>
<feBlend mode="normal" in="SourceGraphic" in2="effect1_dropShadow_729_1773" result="shape"/>
</filter>
<filter id="filter8_d_729_1773" x="1051.35" y="108.242" width="182.398" height="158.625" filterUnits="userSpaceOnUse" color-interpolation-filters="sRGB">
<feFlood flood-opacity="0" result="BackgroundImageFix"/>
<feColorMatrix in="SourceAlpha" type="matrix" values="0 0 0 0 0 0 0 0 0 0 0 0 0 0 0 0 0 0 127 0" result="hardAlpha"/>
<feOffset dx="4" dy="6"/>
<feGaussianBlur stdDeviation="5"/>
<feComposite in2="hardAlpha" operator="out"/>
<feColorMatrix type="matrix" values="0 0 0 0 0 0 0 0 0 0 0 0 0 0 0 0 0 0 0.15 0"/>
<feBlend mode="normal" in2="BackgroundImageFix" result="effect1_dropShadow_729_1773"/>
<feBlend mode="normal" in="SourceGraphic" in2="effect1_dropShadow_729_1773" result="shape"/>
</filter>
<filter id="filter9_d_729_1773" x="387.148" y="90.2188" width="196" height="179.836" filterUnits="userSpaceOnUse" color-interpolation-filters="sRGB">
<feFlood flood-opacity="0" result="BackgroundImageFix"/>
<feColorMatrix in="SourceAlpha" type="matrix" values="0 0 0 0 0 0 0 0 0 0 0 0 0 0 0 0 0 0 127 0" result="hardAlpha"/>
<feOffset dx="4" dy="6"/>
<feGaussianBlur stdDeviation="5"/>
<feComposite in2="hardAlpha" operator="out"/>
<feColorMatrix type="matrix" values="0 0 0 0 0 0 0 0 0 0 0 0 0 0 0 0 0 0 0.15 0"/>
<feBlend mode="normal" in2="BackgroundImageFix" result="effect1_dropShadow_729_1773"/>
<feBlend mode="normal" in="SourceGraphic" in2="effect1_dropShadow_729_1773" result="shape"/>
</filter>
<filter id="filter10_d_729_1773" x="903.734" y="80.6875" width="190.219" height="190.219" filterUnits="userSpaceOnUse" color-interpolation-filters="sRGB">
<feFlood flood-opacity="0" result="BackgroundImageFix"/>
<feColorMatrix in="SourceAlpha" type="matrix" values="0 0 0 0 0 0 0 0 0 0 0 0 0 0 0 0 0 0 127 0" result="hardAlpha"/>
<feOffset dx="4" dy="6"/>
<feGaussianBlur stdDeviation="5"/>
<feComposite in2="hardAlpha" operator="out"/>
<feColorMatrix type="matrix" values="0 0 0 0 0 0 0 0 0 0 0 0 0 0 0 0 0 0 0.15 0"/>
<feBlend mode="normal" in2="BackgroundImageFix" result="effect1_dropShadow_729_1773"/>
<feBlend mode="normal" in="SourceGraphic" in2="effect1_dropShadow_729_1773" result="shape"/>
</filter>
<filter id="filter11_d_729_1773" x="99.5469" y="129.531" width="253.461" height="132.867" filterUnits="userSpaceOnUse" color-interpolation-filters="sRGB">
<feFlood flood-opacity="0" result="BackgroundImageFix"/>
<feColorMatrix in="SourceAlpha" type="matrix" values="0 0 0 0 0 0 0 0 0 0 0 0 0 0 0 0 0 0 127 0" result="hardAlpha"/>
<feOffset dx="4" dy="6"/>
<feGaussianBlur stdDeviation="5"/>
<feComposite in2="hardAlpha" operator="out"/>
<feColorMatrix type="matrix" values="0 0 0 0 0 0 0 0 0 0 0 0 0 0 0 0 0 0 0.15 0"/>
<feBlend mode="normal" in2="BackgroundImageFix" result="effect1_dropShadow_729_1773"/>
<feBlend mode="normal" in="SourceGraphic" in2="effect1_dropShadow_729_1773" result="shape"/>
</filter>
<filter id="filter12_d_729_1773" x="772.312" y="80.5078" width="212.805" height="181.641" filterUnits="userSpaceOnUse" color-interpolation-filters="sRGB">
<feFlood flood-opacity="0" result="BackgroundImageFix"/>
<feColorMatrix in="SourceAlpha" type="matrix" values="0 0 0 0 0 0 0 0 0 0 0 0 0 0 0 0 0 0 127 0" result="hardAlpha"/>
<feOffset dx="4" dy="6"/>
<feGaussianBlur stdDeviation="5"/>
<feComposite in2="hardAlpha" operator="out"/>
<feColorMatrix type="matrix" values="0 0 0 0 0 0 0 0 0 0 0 0 0 0 0 0 0 0 0.15 0"/>
<feBlend mode="normal" in2="BackgroundImageFix" result="effect1_dropShadow_729_1773"/>
<feBlend mode="normal" in="SourceGraphic" in2="effect1_dropShadow_729_1773" result="shape"/>
</filter>
<filter id="filter13_d_729_1773" x="1146.14" y="68.5938" width="206.375" height="206.383" filterUnits="userSpaceOnUse" color-interpolation-filters="sRGB">
<feFlood flood-opacity="0" result="BackgroundImageFix"/>
<feColorMatrix in="SourceAlpha" type="matrix" values="0 0 0 0 0 0 0 0 0 0 0 0 0 0 0 0 0 0 127 0" result="hardAlpha"/>
<feOffset dx="4" dy="6"/>
<feGaussianBlur stdDeviation="5"/>
<feComposite in2="hardAlpha" operator="out"/>
<feColorMatrix type="matrix" values="0 0 0 0 0 0 0 0 0 0 0 0 0 0 0 0 0 0 0.15 0"/>
<feBlend mode="normal" in2="BackgroundImageFix" result="effect1_dropShadow_729_1773"/>
<feBlend mode="normal" in="SourceGraphic" in2="effect1_dropShadow_729_1773" result="shape"/>
</filter>
</defs>
</svg>
