<svg width="14" height="15" viewBox="0 0 14 15" fill="none" xmlns="http://www.w3.org/2000/svg">
<path d="M0.819092 10.8975V11.8484C0.819092 12.3528 1.01946 12.8365 1.37613 13.1932C1.7328 13.5499 2.21654 13.7502 2.72094 13.7502H11.2793C11.7837 13.7502 12.2674 13.5499 12.6241 13.1932C12.9808 12.8365 13.1811 12.3528 13.1811 11.8484V10.8975" fill="white"/>
<path d="M0.819092 10.8975V11.8484C0.819092 12.3528 1.01946 12.8365 1.37613 13.1932C1.7328 13.5499 2.21654 13.7502 2.72094 13.7502H11.2793C11.7837 13.7502 12.2674 13.5499 12.6241 13.1932C12.9808 12.8365 13.1811 12.3528 13.1811 11.8484V10.8975" stroke="#0C0C0C" stroke-linecap="round" stroke-linejoin="round"/>
<path d="M6.99991 6.4003C6.29004 6.4003 5.25332 6.29275 4.45941 6.19525C3.85289 6.12077 3.46673 5.5126 3.70834 4.95132C4.29136 3.59688 5.19291 2.34088 6.55334 1.50161C6.82717 1.33268 7.17267 1.33266 7.44651 1.50158C8.80697 2.34077 9.7085 3.59681 10.2915 4.95124C10.5331 5.51251 10.147 6.12067 9.54047 6.19517C8.74655 6.2927 7.70981 6.4003 6.99991 6.4003Z" fill="white" stroke="#0C0C0C" stroke-linecap="round" stroke-linejoin="round"/>
<path d="M7 6.40039L7 10.8973" stroke="#0C0C0C" stroke-linecap="round" stroke-linejoin="round"/>
</svg>
