<svg width="15" height="20" viewBox="0 0 15 20" fill="none" xmlns="http://www.w3.org/2000/svg">
<path d="M6.31193 0.782859C6.22832 0.732915 6.13274 0.706543 6.03535 0.706543C5.93796 0.706543 5.84239 0.732915 5.75878 0.782859C5.68981 0.837501 5.64328 0.915536 5.62799 1.00219C5.6127 1.08884 5.62971 1.17808 5.67581 1.25303C7.37673 4.19853 7.73628 8.20884 5.41306 10.4214C4.51922 9.67027 3.80959 8.7241 3.33877 7.65569C2.47964 8.13285 1.76763 8.83624 1.28005 9.6895C0.792476 10.5428 0.547957 11.5133 0.573042 12.4957C0.718712 16.093 3.03454 18.7186 7.48736 18.7186C11.9402 18.7186 14.2496 15.9529 14.4017 12.4957C14.5814 8.34712 11.636 3.24436 6.31193 0.782859Z" fill="#3E3E3E"/>
<path d="M6.31193 0.782859C6.22832 0.732915 6.13274 0.706543 6.03535 0.706543C5.93796 0.706543 5.84239 0.732915 5.75878 0.782859C5.68981 0.837501 5.64328 0.915536 5.62799 1.00219C5.6127 1.08884 5.62971 1.17808 5.67581 1.25303C7.37673 4.19853 7.73628 8.20884 5.41306 10.4214C4.51922 9.67027 3.80959 8.7241 3.33877 7.65569C2.47964 8.13285 1.76763 8.83624 1.28005 9.6895C0.792476 10.5428 0.547957 11.5133 0.573042 12.4957C0.718712 16.093 3.03454 18.7186 7.48736 18.7186C11.9402 18.7186 14.2496 15.9529 14.4017 12.4957C14.5814 8.34712 11.636 3.24436 6.31193 0.782859Z" stroke="#FAFAFA" stroke-linecap="round" stroke-linejoin="round"/>
<path d="M10.9444 12.4956C10.9444 13.2291 10.653 13.9326 10.1344 14.4513C9.6157 14.9699 8.91223 15.2613 8.17871 15.2613" fill="#3E3E3E"/>
<path d="M10.9444 12.4956C10.9444 13.2291 10.653 13.9326 10.1344 14.4513C9.6157 14.9699 8.91223 15.2613 8.17871 15.2613" stroke="#FAFAFA" stroke-linecap="round" stroke-linejoin="round"/>
</svg>
