<svg width="79" height="31" viewBox="0 0 79 31" fill="none" xmlns="http://www.w3.org/2000/svg">
<g clip-path="url(#clip0_149_392)">
<path d="M0 15.0604L0.00105215 15.5114H0.00631287C0.115385 19.2301 1.58208 22.7502 4.15352 25.4503C6.82246 28.2529 10.4155 29.9062 14.271 30.1061L15.3259 30.1608V30.1264H21.7229C23.9675 30.1264 26.0778 29.2525 27.6648 27.6651C29.0936 26.2363 29.9532 24.3596 30.1022 22.3563H30.1261V0H0V15.0604ZM2.00609 15.0618C2.00644 11.6942 3.28515 8.49748 5.60653 6.06001C6.4479 5.17656 7.40395 4.41656 8.44873 3.8014L9.36936 3.3083C10.6172 2.70296 11.945 2.3042 13.3202 2.12113V28.005C11.9054 27.8166 10.5432 27.4014 9.26695 26.7687C7.90021 26.0911 6.66885 25.1817 5.60653 24.0664C3.28515 21.629 2.00644 18.4318 2.00609 15.0618ZM21.7233 14.0602C19.934 14.0602 18.3084 13.5081 17.1454 12.5062C15.9551 11.4803 15.3263 10.0617 15.3263 8.40314C15.3263 4.87564 18.1958 2.00609 21.7233 2.00609C25.2508 2.00609 28.1203 4.87564 28.1203 8.40314V16.5839C27.9587 16.4152 27.7886 16.2539 27.6108 16.1006C26.0837 14.7847 23.9931 14.0598 21.7233 14.0598V14.0602ZM21.7233 16.0663C23.5123 16.0663 25.1382 16.6183 26.3012 17.6206C27.4912 18.6465 28.1203 20.0651 28.1203 21.7236C28.1203 25.2511 25.2508 28.1207 21.7233 28.1207V28.3837L21.7215 28.1207C18.1951 28.1196 15.3263 25.2501 15.3263 21.7236V13.5429C15.4879 13.7116 15.658 13.8729 15.8358 14.0262C17.3629 15.342 19.4535 16.067 21.7233 16.067V16.0663Z" fill="#969696"/>
<path d="M37.4332 9.05183H38.3149V3.94717H40.1309V3.17139H35.6084V3.94717H37.4332V9.05183Z" fill="#969696"/>
<path d="M41.9293 6.42462H45.1825V9.05183H46.0639V3.17139H45.1825V5.64007H41.9293V3.17139H41.0476V9.05183H41.9293V6.42462Z" fill="#969696"/>
<path d="M51.3184 8.27605H48.2504V6.44216H51.2567V5.66637H48.2504V3.94717H51.3184V3.17139H47.3687V9.05183H51.3184V8.27605Z" fill="#969696"/>
<path d="M40.0163 15.73C39.8224 16.1971 39.3198 16.585 38.7555 16.585C37.7945 16.585 37.1159 15.8443 37.1159 14.8837C37.1159 13.9231 37.7949 13.1824 38.7555 13.1824C39.3198 13.1824 39.8224 13.5703 40.0163 14.0374L41.321 13.4114C40.9419 12.6444 40.1748 11.8423 38.7555 11.8423C36.9483 11.8423 35.5728 13.0677 35.5728 14.8837C35.5728 16.6997 36.9479 17.9251 38.7555 17.9251C40.1748 17.9251 40.9419 17.0964 41.321 16.3469L40.0163 15.7296V15.73Z" fill="#969696"/>
<path d="M41.9733 11.939V17.8194H43.4897V15.8445H44.2655L45.2528 17.8194H46.9895L45.7904 15.6594C46.346 15.4654 46.9629 14.9186 46.9629 13.896C46.9629 12.8028 46.2222 11.939 44.9175 11.939H41.9729H41.9733ZM45.4204 13.8872C45.4204 14.3014 45.0943 14.522 44.6888 14.522H43.4897V13.2612H44.6888C45.0943 13.2612 45.4204 13.4814 45.4204 13.8872Z" fill="#969696"/>
<path d="M47.8008 17.8194H52.1118V16.4969H49.3169V15.5008H52.05V14.1783H49.3169V13.2615H52.1118V11.939H47.8008V17.8194Z" fill="#969696"/>
<path d="M54.3774 16.9731H56.696L56.9867 17.8194H58.7059L56.4932 11.939H54.5801L52.3674 17.8194H54.0866L54.3774 16.9731ZM55.5411 13.4379L56.2818 15.6506H54.7919L55.5414 13.4379H55.5411Z" fill="#969696"/>
<path d="M59.9051 17.8194H61.4212V13.2615H63.0611V11.939H58.2563V13.2615H59.9051V17.8194Z" fill="#969696"/>
<path d="M65.3004 11.939H63.7839V17.8194H65.3004V11.939Z" fill="#969696"/>
<path d="M69.858 17.8194L72.0707 11.939H70.3518L68.9058 16.1795L67.4514 11.939H65.7322L67.9448 17.8194H69.858Z" fill="#969696"/>
<path d="M76.8137 16.4969H74.0188V15.5008H76.7519V14.1783H74.0188V13.2615H76.8137V11.939H72.5027V17.8194H76.8137V16.4969Z" fill="#969696"/>
<path d="M37.1863 22.3644C37.1863 22.1087 37.3803 21.959 37.8211 21.959C38.403 21.959 39.0465 22.1617 39.5403 22.5762L40.3691 21.4389C39.7431 20.9012 38.9231 20.6189 37.98 20.6189C36.4726 20.6189 35.6439 21.5006 35.6439 22.4879C35.6439 24.7535 38.9676 24.1099 38.9676 24.8857C38.9676 25.1768 38.6502 25.3529 38.1389 25.3529C37.3277 25.3529 36.6754 25.0004 36.2524 24.5771L35.45 25.7583C36.0406 26.3138 36.8693 26.6929 38.0596 26.6929C39.6378 26.6929 40.5104 25.9084 40.5104 24.7268C40.5104 22.5405 37.1867 23.0869 37.1867 22.3641L37.1863 22.3644Z" fill="#969696"/>
<path d="M44.0628 20.6104C42.2644 20.6104 40.9155 21.8624 40.9155 23.6518C40.9155 25.4411 42.2644 26.6932 44.0628 26.6932C45.8613 26.6932 47.2014 25.4411 47.2014 23.6518C47.2014 21.8624 45.8613 20.6104 44.0628 20.6104ZM44.0628 25.3534C43.0931 25.3534 42.4583 24.6039 42.4583 23.6518C42.4583 22.6996 43.0931 21.9504 44.0628 21.9504C45.0326 21.9504 45.6586 22.6911 45.6586 23.6518C45.6586 24.6124 45.0326 25.3534 44.0628 25.3534Z" fill="#969696"/>
<path d="M49.4581 20.707H47.9417V26.5875H51.8206V25.2649H49.4581V20.707Z" fill="#969696"/>
<path d="M56.4227 24.1542C56.4227 24.8507 55.9994 25.3533 55.1886 25.3533C54.3777 25.3533 53.9456 24.8507 53.9456 24.1542V20.707H52.4028V24.2068C52.4028 25.6528 53.3021 26.693 55.1886 26.693C57.0751 26.693 57.9568 25.6616 57.9568 24.1981V20.707H56.4227V24.1542Z" fill="#969696"/>
<path d="M58.6794 22.0296H60.3282V26.5875H61.8443V22.0296H63.4842V20.707H58.6794V22.0296Z" fill="#969696"/>
<path d="M65.7238 20.707H64.2073V26.5875H65.7238V20.707Z" fill="#969696"/>
<path d="M69.629 20.6104C67.8305 20.6104 66.4817 21.8624 66.4817 23.6518C66.4817 25.4411 67.8305 26.6932 69.629 26.6932C71.4275 26.6932 72.7676 25.4411 72.7676 23.6518C72.7676 21.8624 71.4275 20.6104 69.629 20.6104ZM69.629 25.3534C68.6593 25.3534 68.0245 24.6039 68.0245 23.6518C68.0245 22.6996 68.6593 21.9504 69.629 21.9504C70.5987 21.9504 71.2248 22.6911 71.2248 23.6518C71.2248 24.6124 70.5987 25.3534 69.629 25.3534Z" fill="#969696"/>
<path d="M77.4752 20.707V23.9427L75.0949 20.707H73.5342V26.5875H75.0507V23.1845L77.5369 26.5875H79.0001V20.707H77.4752Z" fill="#969696"/>
</g>
<defs>
<clipPath id="clip0_149_392">
<rect width="79" height="30.1608" fill="white"/>
</clipPath>
</defs>
</svg>
