<svg width="20" height="20" viewBox="0 0 20 20" fill="none" xmlns="http://www.w3.org/2000/svg">
<path d="M4.26037 18.7316C6.04376 18.7002 7.22813 16.8176 7.30186 15.0355C7.37315 13.3124 7.44041 11.5355 7.44041 9.71935C7.44041 7.90325 7.37315 6.12633 7.30186 4.40323C7.22813 2.62109 6.04376 0.738541 4.26037 0.707098C4.23886 0.706718 4.21733 0.706526 4.19579 0.706526C4.17424 0.706526 4.15272 0.706718 4.1312 0.707098C2.34782 0.738539 1.16345 2.62109 1.08971 4.40323C1.01843 6.12633 0.951172 7.90325 0.951172 9.71935C0.951172 11.5355 1.01843 13.3124 1.08971 15.0355C1.16345 16.8176 2.34782 18.7002 4.1312 18.7316C4.15272 18.732 4.17424 18.7322 4.19579 18.7322C4.21733 18.7322 4.23886 18.732 4.26037 18.7316Z" fill="#3E3E3E"/>
<path d="M7.75581 8.99854C7.75581 10.279 7.78374 11.9133 7.79177 13.4602C7.80138 15.3103 6.46053 16.7991 4.61043 16.8052C4.33418 16.8061 4.05633 16.8045 3.78238 16.8008C1.93244 16.7756 0.575597 15.3103 0.605057 13.4604C0.652331 10.4919 0.874215 7.24144 1.04892 4.27595C1.15383 2.49516 2.41186 0.706734 4.19574 0.706734V0.706734V0.706734C5.97962 0.706734 7.32851 2.48907 7.4673 4.26754C7.47491 4.36506 7.48108 4.45554 7.48542 4.5372" stroke="#FAFAFA" stroke-linecap="round" stroke-linejoin="round"/>
<circle cx="4.19571" cy="15.0819" r="3.60513" fill="#3E3E3E" stroke="#FAFAFA"/>
<path d="M14.9012 18.7316C13.1179 18.7002 11.9335 16.8176 11.8598 15.0355C11.7885 13.3124 11.7212 11.5355 11.7212 9.71935C11.7212 7.90325 11.7885 6.12633 11.8598 4.40323C11.9335 2.62109 13.1179 0.738541 14.9012 0.707098C14.9228 0.706718 14.9443 0.706526 14.9658 0.706526C14.9874 0.706526 15.0089 0.706718 15.0304 0.707098C16.8138 0.738539 17.9982 2.62109 18.0719 4.40323C18.1432 6.12633 18.2104 7.90325 18.2104 9.71935C18.2104 11.5355 18.1432 13.3124 18.0719 15.0355C17.9982 16.8176 16.8138 18.7002 15.0304 18.7316C15.0089 18.732 14.9874 18.7322 14.9658 18.7322C14.9443 18.7322 14.9228 18.732 14.9012 18.7316Z" fill="#3E3E3E"/>
<path d="M11.4058 8.99854C11.4058 10.279 11.3779 11.9133 11.3699 13.4602C11.3602 15.3103 12.7011 16.7991 14.5512 16.8052C14.8274 16.8061 15.1053 16.8045 15.3792 16.8008C17.2292 16.7756 18.586 15.3103 18.5566 13.4604C18.5093 10.4919 18.2874 7.24144 18.1127 4.27595C18.0078 2.49516 16.7498 0.706734 14.9659 0.706734V0.706734V0.706734C13.182 0.706734 11.8331 2.48907 11.6943 4.26754C11.6867 4.36506 11.6805 4.45554 11.6762 4.5372" stroke="#FAFAFA" stroke-linecap="round" stroke-linejoin="round"/>
<circle cx="3.60513" cy="3.60513" r="3.60513" transform="matrix(-1 0 0 1 18.571 11.4768)" fill="#3E3E3E" stroke="#FAFAFA"/>
<path d="M13.1807 5.72501C10.721 4.08092 8.39577 4.08092 5.93604 5.72501" stroke="#FAFAFA" stroke-linecap="round"/>
</svg>
