<svg width="72" height="72" viewBox="0 0 72 72" fill="none" xmlns="http://www.w3.org/2000/svg">
<path d="M0 35.9523L0.00251458 37.029H0.0150875C0.275766 45.9061 3.78109 54.3094 9.92673 60.7552C16.3054 67.4455 24.8927 71.3922 34.1069 71.8694L36.6282 72V71.918H51.9169C57.2813 71.918 62.3247 69.8316 66.1176 66.0423C69.5324 62.6314 71.5868 58.1514 71.943 53.3692H72V0H0V35.9523ZM4.79447 35.9556C4.79531 27.9166 7.85136 20.2852 13.3994 14.4665C15.4102 12.3575 17.6951 10.5432 20.1921 9.07472L22.3923 7.89758C25.3746 6.45252 28.548 5.50059 31.8346 5.06356V66.8536C28.4533 66.404 25.1978 65.4127 22.1476 63.9023C18.8812 62.2848 15.9383 60.1139 13.3994 57.4515C7.85136 51.6327 4.79531 44.0006 4.79447 35.9556ZM51.9177 33.5645C47.6413 33.5645 43.7562 32.2467 40.9768 29.8547C38.1319 27.4058 36.6291 24.0193 36.6291 20.06C36.6291 11.6392 43.4872 4.78895 51.9177 4.78895C60.3483 4.78895 67.2064 11.6392 67.2064 20.06V39.5892C66.82 39.1865 66.4134 38.8014 65.9885 38.4355C62.339 35.2942 57.3425 33.5637 51.9177 33.5637V33.5645ZM51.9177 38.3535C56.1933 38.3535 60.0792 39.6713 62.8587 42.0641C65.7026 44.5129 67.2064 47.8995 67.2064 51.8588C67.2064 60.2796 60.3483 67.1298 51.9177 67.1298V67.7578L51.9135 67.1298C43.4855 67.1273 36.6291 60.2771 36.6291 51.8588V32.3296C37.0155 32.7323 37.422 33.1174 37.847 33.4833C41.4965 36.6246 46.4929 38.3551 51.9177 38.3551V38.3535Z" fill="#353535"/>
</svg>
