<svg width="20" height="20" viewBox="0 0 20 20" fill="none" xmlns="http://www.w3.org/2000/svg">
<path d="M4.26034 18.7316C6.04373 18.7002 7.2281 16.8176 7.30183 15.0355C7.37312 13.3124 7.44037 11.5355 7.44037 9.71935C7.44037 7.90325 7.37312 6.12633 7.30183 4.40323C7.2281 2.62109 6.04373 0.738541 4.26034 0.707098C4.23883 0.706718 4.2173 0.706526 4.19576 0.706526C4.17421 0.706526 4.15269 0.706718 4.13117 0.707098C2.34779 0.738539 1.16342 2.62109 1.08968 4.40323C1.0184 6.12633 0.951141 7.90325 0.951141 9.71935C0.951141 11.5355 1.0184 13.3124 1.08968 15.0355C1.16342 16.8176 2.34779 18.7002 4.13117 18.7316C4.15269 18.732 4.17421 18.7322 4.19576 18.7322C4.2173 18.7322 4.23883 18.732 4.26034 18.7316Z" fill="#FAFAFA"/>
<path d="M7.75581 8.99854C7.75581 10.279 7.78374 11.9133 7.79177 13.4602C7.80138 15.3103 6.46053 16.7991 4.61043 16.8052C4.33418 16.8061 4.05633 16.8045 3.78238 16.8008C1.93244 16.7756 0.575597 15.3103 0.605057 13.4604C0.652331 10.4919 0.874215 7.24144 1.04892 4.27595C1.15383 2.49516 2.41186 0.706734 4.19574 0.706734V0.706734V0.706734C5.97962 0.706734 7.32851 2.48907 7.4673 4.26754C7.47491 4.36506 7.48108 4.45554 7.48542 4.5372" stroke="#0C0C0C" stroke-linecap="round" stroke-linejoin="round"/>
<circle cx="4.19577" cy="15.0819" r="3.60513" fill="#FAFAFA" stroke="#0C0C0C"/>
<path d="M14.9015 18.7316C13.1181 18.7002 11.9338 16.8176 11.86 15.0355C11.7887 13.3124 11.7215 11.5355 11.7215 9.71935C11.7215 7.90325 11.7887 6.12633 11.86 4.40323C11.9338 2.62109 13.1181 0.738541 14.9015 0.707098C14.923 0.706718 14.9446 0.706526 14.9661 0.706526C14.9877 0.706526 15.0092 0.706718 15.0307 0.707098C16.8141 0.738539 17.9984 2.62109 18.0722 4.40323C18.1435 6.12633 18.2107 7.90325 18.2107 9.71935C18.2107 11.5355 18.1435 13.3124 18.0722 15.0355C17.9984 16.8176 16.8141 18.7002 15.0307 18.7316C15.0092 18.732 14.9877 18.7322 14.9661 18.7322C14.9446 18.7322 14.923 18.732 14.9015 18.7316Z" fill="#FAFAFA"/>
<path d="M11.406 8.99854C11.406 10.279 11.3781 11.9133 11.3701 13.4602C11.3605 15.3103 12.7013 16.7991 14.5514 16.8052C14.8277 16.8061 15.1055 16.8045 15.3795 16.8008C17.2294 16.7756 18.5862 15.3103 18.5568 13.4604C18.5095 10.4919 18.2876 7.24144 18.1129 4.27595C18.008 2.49516 16.75 0.706734 14.9661 0.706734V0.706734V0.706734C13.1822 0.706734 11.8333 2.48907 11.6945 4.26754C11.6869 4.36506 11.6808 4.45554 11.6764 4.5372" stroke="#0C0C0C" stroke-linecap="round" stroke-linejoin="round"/>
<circle cx="3.60513" cy="3.60513" r="3.60513" transform="matrix(-1 0 0 1 18.5712 11.4768)" fill="#FAFAFA" stroke="#0C0C0C"/>
<path d="M13.1807 5.72501C10.721 4.08092 8.3958 4.08092 5.93607 5.72501" stroke="#0C0C0C" stroke-linecap="round"/>
</svg>
