<svg width="15" height="20" viewBox="0 0 15 20" fill="none" xmlns="http://www.w3.org/2000/svg">
<path d="M6.31186 0.782859C6.22826 0.732915 6.13268 0.706543 6.03529 0.706543C5.9379 0.706543 5.84233 0.732915 5.75872 0.782859C5.68975 0.837501 5.64322 0.915536 5.62793 1.00219C5.61264 1.08884 5.62965 1.17808 5.67575 1.25303C7.37667 4.19853 7.73621 8.20884 5.413 10.4214C4.51916 9.67027 3.80953 8.7241 3.33871 7.65569C2.47958 8.13285 1.76757 8.83624 1.27999 9.6895C0.792415 10.5428 0.547896 11.5133 0.572981 12.4957C0.718651 16.093 3.03448 18.7186 7.4873 18.7186C11.9401 18.7186 14.2495 15.9529 14.4016 12.4957C14.5814 8.34712 11.6359 3.24436 6.31186 0.782859Z" fill="#FAFAFA"/>
<path d="M6.31186 0.782859C6.22826 0.732915 6.13268 0.706543 6.03529 0.706543C5.9379 0.706543 5.84233 0.732915 5.75872 0.782859C5.68975 0.837501 5.64322 0.915536 5.62793 1.00219C5.61264 1.08884 5.62965 1.17808 5.67575 1.25303C7.37667 4.19853 7.73621 8.20884 5.413 10.4214C4.51916 9.67027 3.80953 8.7241 3.33871 7.65569C2.47958 8.13285 1.76757 8.83624 1.27999 9.6895C0.792415 10.5428 0.547896 11.5133 0.572981 12.4957C0.718651 16.093 3.03448 18.7186 7.4873 18.7186C11.9401 18.7186 14.2495 15.9529 14.4016 12.4957C14.5814 8.34712 11.6359 3.24436 6.31186 0.782859Z" stroke="#0C0C0C" stroke-linecap="round" stroke-linejoin="round"/>
<path d="M10.9445 12.4956C10.9445 13.2291 10.6531 13.9326 10.1344 14.4513C9.61575 14.9699 8.91227 15.2613 8.17876 15.2613" fill="#FAFAFA"/>
<path d="M10.9445 12.4956C10.9445 13.2291 10.6531 13.9326 10.1344 14.4513C9.61575 14.9699 8.91227 15.2613 8.17876 15.2613" stroke="#0C0C0C" stroke-linecap="round" stroke-linejoin="round"/>
</svg>
