<svg width="129" height="46" viewBox="0 0 129 46" fill="none" xmlns="http://www.w3.org/2000/svg">
<path d="M55.2654 32.5216L51.9638 45.0528H47.8503L47.8992 44.911C48.5693 43.5708 49.6698 41.2768 50.3839 38.6943L55.7887 18.4154C56.4588 15.784 56.6496 13.5829 56.6985 12.0569L56.7474 11.915H60.763L58.8506 19.1344C61.575 14.3509 65.0673 11.6265 68.0803 11.6265C71.9052 11.6265 74.4877 15.9307 71.7144 23.9669C68.6036 32.7662 63.2037 35.8281 59.6625 35.8281C57.2707 35.8281 55.7887 34.3949 55.2605 32.5265L55.2654 32.5216ZM68.1781 24.2017C70.3302 18.2247 69.3715 14.0134 66.4075 14.0134C63.2527 14.0134 59.3299 18.7969 57.2267 25.2044L56.0333 29.6994C55.8914 31.7097 56.6544 34.0036 59.0462 34.1015C62.157 34.1504 65.8841 30.707 68.183 24.2017H68.1781Z" fill="#969696"/>
<path d="M74.111 23.3409C77.2218 14.6346 82.6217 11.6216 86.2607 11.6216C88.7455 11.6216 90.2764 12.9129 90.7068 14.8742C91.9492 13.9645 93.0008 13.0107 93.8176 11.9102H94.5807L89.1759 31.8515C88.4569 34.6737 92.3307 32.0912 95.4904 26.7353L95.779 27.1169C93.6758 31.9004 90.565 35.8232 87.8895 35.8232C86.5493 35.8232 85.1651 34.9134 86.07 31.47L86.9308 28.3152C84.1575 33.0499 80.6163 35.8232 77.6523 35.8232C73.7784 35.8232 71.2448 31.4211 74.111 23.3409ZM79.325 33.3825C82.4799 33.3825 86.4515 28.5989 88.5547 22.1914L89.7971 17.5057C89.9878 15.5932 89.3177 13.2993 86.8819 13.2503C83.7711 13.1525 79.8973 16.6937 77.6523 23.0083C75.4512 29.1761 76.3121 33.3874 79.325 33.3874V33.3825Z" fill="#969696"/>
<path d="M94.3606 30.9908L97.7551 18.1759C98.4741 15.6423 98.4741 13.539 98.3763 12.0521L98.4252 11.9103H102.681L97.6133 30.6582C96.3709 35.3929 100.577 31.8076 103.688 26.4518L103.977 26.8333C101.922 31.6658 98.8116 35.5396 96.2291 35.5396C94.7959 35.5396 93.4068 34.488 94.3655 30.9957L94.3606 30.9908ZM100.528 3.34581C100.91 1.86378 102.348 0.714355 103.683 0.714355C105.019 0.714355 105.786 1.86378 105.454 3.34581C105.072 4.77893 103.59 5.92836 102.299 5.92836C101.008 5.92836 100.147 4.77893 100.528 3.34581Z" fill="#969696"/>
<path d="M104.525 23.341C107.635 14.6347 113.084 11.5777 116.625 11.6217C119.017 11.6217 120.401 12.9619 120.93 14.8254L123.033 7.02888C123.703 4.49524 123.943 2.19639 123.752 0.905114L123.703 0.763269L128.105 0.000244141L119.594 31.8517C118.875 34.6739 122.749 32.0913 125.909 26.7355L126.197 27.117C124.094 31.9006 120.983 35.8233 118.308 35.8233C116.968 35.8233 115.584 34.8646 116.488 31.4701L117.349 28.2664C114.576 33.05 111.035 35.8233 108.071 35.8233C104.197 35.8233 101.663 31.4212 104.529 23.341H104.525ZM109.739 33.3826C112.893 33.3826 116.865 28.599 118.968 22.1916L120.118 17.8873C120.308 15.7841 119.687 13.4412 117.247 13.3434C114.185 13.2456 110.311 16.689 108.066 23.0035C105.865 29.1713 106.726 33.3826 109.739 33.3826Z" fill="#969696"/>
<path d="M15.8523 12.5459C15.4708 12.2623 14.2822 11.6851 12.9909 11.646C9.1171 11.5237 6.10413 13.4166 5.05253 16.4785C3.66832 20.4452 7.30247 22.9837 9.83611 24.6565C10.3546 24.994 10.8535 25.3364 11.323 25.6886C13.0154 26.9505 14.2871 28.3249 14.4436 29.9292C14.4925 30.4673 14.4192 31.0395 14.1893 31.6363C14.0768 31.9199 13.9447 32.1792 13.7931 32.4139C13.0496 33.5976 11.8757 34.2139 10.648 34.4487C10.1247 34.5514 9.58666 34.5807 9.07308 34.5563C8.14376 34.5269 7.2878 34.2971 6.51499 33.9107C5.9574 33.6367 5.44871 33.2895 4.98894 32.8786C3.84441 31.8661 3.00801 30.5162 2.56781 29.1515L2.42596 29.2004L1.13469 32.8688L0.89502 33.5536C1.81945 34.2677 2.92975 34.8498 4.13788 35.2753C5.6786 35.8231 7.38562 36.1166 9.07308 36.0872C10.0758 36.0726 11.01 35.9552 11.8757 35.7253C14.3605 35.0552 16.2191 33.4851 17.0751 31.0053C17.1044 30.9319 17.1289 30.8537 17.1533 30.7754C17.8772 28.5842 17.2952 26.7646 15.7838 25.0527C15.0257 24.1919 14.0376 23.3604 12.8638 22.5191C12.6583 22.3723 12.448 22.2207 12.2279 22.074C9.93393 20.4941 6.92096 18.6306 7.97257 15.9062C8.68668 13.9888 10.604 13.1769 12.6094 13.084C13.7246 13.0302 14.742 13.2454 15.6273 13.6709L15.8523 12.5459Z" fill="#969696"/>
<path d="M19.2467 29.3423L23.502 13.5144H20.2005L20.4891 12.4628C24.314 11.6509 26.515 8.87756 28.1878 5.67383H28.9068L27.1851 11.9394H34.4241L33.9936 13.5193H26.8036L22.739 28.5352C21.6385 32.5509 22.5972 33.3677 23.6977 33.3677C25.3216 33.3677 27.8601 31.646 30.6823 26.6228L30.9709 27.0043C28.8677 31.7879 25.8547 35.8525 22.3135 35.8525C19.3983 35.8525 18.2489 33.0791 19.2516 29.3472L19.2467 29.3423Z" fill="#969696"/>
<path d="M30.3889 27.6695L32.9226 18.4398C33.5927 15.8573 33.7834 13.3237 33.5927 12.0813V11.9395H37.9458L33.7394 27.244C32.497 31.739 34.072 33.4118 36.1801 33.4118C40.6751 33.4118 45.4098 25.6152 47.469 18.9192L49.3814 11.9346H52.683L47.1364 32.0667C46.5152 34.5074 50.3401 32.1156 53.4949 26.7598L53.7835 27.1413C51.6803 31.9249 48.5695 35.8476 45.9869 35.8476C44.5538 35.8476 43.1647 34.8889 44.0745 31.4944L45.2679 27.0483C42.7343 31.6852 39.1001 35.7987 34.747 35.7987C31.5922 35.7987 28.77 33.6955 30.3938 27.6695H30.3889Z" fill="#969696"/>
</svg>
