<svg width="291" height="103" viewBox="0 0 291 103" fill="none" xmlns="http://www.w3.org/2000/svg">
<path d="M124.448 74.1387L116.921 102.706H107.544L107.655 102.383C109.183 99.3275 111.692 94.098 113.32 88.2105L125.641 41.9809C127.168 35.982 127.603 30.9643 127.715 27.4854L127.826 27.162H136.981L132.621 43.62C138.832 32.7149 146.793 26.5042 153.662 26.5042C162.381 26.5042 168.269 36.3165 161.947 54.6366C154.855 74.6962 142.545 81.6764 134.472 81.6764C129.019 81.6764 125.641 78.4093 124.437 74.1499L124.448 74.1387ZM153.885 55.1719C158.791 41.5461 156.606 31.9456 149.848 31.9456C142.656 31.9456 133.714 42.8507 128.919 57.4577L126.198 67.7049C125.875 72.2878 127.614 77.5173 133.067 77.7403C140.159 77.8518 148.655 70.0019 153.896 55.1719H153.885Z" fill="#0C0C0C"/>
<path d="M167.41 53.2096C174.502 33.3618 186.812 26.4932 195.108 26.4932C200.772 26.4932 204.262 29.4369 205.244 33.9082C208.076 31.8342 210.473 29.6599 212.335 27.151H214.075L201.753 72.6113C200.114 79.0451 208.945 73.1576 216.149 60.9479L216.807 61.8177C212.012 72.7228 204.92 81.6654 198.821 81.6654C195.766 81.6654 192.61 79.5914 194.673 71.7415L196.635 64.5495C190.313 75.3431 182.24 81.6654 175.483 81.6654C166.652 81.6654 160.876 71.63 167.41 53.2096ZM179.297 76.1014C186.489 76.1014 195.543 65.1963 200.337 50.5892L203.17 39.9071C203.604 35.5473 202.077 30.3178 196.524 30.2063C189.432 29.9832 180.601 38.0561 175.483 52.4513C170.465 66.512 172.428 76.1125 179.297 76.1125V76.1014Z" fill="#0C0C0C"/>
<path d="M213.573 70.6488L221.311 41.4347C222.951 35.6588 222.951 30.8641 222.728 27.4743L222.839 27.151H232.54L220.988 69.8905C218.156 80.6841 227.745 72.5109 234.837 60.3012L235.495 61.1709C230.812 72.1875 223.72 81.0186 217.833 81.0186C214.565 81.0186 211.399 78.6213 213.584 70.6599L213.573 70.6488ZM227.634 7.62661C228.503 4.24803 231.782 1.62769 234.826 1.62769C237.87 1.62769 239.62 4.24803 238.862 7.62661C237.992 10.8937 234.614 13.514 231.67 13.514C228.727 13.514 226.764 10.8937 227.634 7.62661Z" fill="#0C0C0C"/>
<path d="M236.744 53.2098C243.835 33.362 256.257 26.393 264.33 26.4934C269.782 26.4934 272.938 29.5486 274.142 33.7969L278.937 16.0231C280.464 10.2472 281.011 5.00654 280.576 2.06283L280.464 1.73946L290.5 0L271.098 72.6115C269.459 79.0453 278.29 73.1579 285.493 60.9482L286.151 61.8179C281.357 72.723 274.265 81.6656 268.166 81.6656C265.11 81.6656 261.955 79.4802 264.018 71.7418L265.98 64.4382C259.658 75.3434 251.585 81.6656 244.828 81.6656C235.997 81.6656 230.221 71.6303 236.755 53.2098H236.744ZM248.63 76.1016C255.822 76.1016 264.876 65.1965 269.671 50.5894L272.291 40.7771C272.726 35.9824 271.31 30.6413 265.746 30.4183C258.766 30.1953 249.935 38.0452 244.817 52.4404C239.799 66.5011 241.761 76.1016 248.63 76.1016Z" fill="#0C0C0C"/>
<path d="M34.598 28.6005C33.7282 27.9538 31.0187 26.6381 28.075 26.5489C19.2438 26.2701 12.3752 30.5853 9.97785 37.5655C6.82229 46.6085 15.107 52.3955 20.883 56.209C22.0649 56.9784 23.2022 57.7589 24.2727 58.5617C28.1307 61.4385 31.0298 64.5718 31.3867 68.2291C31.4982 69.4557 31.3309 70.7603 30.8068 72.1206C30.5504 72.7673 30.2493 73.3583 29.9036 73.8935C28.2088 76.5919 25.5327 77.9969 22.7339 78.5321C21.5408 78.7663 20.3143 78.8332 19.1435 78.7774C17.0249 78.7105 15.0736 78.1864 13.3118 77.3056C12.0407 76.6811 10.881 75.8895 9.8329 74.9528C7.2237 72.6447 5.31698 69.5672 4.31344 66.4562L3.99008 66.5677L1.04637 74.9305L0.5 76.4916C2.60743 78.1195 5.13857 79.4464 7.89273 80.4165C11.4051 81.6654 15.2966 82.3344 19.1435 82.2675C21.4293 82.234 23.5591 81.9664 25.5327 81.4424C31.1971 79.9148 35.4343 76.3355 37.3856 70.6822C37.4525 70.515 37.5082 70.3366 37.564 70.1581C39.2142 65.1628 37.8873 61.0148 34.4419 57.1122C32.7136 55.1497 30.4612 53.2541 27.7851 51.3362C27.3167 51.0017 26.8373 50.6561 26.3355 50.3216C21.106 46.72 14.2373 42.4717 16.6347 36.2609C18.2626 31.8899 22.6336 30.039 27.2052 29.8271C29.7475 29.7044 32.0668 30.1951 34.0851 31.1651L34.598 28.6005Z" fill="#0C0C0C"/>
<path d="M42.3363 66.8909L52.0371 30.8082H44.5106L45.1685 28.4109C53.8881 26.5599 58.9058 20.2376 62.7192 12.9341H64.3583L60.4334 27.2178H76.936L75.9548 30.8193H59.5637L50.2977 65.0511C47.7888 74.2056 49.9743 76.0677 52.4831 76.0677C56.1851 76.0677 61.9721 72.1428 68.4059 60.6913L69.0638 61.561C64.2691 72.4661 57.4005 81.7321 49.3276 81.7321C42.6819 81.7321 40.0616 75.4099 42.3474 66.9021L42.3363 66.8909Z" fill="#0C0C0C"/>
<path d="M67.7371 63.0777L73.513 42.0368C75.0407 36.1494 75.4755 30.3735 75.0406 27.5413V27.2179H84.9645L75.3752 62.1076C72.543 72.3548 76.1334 76.1683 80.9392 76.1683C91.1864 76.1683 101.98 58.3945 106.674 43.1296L111.034 27.2068H118.561L105.916 73.1019C104.5 78.666 113.22 73.2134 120.412 61.0037L121.07 61.8734C116.275 72.7785 109.183 81.7212 103.296 81.7212C100.029 81.7212 96.862 79.5357 98.936 71.7973L101.657 61.6616C95.8808 72.2322 87.596 81.6097 77.6721 81.6097C70.4801 81.6097 64.0463 76.815 67.7483 63.0777H67.7371Z" fill="#0C0C0C"/>
</svg>
